<?xml version="1.0" standalone="no"?>
<!DOCTYPE svg PUBLIC "-//W3C//DTD SVG 1.1//EN" "http://www.w3.org/Graphics/SVG/1.1/DTD/svg11.dtd" >
<svg xmlns="http://www.w3.org/2000/svg" xmlns:xlink="http://www.w3.org/1999/xlink" version="1.1">
<metadata>
Created by FontForge 20161116 at Wed Oct  9 17:18:32 2013
 By Jimmy Wärting
Copyright (c) 2013 by Aviation Partners. All rights reserved.
</metadata>
<defs>
<font id="CorsicaSX-Regular" horiz-adv-x="567" >
  <font-face 
    font-family="Corsica SX"
    font-weight="400"
    font-stretch="normal"
    units-per-em="1000"
    panose-1="2 0 0 0 0 0 0 0 0 0"
    ascent="775"
    descent="-225"
    x-height="441"
    cap-height="712"
    bbox="-118 -273 1122 969"
    underline-thickness="50"
    underline-position="-100"
    stemh="78"
    stemv="81"
    unicode-range="U+0020-FB04"
  />
<missing-glyph horiz-adv-x="595" 
d="M47 724h500v-724h-500v724zM510 37v650h-426v-650h426zM186 233l-28 29l107 109l-107 110l28 28l109 -109l109 109l28 -28l-109 -110l109 -109l-28 -29l-109 109z" />
    <glyph glyph-name="fi" unicode="fi" horiz-adv-x="523" 
d="M421 743v-79c-50 20 -108 37 -158 37c-52 0 -95 -45 -95 -99v-161h294v-441h-81v375h-213v-375h-81v375h-74v66h74v161c0 95 79 173 176 173c52 0 109 -11 158 -32z" />
    <glyph glyph-name="fl" unicode="fl" horiz-adv-x="523" 
d="M13 441h74v161c0 95 79 173 176 173c83 0 168 -28 199 -39v-736h-81v683c-28 8 -75 18 -118 18c-52 0 -95 -45 -95 -99v-161h141v-66h-141v-375h-81v375h-74v66z" />
    <glyph glyph-name="ff" unicode="ff" horiz-adv-x="616" 
d="M13 441h74v150c0 95 78 173 175 173c18 0 36 -2 55 -6v-76c-18 5 -37 8 -55 8c-52 0 -94 -45 -94 -99v-150h213v161c0 95 78 173 175 173c18 0 36 -2 55 -6v-76c-18 5 -37 8 -55 8c-52 0 -94 -45 -94 -99v-161h141v-66h-141v-375h-81v375h-213v-375h-81v375h-74v66z" />
    <glyph glyph-name="f_f_i" unicode="ffi" horiz-adv-x="817" 
d="M13 441h74v150c0 95 78 173 175 173c18 0 36 -2 55 -6v-76c-18 5 -37 8 -55 8c-52 0 -94 -45 -94 -99v-150h213v161c0 95 79 173 176 173c52 0 109 -11 158 -32v-79c-50 20 -108 37 -158 37c-52 0 -95 -45 -95 -99v-161h294v-441h-81v375h-213v-375h-81v375h-213v-375
h-81v375h-74v66z" />
    <glyph glyph-name="f_f_l" unicode="ffl" horiz-adv-x="817" 
d="M13 441h74v150c0 95 78 173 175 173c18 0 23 -2 42 -6v-76c-18 5 -24 8 -42 8c-52 0 -94 -45 -94 -99v-150h213v161c0 95 79 173 176 173c83 0 168 -28 199 -39v-736h-81v683c-28 8 -75 18 -118 18c-52 0 -95 -45 -95 -99v-161h141v-66h-141v-375h-81v375h-213v-375h-81
v375h-74v66z" />
    <glyph glyph-name=".notdef" horiz-adv-x="595" 
d="M47 724h500v-724h-500v724zM510 37v650h-426v-650h426zM186 233l-28 29l107 109l-107 110l28 28l109 -109l109 109l28 -28l-109 -110l109 -109l-28 -29l-109 109z" />
    <glyph glyph-name="dotaccent" unicode="&#x2d9;" horiz-adv-x="398" 
d="M246 641c0 -28 -23 -51 -52 -51c-28 0 -52 23 -52 51c0 29 24 52 52 52c29 0 52 -23 52 -52z" />
    <glyph glyph-name="ring" unicode="&#x2da;" horiz-adv-x="397" 
d="M99 641c0 52 43 95 95 95c53 0 96 -43 96 -95s-43 -95 -96 -95c-52 0 -95 43 -95 95zM145 641c0 -27 23 -49 49 -49c28 0 50 22 50 49s-22 49 -50 49c-26 0 -49 -22 -49 -49z" />
    <glyph glyph-name="hungarumlaut" unicode="&#x2dd;" horiz-adv-x="388" 
d="M155 723l48 -48l-129 -117l-36 38zM298 723l48 -48l-129 -117l-37 38z" />
    <glyph glyph-name="ogonek" unicode="&#x2db;" horiz-adv-x="397" 
d="M263 -192c-16 -7 -34 -12 -54 -12c-55 0 -93 37 -93 85c0 45 37 91 83 120h81c-49 -19 -105 -72 -105 -113c0 -24 20 -37 41 -37c14 0 33 5 47 16v-59z" />
    <glyph glyph-name="caron" unicode="&#x2c7;" horiz-adv-x="384" 
d="M322 726l32 -44l-164 -124l-164 124l32 44l132 -84z" />
    <glyph glyph-name="dotlessi" unicode="&#x131;" horiz-adv-x="203" 
d="M142 441v-441h-81v441h81z" />
    <glyph glyph-name="fraction" unicode="&#x2044;" horiz-adv-x="182" 
d="M-66 -15l-52 27l365 714l53 -27z" />
    <glyph glyph-name="exclam" unicode="!" horiz-adv-x="254" 
d="M85 182v530h81v-530h-81zM126 105c30 0 55 -25 55 -56s-25 -55 -55 -55s-55 24 -55 55s25 56 55 56z" />
    <glyph glyph-name="quotedbl" unicode="&#x22;" horiz-adv-x="379" 
d="M54 712h95l-20 -290h-55zM224 712h94l-20 -290h-54z" />
    <glyph glyph-name="numbersign" unicode="#" horiz-adv-x="578" 
d="M216 690h73l-30 -188h117l30 188h76l-30 -188h82v-75h-94l-25 -158h90v-74h-102l-32 -195h-74l30 195h-116l-33 -195h-72l30 195h-92v74h105l24 158h-99v75h111zM248 429l-26 -161h118l25 161h-117z" />
    <glyph glyph-name="percent" unicode="%" horiz-adv-x="787" 
d="M180 724c88 0 151 -49 151 -186s-63 -186 -151 -186c-89 0 -153 49 -153 186s64 186 153 186zM180 411c51 0 87 32 87 127s-36 128 -87 128c-52 0 -89 -33 -89 -128s37 -127 89 -127zM607 364c89 0 152 -46 152 -185c0 -138 -63 -186 -152 -186s-151 48 -151 186
c0 139 62 185 151 185zM607 51c52 0 89 32 89 128c0 94 -37 127 -89 127c-51 0 -87 -33 -87 -127c0 -96 36 -128 87 -128zM176 12l365 714l55 -27l-366 -715z" />
    <glyph glyph-name="ampersand" unicode="&#x26;" horiz-adv-x="697" 
d="M437 180l-161 173c-70 -34 -135 -87 -135 -163c0 -66 69 -122 134 -122c76 0 125 64 162 112zM224 572c0 -45 38 -85 70 -116c41 20 107 54 107 113c0 48 -39 81 -89 81c-51 0 -88 -36 -88 -78zM607 0l-113 119c-43 -57 -112 -130 -215 -130c-130 0 -224 97 -224 213
c0 106 79 161 165 214c-39 40 -78 90 -78 149c0 95 78 159 171 159c90 0 171 -64 171 -160c0 -84 -81 -138 -133 -168l137 -148l72 115h97l-112 -176l175 -187h-113z" />
    <glyph glyph-name="quotesingle" unicode="'" horiz-adv-x="209" 
d="M54 712h95l-20 -290h-55z" />
    <glyph glyph-name="parenleft" unicode="(" horiz-adv-x="307" 
d="M274 724c-62 -98 -137 -230 -137 -443s75 -344 137 -443h-78c-61 105 -139 234 -139 443s78 338 139 443h78z" />
    <glyph glyph-name="parenright" unicode=")" horiz-adv-x="307" 
d="M33 724h78c61 -105 139 -234 139 -443s-78 -338 -139 -443h-78c62 99 137 230 137 443s-75 345 -137 443z" />
    <glyph glyph-name="asterisk" unicode="*" horiz-adv-x="450" 
d="M188 712h75l-9 -132l123 49l23 -72l-127 -34l83 -100l-60 -45l-71 110l-71 -110l-60 45l83 100l-127 34l23 72l122 -49z" />
    <glyph glyph-name="plus" unicode="+" 
d="M244 484h78v-203h203v-78h-203v-203h-78v203h-202v78h202v203z" />
    <glyph glyph-name="comma" unicode="," horiz-adv-x="278" 
d="M22 -190c29 83 55 185 69 274l98 12c-31 -109 -73 -218 -116 -295z" />
    <glyph glyph-name="hyphen" unicode="-" horiz-adv-x="311" 
d="M37 298h237v-73h-237v73z" />
    <glyph glyph-name="period" unicode="." horiz-adv-x="278" 
d="M139 105c31 0 56 -25 56 -56s-25 -55 -56 -55c-30 0 -56 24 -56 55s26 56 56 56z" />
    <glyph glyph-name="slash" unicode="/" horiz-adv-x="430" 
d="M339 736l72 -26l-322 -886l-72 27z" />
    <glyph glyph-name="zero" unicode="0" 
d="M283 724c143 0 241 -85 241 -332v-70c0 -248 -98 -333 -241 -333s-240 85 -240 333v70c0 247 97 332 240 332zM283 66c94 0 156 63 156 262v58c0 198 -62 260 -156 260s-156 -62 -156 -260v-58c0 -199 62 -262 156 -262z" />
    <glyph glyph-name="one" unicode="1" 
d="M323 712h69v-712h-82v596l-197 -165v104z" />
    <glyph glyph-name="two" unicode="2" 
d="M494 78v-78h-433v63l286 316c31 35 62 85 62 121c0 80 -66 146 -143 146c-76 0 -127 -35 -180 -95v104c47 42 109 69 178 69c123 0 229 -99 229 -222c0 -57 -26 -111 -84 -175l-226 -249h311z" />
    <glyph glyph-name="three" unicode="3" 
d="M172 344v71h63c89 0 144 50 144 110c0 70 -58 121 -128 121c-66 0 -111 -18 -159 -46v89c47 22 99 35 159 35c121 0 212 -86 212 -200c0 -57 -29 -111 -86 -142c70 -33 109 -99 109 -169c0 -126 -103 -224 -237 -224c-61 0 -115 11 -164 31v88c41 -23 94 -41 164 -41
c86 0 153 61 153 144c0 78 -70 133 -167 133h-63z" />
    <glyph glyph-name="four" unicode="4" 
d="M456 0h-83v147h-347v73l362 492h68v-487h81v-78h-81v-147zM373 225v205c0 45 2 107 3 137l-7 1c-16 -27 -52 -80 -77 -114l-170 -229h251z" />
    <glyph glyph-name="five" unicode="5" 
d="M238 -11c-67 0 -118 12 -170 34v89c41 -23 91 -45 170 -45c88 0 164 72 164 162c0 93 -62 163 -154 163c-33 0 -85 -7 -140 -42l-41 21l47 341h341v-78h-270l-24 -177c26 9 62 14 88 14c136 0 237 -107 237 -239s-113 -243 -248 -243z" />
    <glyph glyph-name="six" unicode="6" 
d="M330 712h97l-187 -259c19 7 42 10 61 10c127 0 225 -110 225 -234c0 -126 -99 -240 -243 -240c-137 0 -243 108 -243 238c0 76 39 139 82 198zM283 66c88 0 158 70 158 157c0 92 -68 162 -155 162c-82 0 -161 -68 -161 -160c0 -77 62 -159 158 -159z" />
    <glyph glyph-name="seven" unicode="7" 
d="M411 634h-353v78h468v-39l-364 -673h-93z" />
    <glyph glyph-name="eight" unicode="8" 
d="M56 205c0 63 37 148 122 181c-67 33 -95 101 -95 145c0 113 92 193 200 193c110 0 201 -81 201 -193c0 -40 -27 -111 -95 -145c86 -34 122 -118 122 -181c0 -123 -100 -216 -228 -216c-127 0 -227 93 -227 216zM140 206c0 -78 71 -140 144 -140c67 0 142 57 142 140
c0 85 -75 137 -143 137c-70 0 -143 -54 -143 -137zM166 533c0 -55 54 -111 117 -111s118 54 118 111c0 63 -53 116 -117 116c-67 0 -118 -55 -118 -116z" />
    <glyph glyph-name="nine" unicode="9" 
d="M236 0h-97l187 260c-19 -8 -43 -10 -62 -10c-125 0 -224 110 -224 233c0 126 99 241 243 241c138 0 243 -108 243 -239c0 -76 -40 -139 -82 -197zM283 646c-88 0 -158 -70 -158 -157c0 -91 68 -162 155 -162c82 0 161 68 161 160c0 77 -62 159 -158 159z" />
    <glyph glyph-name="colon" unicode=":" horiz-adv-x="278" 
d="M139 105c31 0 56 -25 56 -56s-25 -55 -56 -55c-30 0 -56 24 -56 55s26 56 56 56zM139 447c31 0 56 -25 56 -56s-25 -55 -56 -55c-30 0 -56 24 -56 55s26 56 56 56z" />
    <glyph glyph-name="semicolon" unicode=";" horiz-adv-x="278" 
d="M22 -190c29 83 55 185 69 274l98 12c-31 -109 -73 -218 -116 -295zM139 447c31 0 56 -25 56 -56s-25 -55 -56 -55c-30 0 -56 24 -56 55s26 56 56 56z" />
    <glyph glyph-name="less" unicode="&#x3c;" 
d="M526 483v-83l-376 -159l376 -158v-82l-485 208v65z" />
    <glyph glyph-name="equal" unicode="=" 
d="M42 373h483v-78h-483v78zM42 188h483v-78h-483v78z" />
    <glyph glyph-name="greater" unicode="&#x3e;" 
d="M40 399v83l485 -208v-66l-485 -207v82l375 158z" />
    <glyph glyph-name="question" unicode="?" horiz-adv-x="496" 
d="M240 724c110 0 194 -75 194 -189c0 -151 -190 -199 -190 -285v-62h-81v69c0 126 188 168 188 280c0 66 -50 110 -113 110c-45 0 -85 -19 -111 -46v94c30 17 73 29 113 29zM205 105c31 0 55 -25 55 -56s-24 -55 -55 -55s-56 24 -56 55s25 56 56 56z" />
    <glyph glyph-name="at" unicode="@" horiz-adv-x="1017" 
d="M544 -156v-69c-315 0 -489 223 -489 474c0 280 208 475 474 475c233 0 433 -158 433 -394c0 -205 -118 -341 -233 -341c-59 0 -82 33 -87 97c-62 -81 -129 -97 -181 -97c-131 0 -197 109 -197 229c0 140 91 276 241 276c80 0 147 -62 169 -94l11 83h74l-49 -337
c-3 -22 -5 -38 -5 -42c0 -28 16 -44 38 -44c72 0 144 114 144 252c0 225 -157 341 -359 341c-227 0 -398 -174 -398 -404c0 -208 145 -405 414 -405zM649 248l11 79c-5 7 -63 92 -155 92c-99 0 -164 -83 -164 -197c0 -89 48 -161 134 -161c97 0 163 108 174 187z" />
    <glyph glyph-name="A" unicode="A" horiz-adv-x="708" 
d="M329 712h49l317 -712h-90l-71 166h-361l-70 -166h-90zM500 244l-105 243c-14 32 -33 80 -38 97h-5c-6 -20 -22 -62 -38 -98l-107 -242h293z" />
    <glyph glyph-name="B" unicode="B" horiz-adv-x="586" 
d="M165 634v-234h125c78 0 135 36 135 117c0 76 -62 117 -138 117h-122zM165 322v-244h138c82 0 146 40 146 125c0 80 -62 119 -153 119h-131zM83 712h198c155 0 225 -94 225 -195c0 -61 -34 -123 -83 -148c65 -27 110 -101 110 -168c0 -131 -104 -201 -226 -201h-224v712z
" />
    <glyph glyph-name="C" unicode="C" horiz-adv-x="635" 
d="M580 124v-89c-52 -27 -116 -46 -172 -46c-200 0 -361 161 -361 367s161 368 361 368c61 0 119 -16 172 -45v-93c-50 37 -109 59 -172 59c-164 0 -277 -131 -277 -289c0 -157 113 -289 277 -289c61 0 123 24 172 57z" />
    <glyph glyph-name="D" unicode="D" horiz-adv-x="696" 
d="M259 712c269 0 390 -179 390 -356c0 -176 -121 -356 -390 -356h-176v712h176zM240 78c201 0 324 95 324 278c0 184 -123 278 -324 278h-75v-556h75z" />
    <glyph glyph-name="E" unicode="E" horiz-adv-x="544" 
d="M83 0v712h394v-78h-312v-218h303v-80h-303v-258h312v-78h-394z" />
    <glyph glyph-name="F" unicode="F" horiz-adv-x="495" 
d="M444 634h-279v-221h270v-78h-270v-335h-82v712h361v-78z" />
    <glyph glyph-name="G" unicode="G" horiz-adv-x="710" 
d="M366 367h269v-336c-59 -19 -120 -37 -227 -37c-200 0 -361 156 -361 362s161 368 361 368c84 0 154 -28 196 -50v-89c-45 27 -108 60 -196 60c-165 0 -277 -131 -277 -289c0 -157 112 -282 277 -282c63 0 109 7 145 17v196h-187v80z" />
    <glyph glyph-name="H" unicode="H" horiz-adv-x="677" 
d="M512 416v296h82v-712h-82v335h-347v-335h-82v712h82v-296h347z" />
    <glyph glyph-name="I" unicode="I" horiz-adv-x="249" 
d="M165 712v-712h-82v712h82z" />
    <glyph glyph-name="J" unicode="J" horiz-adv-x="417" 
d="M251 712h82v-510c0 -135 -87 -213 -198 -213c-34 0 -70 11 -95 28v93c28 -23 60 -38 100 -38c59 0 111 48 111 131v509z" />
    <glyph glyph-name="K" unicode="K" horiz-adv-x="602" 
d="M584 712l-302 -334l302 -378h-104l-253 317l-62 -69v-248h-82v712h82v-284c0 -24 -1 -54 -2 -67h5c9 12 28 37 47 59l261 292h108z" />
    <glyph glyph-name="L" unicode="L" horiz-adv-x="444" 
d="M165 712v-634h252v-78h-334v712h82z" />
    <glyph glyph-name="M" unicode="M" horiz-adv-x="905" 
d="M121 712h85l246 -514l246 514h85l75 -712h-84l-47 457c-4 41 -10 97 -9 118h-5c-9 -21 -31 -77 -51 -120l-196 -418h-27l-198 420c-19 41 -42 97 -51 118h-4c-2 -21 -5 -78 -9 -118l-47 -457h-83z" />
    <glyph glyph-name="N" unicode="N" horiz-adv-x="717" 
d="M633 712v-712h-54l-348 473c-24 33 -54 80 -65 97h-4c1 -18 3 -66 3 -104v-466h-82v712h70l339 -463c23 -32 49 -70 58 -88h5c-1 19 -4 71 -4 112v439h82z" />
    <glyph glyph-name="O" unicode="O" horiz-adv-x="816" 
d="M408 724c200 0 361 -162 361 -368s-161 -367 -361 -367s-361 161 -361 367s161 368 361 368zM408 68c164 0 276 130 276 288s-112 289 -276 289c-165 0 -277 -131 -277 -289s112 -288 277 -288z" />
    <glyph glyph-name="P" unicode="P" 
d="M165 634v-297h111c105 0 174 60 174 150s-71 147 -175 147h-110zM83 712h194c167 0 257 -101 257 -225c0 -159 -121 -228 -267 -228h-102v-259h-82v712z" />
    <glyph glyph-name="S" unicode="S" horiz-adv-x="517" 
d="M141 539c0 -130 318 -124 318 -334c0 -124 -94 -216 -222 -216c-79 0 -137 29 -177 63v100c32 -38 98 -85 177 -85c74 0 137 54 137 130c0 150 -317 138 -317 337c0 118 92 190 204 190c73 0 129 -25 169 -56v-97c-44 45 -107 75 -170 75c-57 0 -119 -40 -119 -107z" />
    <glyph glyph-name="T" unicode="T" horiz-adv-x="479" 
d="M281 633v-633h-83v633h-180v79h443v-79h-180z" />
    <glyph glyph-name="U" unicode="U" horiz-adv-x="660" 
d="M580 252c0 -165 -118 -263 -250 -263c-133 0 -250 97 -250 263v460h82v-452c0 -126 78 -191 168 -191c88 0 168 65 168 191v452h82v-460z" />
    <glyph glyph-name="V" unicode="V" horiz-adv-x="663" 
d="M13 712h91l177 -444c19 -48 40 -112 47 -135h6c7 22 26 82 47 134l177 445h91l-290 -712h-55z" />
    <glyph glyph-name="W" unicode="W" horiz-adv-x="906" 
d="M39 712h84l75 -435c9 -50 17 -117 20 -145h6c8 27 28 91 49 143l161 401h39l159 -400c20 -50 42 -116 51 -144h5c3 28 11 92 20 144l75 436h84l-125 -712h-84l-162 396c-17 42 -33 91 -40 111h-6c-5 -20 -23 -68 -40 -111l-161 -396h-86z" />
    <glyph glyph-name="X" unicode="X" horiz-adv-x="602" 
d="M34 712h101l123 -194c18 -29 34 -61 40 -74h6c6 12 22 45 39 72l124 196h102l-219 -340l238 -372h-99l-144 227c-19 29 -35 61 -41 73h-6c-6 -13 -23 -46 -41 -74l-145 -226h-99l239 371z" />
    <glyph glyph-name="Y" unicode="Y" horiz-adv-x="585" 
d="M13 712h93l142 -245c17 -30 35 -66 42 -83h6c6 16 23 51 41 82l142 246h94l-240 -417v-295h-82v295z" />
    <glyph glyph-name="Z" unicode="Z" horiz-adv-x="568" 
d="M54 712h490v-53l-359 -513c-18 -25 -40 -52 -50 -64v-7c14 1 53 3 87 3h324v-78h-524v53l361 514c18 25 40 52 51 64v7c-15 -1 -55 -4 -96 -4h-284v78z" />
    <glyph glyph-name="bracketleft" unicode="[" horiz-adv-x="296" 
d="M269 677h-106v-787h106v-76h-187v940h187v-77z" />
    <glyph glyph-name="backslash" unicode="\" horiz-adv-x="430" 
d="M89 736l322 -885l-72 -27l-322 886z" />
    <glyph glyph-name="bracketright" unicode="]" horiz-adv-x="297" 
d="M134 677h-107v77h188v-940h-188v76h107v787z" />
    <glyph glyph-name="asciicircum" unicode="^" horiz-adv-x="557" 
d="M320 724l199 -419h-83l-158 335l-157 -335h-84l200 419h83z" />
    <glyph glyph-name="underscore" unicode="_" horiz-adv-x="489" 
d="M482 -100v-59h-475v59h475z" />
    <glyph glyph-name="grave" unicode="`" horiz-adv-x="390" 
d="M303 594l-31 -45l-194 124l40 58z" />
    <glyph glyph-name="a" unicode="a" horiz-adv-x="465" 
d="M323 173v17c-14 4 -55 17 -108 17c-67 0 -100 -26 -100 -75c0 -47 25 -71 87 -71c71 0 121 51 121 112zM211 452c108 0 193 -60 193 -159v-293h-70l-7 58c-33 -48 -85 -69 -137 -69c-114 0 -156 56 -156 141c0 77 65 139 180 139c54 0 102 -16 109 -18v38
c0 59 -61 91 -114 91c-52 0 -90 -14 -121 -31v76c40 17 80 27 123 27z" />
    <glyph glyph-name="b" unicode="b" horiz-adv-x="544" 
d="M508 220c0 -120 -77 -231 -212 -231c-82 0 -132 49 -156 80l-5 -69h-74v764h81v-387c49 64 108 75 154 75c137 0 212 -112 212 -232zM425 220c0 91 -53 158 -138 158c-89 0 -145 -76 -145 -162v-63c6 -9 60 -90 145 -90s138 65 138 157z" />
    <glyph glyph-name="c" unicode="c" horiz-adv-x="407" 
d="M258 63c36 0 78 16 114 50v-93c-34 -20 -73 -31 -114 -31c-130 0 -222 105 -222 230c0 136 99 233 222 233c41 0 80 -10 113 -32v-94c-37 36 -75 52 -113 52c-77 0 -139 -64 -139 -159c0 -82 57 -156 139 -156z" />
    <glyph glyph-name="d" unicode="d" horiz-adv-x="544" 
d="M402 764h81v-764h-73l-7 73c-47 -73 -108 -84 -155 -84c-136 0 -212 113 -212 233c0 119 78 230 214 230c70 0 121 -37 152 -71v383zM402 226v65c-29 38 -72 87 -144 87c-87 0 -139 -65 -139 -156c0 -92 52 -159 139 -159c88 0 144 78 144 163z" />
    <glyph glyph-name="e" unicode="e" horiz-adv-x="471" 
d="M243 380c-64 0 -108 -46 -121 -110h235c-5 76 -54 110 -114 110zM258 61c50 0 100 14 141 38v-82c-43 -17 -94 -28 -142 -28c-126 0 -221 99 -221 238c0 122 81 225 207 225c103 0 192 -76 192 -218c0 -7 -1 -16 -1 -28h-315c4 -79 59 -145 139 -145z" />
    <glyph glyph-name="f" unicode="f" horiz-adv-x="322" 
d="M13 441h74v161c0 95 78 173 175 173c18 0 36 -2 55 -6v-76c-18 5 -37 8 -55 8c-52 0 -94 -45 -94 -99v-161h141v-66h-141v-375h-81v375h-74v66z" />
    <glyph glyph-name="g" unicode="g" horiz-adv-x="530" 
d="M247 378c-81 0 -128 -61 -128 -147c0 -88 46 -149 130 -149c86 0 139 73 139 155v56c-29 39 -72 85 -141 85zM469 441v-451c0 -120 -94 -215 -216 -215c-64 0 -124 15 -171 38v80c46 -23 103 -43 172 -43c62 0 134 48 134 130v103c-45 -63 -105 -76 -148 -76
c-132 0 -204 109 -204 224c0 114 71 221 204 221c71 0 120 -37 150 -77l5 66h74z" />
    <glyph glyph-name="h" unicode="h" horiz-adv-x="503" 
d="M61 764h81v-381c21 29 66 69 128 69c118 0 172 -77 172 -197v-255h-81v248c0 99 -46 130 -105 130c-67 0 -114 -74 -114 -74v-304h-81v764z" />
    <glyph glyph-name="i" unicode="i" horiz-adv-x="203" 
d="M142 0h-81v441h81v-441zM157 584c0 -32 -25 -56 -55 -56s-56 24 -56 56c0 30 26 54 56 54s55 -24 55 -54z" />
    <glyph glyph-name="j" unicode="j" horiz-adv-x="202" 
d="M-55 -219v76c21 -7 30 -8 43 -8c47 0 73 41 73 83v509h81v-503c0 -87 -51 -163 -153 -163c-14 0 -27 2 -44 6zM157 584c0 -32 -25 -56 -55 -56c-31 0 -56 24 -56 56c0 30 25 54 56 54c30 0 55 -24 55 -54z" />
    <glyph glyph-name="k" unicode="k" horiz-adv-x="437" 
d="M61 764h81v-454c0 -19 -1 -53 -4 -72h5c8 11 20 32 37 50l140 153h99c-61 -70 -124 -139 -185 -209l192 -232h-101l-144 179l-39 -43v-136h-81v764z" />
    <glyph glyph-name="l" unicode="l" horiz-adv-x="203" 
d="M61 0v764h81v-764h-81z" />
    <glyph glyph-name="m" unicode="m" horiz-adv-x="745" 
d="M522 452c97 0 163 -63 163 -191v-261h-81v251c0 71 -22 126 -91 126c-64 0 -100 -64 -100 -102v-275h-81v249c0 71 -19 129 -89 129c-64 0 -100 -72 -101 -79v-299h-81v441h73l5 -61c22 32 59 72 120 72c50 0 93 -19 125 -79c30 48 79 79 138 79z" />
    <glyph glyph-name="n" unicode="n" horiz-adv-x="503" 
d="M61 441h73l6 -59c22 29 69 70 129 70c119 0 173 -77 173 -197v-255h-81v248c0 99 -47 130 -105 130c-68 0 -114 -74 -114 -74v-304h-81v441z" />
    <glyph glyph-name="o" unicode="o" horiz-adv-x="518" 
d="M36 218c0 137 99 234 223 234c130 0 223 -104 223 -232c0 -126 -93 -231 -223 -231s-223 105 -223 229zM119 219c0 -86 60 -156 140 -156c78 0 140 65 140 158c0 94 -68 157 -140 157c-75 0 -140 -64 -140 -159z" />
    <glyph glyph-name="p" unicode="p" horiz-adv-x="544" 
d="M508 220c0 -120 -78 -231 -213 -231c-80 0 -129 45 -153 69v-274h-81v657h73l6 -72c49 72 109 83 155 83c137 0 213 -112 213 -232zM425 220c0 91 -53 158 -139 158c-89 0 -144 -77 -144 -162v-62c7 -12 60 -91 144 -91c86 0 139 65 139 157z" />
    <glyph glyph-name="q" unicode="q" horiz-adv-x="544" 
d="M36 222c0 119 76 230 212 230c80 0 132 -48 156 -78l6 67h73v-657h-81v281c-48 -62 -109 -76 -154 -76c-137 0 -212 113 -212 233zM119 222c0 -92 52 -159 138 -159c89 0 145 78 145 164v61c-6 9 -59 90 -145 90s-138 -65 -138 -156z" />
    <glyph glyph-name="r" unicode="r" horiz-adv-x="305" 
d="M138 383c23 41 85 64 130 64c8 0 16 0 22 -1v-80c-8 1 -16 2 -22 2c-105 0 -126 -76 -126 -155v-213h-81v441h72z" />
    <glyph glyph-name="s" unicode="s" horiz-adv-x="363" 
d="M320 121c0 -78 -63 -132 -146 -132c-50 0 -92 12 -125 27v80c37 -21 72 -35 120 -35c37 0 68 17 68 53c0 72 -193 95 -193 211c0 73 61 127 143 127c47 0 86 -12 117 -27v-84c-29 19 -65 39 -114 39c-27 0 -63 -16 -63 -48c0 -69 193 -94 193 -211z" />
    <glyph glyph-name="t" unicode="t" horiz-adv-x="288" 
d="M267 75v-75c-15 -5 -28 -6 -42 -6c-103 0 -153 71 -153 158v222h-59v67h59v91l81 32v-123h114v-67h-114v-223c0 -41 24 -83 73 -83c14 0 22 0 41 7z" />
    <glyph glyph-name="u" unicode="u" horiz-adv-x="497" 
d="M358 195v246h81v-254c0 -121 -72 -198 -190 -198s-191 77 -191 198v254h81v-246c0 -99 51 -132 110 -132c58 0 109 33 109 132z" />
    <glyph glyph-name="v" unicode="v" horiz-adv-x="466" 
d="M12 441h87l101 -235c12 -29 24 -68 30 -85h5c5 16 18 53 31 84l102 236h86l-198 -441h-47z" />
    <glyph glyph-name="w" unicode="w" horiz-adv-x="664" 
d="M471 0l-110 224c-10 21 -23 51 -27 63h-4c-4 -12 -17 -42 -27 -63l-111 -224h-55l-119 441h82l62 -235c6 -24 14 -66 17 -85h4c4 18 20 59 33 85l100 212h32l101 -211c12 -25 27 -67 34 -86h4c2 18 9 59 16 85l61 235h82l-119 -441h-56z" />
    <glyph glyph-name="x" unicode="x" horiz-adv-x="455" 
d="M349 0l-92 128c-11 16 -21 34 -26 44h-5c-5 -10 -16 -28 -27 -44l-92 -128h-97l172 231c-17 22 -138 188 -155 210h96l76 -107c11 -16 21 -35 26 -45h6c4 10 16 28 27 44l75 108h96l-154 -210l170 -231h-96z" />
    <glyph glyph-name="y" unicode="y" horiz-adv-x="471" 
d="M268 210l104 231h87l-308 -657h-85l129 265l-183 392h87l106 -231c12 -26 23 -60 28 -76h5c5 17 18 49 30 76z" />
    <glyph glyph-name="z" unicode="z" horiz-adv-x="420" 
d="M43 441h354v-33l-216 -296c-13 -17 -29 -34 -37 -42v-5c11 1 39 3 60 3h193v-68h-374v30l222 303c11 15 25 31 33 38v5c-11 -1 -38 -2 -63 -2h-172v67z" />
    <glyph glyph-name="braceleft" unicode="{" horiz-adv-x="309" 
d="M215 754h62v-73h-61c-33 0 -58 -28 -58 -71c0 -58 52 -148 52 -200c0 -62 -28 -100 -61 -125c33 -25 61 -65 61 -125c0 -53 -52 -143 -52 -201c0 -44 26 -70 58 -70h61v-73h-62c-78 0 -139 61 -139 143c0 61 53 147 53 201c0 56 -40 88 -97 88v73c57 0 97 33 97 88
c0 54 -53 139 -53 201c0 81 60 144 139 144z" />
    <glyph glyph-name="bar" unicode="|" horiz-adv-x="248" 
d="M161 764v-980h-75v980h75z" />
    <glyph glyph-name="braceright" unicode="}" horiz-adv-x="309" 
d="M32 754h62c79 0 139 -63 139 -144c0 -62 -53 -147 -53 -201c0 -55 40 -88 97 -88v-73c-57 0 -97 -32 -97 -88c0 -54 53 -140 53 -201c0 -82 -61 -143 -139 -143h-62v73h61c32 0 58 26 58 70c0 58 -52 148 -52 201c0 60 28 100 61 125c-33 25 -61 63 -61 125
c0 52 52 142 52 200c0 43 -25 71 -58 71h-61v73z" />
    <glyph glyph-name="asciitilde" unicode="~" horiz-adv-x="578" 
d="M109 173h-73c0 106 50 162 124 162c51 0 106 -28 154 -52c39 -20 74 -37 101 -37c33 0 54 26 54 85h73c0 -106 -50 -162 -124 -162c-51 0 -106 28 -154 52c-39 20 -74 37 -101 37c-33 0 -54 -25 -54 -85z" />
    <glyph glyph-name="quotesinglbase" unicode="&#x201a;" horiz-adv-x="237" 
d="M35 -190c29 83 55 185 69 274l98 12c-31 -109 -73 -218 -116 -295z" />
    <glyph glyph-name="florin" unicode="&#x192;" horiz-adv-x="518" 
d="M349 506h113c-1 -11 -9 -58 -11 -68h-114c-13 -74 -46 -246 -60 -321c-25 -138 -53 -270 -230 -270c-13 0 -32 1 -41 3l14 76c10 -1 26 -2 34 -2c106 0 120 76 138 172l63 342h-85c3 19 9 53 12 68h85l12 71c30 179 123 197 186 198c16 0 26 -1 44 -4l-15 -77
c-9 4 -20 5 -28 5c-80 0 -96 -78 -105 -128z" />
    <glyph glyph-name="quotedblbase" unicode="&#x201e;" horiz-adv-x="417" 
d="M35 -190c29 83 55 185 69 274l98 12c-31 -109 -73 -218 -116 -295zM215 -190c29 83 55 185 69 274l98 12c-31 -109 -73 -218 -116 -295z" />
    <glyph glyph-name="ellipsis" unicode="&#x2026;" horiz-adv-x="878" 
d="M128 105c31 0 56 -25 56 -56s-25 -55 -56 -55c-30 0 -55 24 -55 55s25 56 55 56zM435 105c31 0 56 -25 56 -56s-25 -55 -56 -55c-30 0 -55 24 -55 55s25 56 55 56zM741 105c31 0 56 -25 56 -56s-25 -55 -56 -55c-30 0 -55 24 -55 55s25 56 55 56z" />
    <glyph glyph-name="dagger" unicode="&#x2020;" horiz-adv-x="534" 
d="M226 764h81v-219h170v-78h-170v-572h-81v572h-169v78h169v219z" />
    <glyph glyph-name="daggerdbl" unicode="&#x2021;" horiz-adv-x="534" 
d="M226 764h81v-219h170v-77h-170v-205h170v-78h-170v-290h-81v290h-169v78h169v205h-169v77h169v219z" />
    <glyph glyph-name="circumflex" unicode="&#x2c6;" horiz-adv-x="385" 
d="M354 600l-32 -42l-132 84l-132 -84l-32 43l164 125z" />
    <glyph glyph-name="perthousand" unicode="&#x2030;" horiz-adv-x="1142" 
d="M178 724c89 0 151 -49 151 -186c0 -138 -62 -186 -151 -186c-88 0 -151 48 -151 186c0 137 63 186 151 186zM178 410c52 0 88 32 88 128c0 95 -36 127 -88 127c-51 0 -88 -32 -88 -127c0 -96 37 -128 88 -128zM606 363c90 0 152 -46 152 -185c0 -138 -62 -184 -152 -184
c-88 0 -152 46 -152 184c0 139 64 185 152 185zM606 50c52 0 89 32 89 128c0 95 -37 127 -89 127c-50 0 -87 -32 -87 -127c0 -96 37 -128 87 -128zM961 363c89 0 152 -46 152 -185c0 -138 -63 -184 -152 -184s-151 46 -151 184c0 139 62 185 151 185zM961 50
c52 0 89 32 89 128c0 95 -37 127 -89 127c-51 0 -87 -32 -87 -127c0 -96 36 -128 87 -128zM177 12l364 714l56 -28l-367 -713z" />
    <glyph glyph-name="Scaron" unicode="&#x160;" horiz-adv-x="517" 
d="M141 539c0 -130 318 -124 318 -334c0 -124 -94 -216 -222 -216c-79 0 -137 29 -177 63v100c32 -38 98 -85 177 -85c74 0 137 54 137 130c0 150 -317 138 -317 337c0 118 92 190 204 190c73 0 129 -25 169 -56v-97c-44 45 -107 75 -170 75c-57 0 -119 -40 -119 -107z
M400 945l32 -44l-164 -124l-164 124l32 44l132 -84z" />
    <glyph glyph-name="guilsinglleft" unicode="&#x2039;" horiz-adv-x="290" 
d="M255 413l-131 -193l131 -192h-90l-130 192l130 193h90z" />
    <glyph glyph-name="OE" unicode="&#x152;" horiz-adv-x="950" 
d="M883 633h-312v-218h303v-79h-303v-258h312v-78h-389c-28 -7 -58 -11 -89 -11c-200 0 -361 161 -361 367s161 368 361 368c32 0 63 -4 93 -12h385v-79zM127 356c0 -158 113 -288 278 -288c30 0 58 4 84 12v552c-26 9 -54 13 -84 13c-165 0 -278 -131 -278 -289z" />
    <glyph glyph-name="quoteleft" unicode="&#x2018;" horiz-adv-x="237" 
d="M151 776l51 -9c-29 -83 -55 -185 -69 -274l-98 -12c31 109 73 218 116 295z" />
    <glyph glyph-name="quoteright" unicode="&#x2019;" horiz-adv-x="237" 
d="M35 490c29 83 55 185 69 274l98 12c-31 -109 -73 -218 -116 -295z" />
    <glyph glyph-name="quotedblleft" unicode="&#x201c;" horiz-adv-x="417" 
d="M151 776l51 -9c-29 -83 -55 -185 -69 -274l-98 -12c31 109 73 218 116 295zM331 776l51 -9c-29 -83 -55 -185 -69 -274l-98 -12c31 109 73 218 116 295z" />
    <glyph glyph-name="quotedblright" unicode="&#x201d;" horiz-adv-x="417" 
d="M35 490c29 83 55 185 69 274l98 12c-31 -109 -73 -218 -116 -295zM215 490c29 83 55 185 69 274l98 12c-31 -109 -73 -218 -116 -295z" />
    <glyph glyph-name="bullet" unicode="&#x2022;" horiz-adv-x="479" 
d="M240 521c90 0 163 -74 163 -164c0 -92 -73 -165 -163 -165c-89 0 -163 74 -163 165c0 89 71 164 163 164z" />
    <glyph glyph-name="endash" unicode="&#x2013;" horiz-adv-x="518" 
d="M37 298h443v-73h-443v73z" />
    <glyph glyph-name="emdash" unicode="&#x2014;" horiz-adv-x="987" 
d="M37 298h912v-73h-912v73z" />
    <glyph glyph-name="tilde" unicode="&#x2dc;" horiz-adv-x="388" 
d="M246 592c-45 0 -81 37 -121 37c-23 0 -38 -12 -52 -33l-43 31c25 41 62 62 103 62s91 -38 122 -38c18 0 37 13 52 35l44 -32c-28 -40 -61 -62 -105 -62z" />
    <glyph glyph-name="trademark" unicode="&#x2122;" horiz-adv-x="875" 
d="M834 712v-412h-63v324l-139 -324h-45l-137 325v-325h-62v412h90l132 -306l134 306h90zM325 712v-59h-114v-353h-62v353h-114v59h290z" />
    <glyph glyph-name="scaron" unicode="&#x161;" horiz-adv-x="363" 
d="M320 121c0 -78 -63 -132 -146 -132c-50 0 -92 12 -125 27v80c37 -21 72 -35 120 -35c37 0 68 17 68 53c0 72 -193 95 -193 211c0 73 61 127 143 127c47 0 86 -12 117 -27v-84c-29 19 -65 39 -114 39c-27 0 -63 -16 -63 -48c0 -69 193 -94 193 -211zM321 689l32 -44
l-164 -124l-164 124l32 44l132 -84z" />
    <glyph glyph-name="guilsinglright" unicode="&#x203a;" horiz-adv-x="289" 
d="M166 220l-131 193h89l130 -193l-130 -192h-89z" />
    <glyph glyph-name="oe" unicode="&#x153;" horiz-adv-x="828" 
d="M792 235c0 -8 -1 -16 -1 -28h-315c6 -82 59 -146 139 -146c50 0 100 14 141 38v-82c-43 -17 -94 -28 -142 -28c-80 0 -145 41 -180 106c-33 -63 -96 -106 -178 -106c-130 0 -222 105 -222 229c0 137 99 234 222 234c80 0 142 -41 175 -103c33 60 92 103 169 103
c104 0 192 -75 192 -217zM257 63c78 0 140 65 140 158c0 94 -68 157 -140 157c-76 0 -141 -64 -141 -159c0 -86 61 -156 141 -156zM478 270h235c-5 75 -55 113 -113 113c-65 0 -108 -48 -122 -113z" />
    <glyph glyph-name="exclamdown" unicode="&#xa1;" horiz-adv-x="254" 
d="M166 295v-511h-81v511h81zM126 384c-30 0 -55 25 -55 55c0 32 25 56 55 56s55 -24 55 -56c0 -30 -25 -55 -55 -55z" />
    <glyph glyph-name="sterling" unicode="&#xa3;" horiz-adv-x="562" 
d="M192 254v-176h334v-78h-492v78h77v176h-77v59h77v180c0 119 92 231 220 231c42 0 83 -12 118 -34v-96c-31 34 -74 51 -118 51c-78 0 -139 -67 -139 -149v-183h257v-59h-257z" />
    <glyph glyph-name="currency" unicode="&#xa4;" 
d="M507 290c0 -48 -15 -90 -40 -126l66 -69l-52 -51l-69 66c-35 -24 -78 -42 -129 -42c-50 0 -94 18 -129 42c-14 -14 -53 -52 -68 -66l-53 51l67 69c-26 36 -40 77 -40 126c0 47 16 90 41 125l-67 67c8 7 48 47 53 54c4 -5 60 -61 67 -68c36 26 80 42 129 42
c51 0 96 -17 129 -42c22 21 49 49 69 68l52 -53l-66 -68c25 -35 40 -79 40 -125zM283 138c85 0 153 71 153 152c0 83 -66 149 -153 149c-85 0 -151 -65 -151 -149c0 -81 66 -152 151 -152z" />
    <glyph glyph-name="yen" unicode="&#xa5;" horiz-adv-x="591" 
d="M400 409l-54 -95h199v-60h-209v-254h-82v254h-206v60h197l-55 95h-142v60h108l-143 243h93l190 -318l188 318h93l-143 -243h111v-60h-145z" />
    <glyph glyph-name="brokenbar" unicode="&#xa6;" horiz-adv-x="248" 
d="M161 775v-336h-75v336h75zM161 270v-335h-75v335h75z" />
    <glyph glyph-name="section" unicode="&#xa7;" horiz-adv-x="510" 
d="M123 334c0 -51 76 -86 163 -124c44 25 91 61 91 114c0 52 -76 86 -163 125c-44 -26 -91 -61 -91 -115zM420 735v-90c-31 23 -89 51 -158 51c-59 0 -112 -33 -112 -75c0 -113 310 -118 310 -288c0 -79 -54 -126 -107 -162c48 -34 80 -69 80 -126c0 -87 -80 -160 -202 -160
c-59 0 -113 19 -151 40v87c32 -22 89 -49 158 -49c59 0 112 32 112 74c0 113 -310 118 -310 287c0 80 55 126 107 163c-48 35 -80 70 -80 126c0 88 80 162 202 162c59 0 113 -20 151 -40z" />
    <glyph glyph-name="dieresis" unicode="&#xa8;" horiz-adv-x="393" 
d="M162 641c0 -28 -23 -51 -51 -51c-29 0 -52 23 -52 51c0 29 23 52 52 52c28 0 51 -23 51 -52zM282 693c28 0 51 -23 51 -52c0 -28 -23 -51 -51 -51c-29 0 -52 23 -52 51c0 29 23 52 52 52z" />
    <glyph glyph-name="copyright" unicode="&#xa9;" horiz-adv-x="830" 
d="M215 356c0 121 96 217 213 217c34 0 68 -9 98 -25v-76c-30 23 -63 35 -98 35c-87 0 -146 -68 -146 -151c0 -82 59 -151 146 -151c35 0 68 12 98 35v-75c-31 -16 -64 -26 -98 -26c-117 0 -213 96 -213 217zM415 724c203 0 367 -164 367 -368c0 -203 -164 -367 -367 -367
c-204 0 -368 164 -368 367c0 204 164 368 368 368zM415 50c168 0 306 137 306 306s-138 306 -306 306c-170 0 -306 -137 -306 -306s136 -306 306 -306z" />
    <glyph glyph-name="ordfeminine" unicode="&#xaa;" horiz-adv-x="367" 
d="M317 608v-209h-56l-6 40c-23 -30 -59 -46 -95 -46c-80 0 -110 38 -110 100c0 57 46 102 129 102c31 0 62 -9 74 -12v26c0 34 -39 58 -75 58c-40 0 -67 -10 -90 -22v61c30 12 60 18 90 18c78 0 139 -43 139 -116zM253 522v15c-13 2 -40 9 -73 9c-45 0 -66 -19 -66 -51
c0 -31 16 -47 58 -47c48 0 81 33 81 74zM62 329h255v-59h-255v59z" />
    <glyph glyph-name="guillemotleft" unicode="&#xab;" horiz-adv-x="484" 
d="M255 413l-130 -193l130 -192h-89l-130 192l130 193h89zM448 413l-130 -193l130 -192h-89l-131 192l131 193h89z" />
    <glyph glyph-name="logicalnot" unicode="&#xac;" 
d="M447 105v185h-405v78h483v-263h-78z" />
    <glyph glyph-name="minus" unicode="&#x2212;" 
d="M42 203v78h483v-78h-483z" />
    <glyph glyph-name="registered" unicode="&#xae;" horiz-adv-x="441" 
d="M221 700c102 0 184 -83 184 -186c0 -102 -82 -185 -184 -185c-103 0 -186 83 -186 185c0 103 83 186 186 186zM221 367c81 0 148 65 148 147c0 83 -67 148 -148 148c-83 0 -149 -65 -149 -148c0 -82 66 -147 149 -147zM309 408h-50l-54 81h-11v-81h-39v214h62
c50 0 74 -30 74 -65c0 -30 -17 -54 -44 -64zM194 584v-56h23c21 0 34 11 34 29c0 17 -13 27 -34 27h-23z" />
    <glyph glyph-name="macron" unicode="&#xaf;" horiz-adv-x="393" 
d="M64 672h257v-60h-257v60z" />
    <glyph glyph-name="degree" unicode="&#xb0;" horiz-adv-x="385" 
d="M38 569c0 84 69 155 155 155c85 0 155 -71 155 -155c0 -85 -70 -155 -155 -155s-155 70 -155 155zM99 569c0 -49 38 -94 94 -94c55 0 93 45 93 94s-38 92 -94 92c-55 0 -93 -43 -93 -92z" />
    <glyph glyph-name="plusminus" unicode="&#xb1;" 
d="M42 -11v78h483v-78h-483zM244 530h78v-165h203v-78h-203v-163h-78v163h-202v78h202v165z" />
    <glyph glyph-name="twosuperior" unicode="&#xb2;" horiz-adv-x="307" 
d="M122 583h147v-52h-231v41l145 160c14 17 29 40 29 55c0 36 -30 66 -65 66c-34 0 -69 -24 -97 -65v80c26 24 60 39 96 39c66 0 122 -53 122 -119c0 -30 -13 -59 -44 -92z" />
    <glyph glyph-name="threesuperior" unicode="&#xb3;" horiz-adv-x="285" 
d="M81 703v49h36c41 0 64 23 64 49c0 31 -25 54 -56 54c-29 0 -58 -9 -86 -28v60c26 13 55 20 86 20c65 0 113 -46 113 -107c0 -28 -11 -53 -35 -71c31 -19 47 -51 47 -85c0 -67 -55 -119 -126 -119c-31 0 -61 6 -89 18v58c30 -17 60 -24 89 -24c38 0 69 28 69 66
c0 33 -32 60 -79 60h-33z" />
    <glyph glyph-name="acute" unicode="&#xb4;" horiz-adv-x="390" 
d="M110 549l-32 45l185 137l40 -58z" />
    <glyph glyph-name="mu" unicode="&#xb5;" horiz-adv-x="493" 
d="M56 -216v657h80v-250c0 -97 51 -128 110 -128c66 0 112 75 112 75v303h80v-441h-73l-5 56c-22 -26 -67 -67 -130 -67c-37 0 -69 12 -94 36v-241h-80z" />
    <glyph glyph-name="paragraph" unicode="&#xb6;" horiz-adv-x="571" 
d="M541 712v-72h-59v-764h-71v764h-83v-764h-71v426c-106 0 -203 72 -203 201c0 119 82 209 217 209h270z" />
    <glyph glyph-name="periodcentered" unicode="&#xb7;" horiz-adv-x="394" 
d="M191 298c30 0 55 -26 55 -57c0 -30 -25 -54 -55 -54c-31 0 -57 24 -57 54c0 31 26 57 57 57z" />
    <glyph glyph-name="cedilla" unicode="&#xb8;" horiz-adv-x="400" 
d="M175 -90h-21l20 90h33v-52c43 -1 77 -38 77 -80c0 -49 -35 -89 -99 -89c-22 0 -43 7 -59 17v49c18 -10 36 -15 48 -15c25 0 52 9 52 40c0 24 -18 40 -51 40z" />
    <glyph glyph-name="onesuperior" unicode="&#xb9;" horiz-adv-x="234" 
d="M125 901h44v-370h-55v290c-22 -19 -78 -66 -99 -83v70z" />
    <glyph glyph-name="guillemotright" unicode="&#xbb;" horiz-adv-x="483" 
d="M358 219l-130 193h88l131 -193l-131 -192h-88zM165 219l-131 193h90l130 -193l-130 -192h-90z" />
    <glyph glyph-name="onequarter" unicode="&#xbc;" horiz-adv-x="733" 
d="M200 -15l-52 27l365 714l53 -27zM166 719h51v-439h-61v351c-26 -22 -94 -79 -119 -100v79zM646 147h49v-59h-49v-88h-61v88h-209v53l220 298h50v-292zM586 145v85l4 103h-8c-10 -18 -29 -47 -47 -71l-87 -117h138z" />
    <glyph glyph-name="onehalf" unicode="&#xbd;" horiz-adv-x="798" 
d="M200 -15l-52 27l365 714l53 -27zM166 719h51v-439h-61v351c-26 -22 -94 -79 -119 -100v79zM571 59h180v-59h-271v46l174 193c18 20 34 47 34 67c0 45 -36 81 -80 81c-41 0 -84 -28 -113 -76v90c30 28 69 45 112 45c77 0 144 -62 144 -139c0 -33 -16 -66 -50 -106z" />
    <glyph glyph-name="threequarters" unicode="&#xbe;" horiz-adv-x="791" 
d="M250 -15l-52 27l365 714l53 -27zM697 147h49v-59h-49v-88h-61v88h-209v53l220 298h50v-292zM637 145v85l4 103h-8c-10 -18 -29 -47 -47 -71l-87 -117h138zM95 486v55h38c53 0 85 26 85 60c0 39 -31 66 -70 66c-37 0 -71 -10 -102 -33v69c31 15 65 23 102 23
c75 0 133 -54 133 -126c0 -34 -15 -65 -44 -85c38 -22 58 -60 58 -101c0 -79 -65 -141 -148 -141c-38 0 -72 8 -105 22v65c35 -21 70 -28 105 -28c47 0 85 34 85 80c0 41 -40 74 -97 74h-40z" />
    <glyph glyph-name="questiondown" unicode="&#xbf;" horiz-adv-x="480" 
d="M263 384c-30 0 -55 25 -55 56s25 55 55 55c31 0 56 -24 56 -55s-25 -56 -56 -56zM228 -225c-110 0 -193 75 -193 189c0 151 189 199 189 285v62h81v-69c0 -126 -188 -168 -188 -280c0 -66 50 -110 114 -110c44 0 84 19 111 46v-94c-31 -17 -74 -29 -114 -29z" />
    <glyph glyph-name="multiply" unicode="&#xd7;" 
d="M51 417l55 56c30 -29 61 -61 177 -176l177 176l55 -56l-177 -175l178 -177l-55 -55l-178 177c-40 -40 -137 -137 -178 -177l-55 55l178 177z" />
    <glyph glyph-name="Oslash" unicode="&#xd8;" horiz-adv-x="818" 
d="M752 725l-89 -106c66 -67 107 -159 107 -263c0 -206 -161 -367 -361 -367c-81 0 -155 26 -215 71l-88 -106l-40 34l89 106c-66 66 -107 158 -107 262c0 206 161 368 361 368c80 0 155 -26 215 -71l88 106zM132 356c0 -77 27 -149 74 -201l367 437c-45 34 -101 53 -164 53
c-165 0 -277 -131 -277 -289zM685 356c0 77 -26 148 -73 201l-368 -437c45 -33 101 -53 165 -53c164 0 276 132 276 289z" />
    <glyph glyph-name="Thorn" unicode="&#xde;" 
d="M83 712h83v-122h112c166 0 256 -102 256 -225c0 -159 -121 -229 -266 -229h-102v-136h-83v712zM166 512v-297h111c104 0 173 60 173 150c0 89 -71 147 -174 147h-110z" />
    <glyph glyph-name="eth" unicode="&#xf0;" horiz-adv-x="517" 
d="M409 693l-106 -89c110 -106 177 -225 177 -345c0 -158 -99 -270 -229 -270c-117 0 -214 92 -214 212c0 118 93 213 214 213c44 0 85 -16 118 -40c-26 68 -70 129 -123 182l-106 -89l-33 40l101 85c-42 36 -87 68 -133 96v87c70 -42 134 -87 190 -135l111 93zM251 63
c80 0 144 74 146 188c-35 47 -83 88 -146 88c-72 0 -131 -60 -131 -138c0 -73 54 -138 131 -138z" />
    <glyph glyph-name="divide" unicode="&#xf7;" 
d="M42 206v78h483v-78h-483zM282 105c31 0 56 -25 56 -56s-25 -55 -56 -55c-30 0 -55 24 -55 55s25 56 55 56zM282 491c31 0 56 -25 56 -56c0 -30 -25 -54 -56 -54c-30 0 -55 24 -55 54c0 31 25 56 55 56z" />
    <glyph glyph-name="oslash" unicode="&#xf8;" horiz-adv-x="518" 
d="M36 218c0 137 99 234 223 234c48 0 91 -15 127 -40l56 67l39 -33l-57 -68c36 -41 58 -97 58 -158c0 -126 -93 -231 -223 -231c-50 0 -93 15 -129 41l-55 -66l-40 32l57 68c-35 41 -56 95 -56 154zM399 221c0 37 -11 69 -28 95l-191 -227c22 -17 49 -26 79 -26
c78 0 140 65 140 158zM118 219c0 -35 10 -67 27 -93l190 226c-22 17 -49 26 -76 26c-75 0 -141 -64 -141 -159z" />
    <glyph glyph-name="thorn" unicode="&#xfe;" horiz-adv-x="543" 
d="M507 220c0 -120 -79 -231 -214 -231c-80 0 -128 45 -152 69v-274h-80v980h80v-389c47 66 105 77 152 77c137 0 214 -112 214 -232zM425 220c0 91 -53 158 -140 158c-88 0 -144 -76 -144 -162v-63c5 -9 60 -89 144 -89c87 0 140 64 140 156z" />
    <glyph glyph-name="Q" unicode="Q" horiz-adv-x="816" 
d="M709 77h92v-77h-393c-200 0 -361 159 -361 362s161 362 361 362s361 -159 361 -362c0 -115 -60 -225 -157 -284l1 -5c19 2 60 4 96 4zM408 77c164 0 276 130 276 285s-112 285 -276 285c-165 0 -277 -130 -277 -285s112 -285 277 -285z" />
    <glyph glyph-name="R" unicode="R" horiz-adv-x="580" 
d="M83 712h195c160 0 239 -95 239 -208c0 -101 -67 -184 -179 -206l217 -298h-98l-211 292h-81v-292h-82v712zM165 634v-264h112c94 0 157 53 157 134c0 80 -65 130 -158 130h-111z" />
    <glyph glyph-name="space" unicode=" " horiz-adv-x="245" 
 />
    <glyph glyph-name="breve" unicode="&#x2d8;" horiz-adv-x="388" 
d="M300 704l54 -19c-28 -85 -104 -113 -163 -113c-60 0 -136 28 -164 113l55 19c19 -65 71 -72 109 -72c39 0 88 7 109 72z" />
    <glyph glyph-name="Euro" unicode="&#x20ac;" horiz-adv-x="659" 
d="M458 645c-125 0 -219 -75 -256 -180h321v-60h-338c-2 -15 -3 -32 -3 -49c0 -15 0 -31 2 -46h339v-59h-323c37 -106 132 -184 258 -184c62 0 123 24 173 57v-89c-53 -27 -117 -46 -173 -46c-165 0 -302 109 -346 262h-87v59h75c-2 15 -3 31 -3 46c0 17 1 34 3 49h-75v60
h88c45 152 182 259 345 259c61 0 119 -16 173 -45v-93c-50 37 -110 59 -173 59z" />
    <glyph glyph-name="ae" unicode="&#xe6;" horiz-adv-x="760" 
d="M724 233c0 -7 -1 -15 -1 -26h-314c7 -83 59 -146 138 -146c50 0 100 14 141 38v-82c-43 -17 -94 -28 -142 -28c-73 0 -135 34 -173 89c-34 -51 -97 -89 -183 -89c-114 0 -156 57 -156 141c0 80 69 140 186 140h105v20c0 60 -63 92 -113 92c-56 0 -90 -13 -124 -31v74
c41 17 81 27 124 27c73 0 134 -28 164 -77c35 46 90 77 157 77c103 0 191 -76 191 -219zM325 173v34h-87c-50 0 -122 -4 -122 -76c0 -47 25 -72 87 -72c71 0 122 52 122 114zM412 270h233c-5 76 -53 113 -111 113c-65 0 -109 -49 -122 -113z" />
    <glyph glyph-name="AE" unicode="&#xc6;" horiz-adv-x="962" 
d="M895 634h-362l39 -218h313v-80h-299l46 -258h263v-78h-338l-29 166h-322l-96 -166h-97l426 712h456v-78zM253 244h261l-60 343h-7c-6 -12 -17 -36 -31 -61z" />
    <glyph glyph-name="dollar" unicode="$" horiz-adv-x="544" 
d="M283 417c96 -35 200 -79 200 -212c0 -112 -79 -203 -200 -214v-58h-52v58c-75 5 -133 33 -173 64v114c31 -38 95 -90 173 -99v274c-89 34 -184 73 -184 192c0 105 81 177 184 187v58h52v-58c58 -3 112 -23 149 -46v-102c-36 37 -95 64 -149 69v-227zM231 438v205
c-58 -9 -100 -53 -100 -106c0 -51 44 -77 100 -99zM283 70c67 11 116 64 116 133c0 66 -52 95 -116 121v-254z" />
    <glyph glyph-name="cent" unicode="&#xa2;" horiz-adv-x="401" 
d="M369 330c-32 22 -59 39 -88 44v-307c30 6 60 21 88 47v-93c-27 -15 -57 -25 -88 -28v-62h-51v62c-117 11 -197 110 -197 226c0 128 86 220 197 231v56h51v-56c32 -3 62 -14 88 -31v-89zM116 219c0 -74 47 -138 114 -152v307c-65 -12 -114 -71 -114 -155z" />
    <glyph glyph-name="germandbls" unicode="&#xdf;" horiz-adv-x="548" 
d="M375 420c86 -47 126 -116 126 -196c0 -161 -107 -235 -241 -235c-12 0 -28 2 -41 4v79c14 -5 31 -6 44 -6c88 0 153 49 153 158c0 104 -76 156 -174 156h-23v74h23c106 0 132 61 132 124c0 57 -36 120 -112 120c-58 0 -114 -53 -114 -126v-572h-81v573
c0 119 89 202 197 202c112 0 194 -86 194 -196c0 -69 -35 -124 -83 -159z" />
    <glyph glyph-name="zeroinferior" unicode="&#x2080;" horiz-adv-x="343" 
d="M168 182c76 0 131 -45 131 -174v-34c0 -130 -55 -174 -131 -174c-75 0 -130 44 -130 174v34c0 129 55 174 130 174zM168 -147c43 0 74 29 74 124v28c0 94 -31 124 -74 124s-74 -30 -74 -124v-28c0 -95 31 -124 74 -124z" />
    <glyph glyph-name="oneinferior" unicode="&#x2081;" horiz-adv-x="234" 
d="M125 176h44v-370h-55v290c-22 -19 -78 -66 -99 -83v70z" />
    <glyph glyph-name="twoinferior" unicode="&#x2082;" horiz-adv-x="307" 
d="M122 -142h147v-52h-231v41l145 160c14 17 29 40 29 55c0 36 -30 66 -65 66c-34 0 -69 -24 -97 -65v80c26 24 60 39 96 39c66 0 122 -53 122 -119c0 -30 -13 -59 -44 -92z" />
    <glyph glyph-name="threeinferior" unicode="&#x2083;" horiz-adv-x="285" 
d="M81 -22v49h36c41 0 64 23 64 49c0 31 -25 54 -56 54c-29 0 -58 -9 -86 -28v60c26 13 55 20 86 20c65 0 113 -46 113 -107c0 -28 -11 -53 -35 -71c31 -19 47 -51 47 -85c0 -67 -55 -119 -126 -119c-31 0 -61 6 -89 18v58c30 -17 60 -24 89 -24c38 0 69 28 69 66
c0 33 -32 60 -79 60h-33z" />
    <glyph glyph-name="fourinferior" unicode="&#x2084;" horiz-adv-x="332" 
d="M255 -68h41v-53h-41v-73h-56v73h-173v47l184 250h45v-244zM200 -69v146l-108 -146h108z" />
    <glyph glyph-name="fiveinferior" unicode="&#x2085;" horiz-adv-x="309" 
d="M268 -72c0 -69 -59 -128 -129 -128c-33 0 -62 8 -90 20v59c29 -19 61 -27 90 -27c41 0 73 32 73 75c0 42 -25 77 -68 77c-16 0 -43 -4 -71 -21l-26 13l25 180h181v-54h-135l-11 -77c12 3 26 6 38 6c71 0 123 -54 123 -123z" />
    <glyph glyph-name="sixinferior" unicode="&#x2086;" horiz-adv-x="319" 
d="M174 175h66l-91 -126c72 0 134 -45 134 -121c0 -68 -53 -128 -128 -128c-73 0 -129 57 -129 127c0 39 21 72 42 101zM155 -149c41 0 73 33 73 74c0 43 -33 75 -73 75c-38 0 -74 -31 -74 -74c0 -37 28 -75 74 -75z" />
    <glyph glyph-name="seveninferior" unicode="&#x2087;" horiz-adv-x="281" 
d="M190 122h-172v54h248v-28l-185 -342h-61z" />
    <glyph glyph-name="eightinferior" unicode="&#x2088;" horiz-adv-x="317" 
d="M35 -85c0 31 14 71 53 91c-29 19 -40 51 -40 72c0 61 49 104 108 104s107 -44 107 -104c0 -20 -11 -52 -39 -72c38 -20 53 -61 53 -91c0 -65 -53 -115 -121 -115s-121 50 -121 115zM90 -85c0 -36 32 -63 66 -63c32 0 66 25 66 63c0 40 -34 63 -67 63
c-32 0 -65 -24 -65 -63zM103 79c0 -25 25 -50 53 -50s52 25 52 50c0 27 -23 52 -52 52c-30 0 -53 -25 -53 -52z" />
    <glyph glyph-name="nineinferior" unicode="&#x2089;" horiz-adv-x="318" 
d="M138 -194h-66l90 127c-75 0 -132 47 -132 121c0 67 52 127 128 127c73 0 128 -58 128 -126c0 -41 -19 -71 -42 -102zM158 130c-41 0 -74 -33 -74 -74c0 -43 34 -75 74 -75c39 0 74 32 74 74c0 37 -29 75 -74 75z" />
    <glyph glyph-name="zerosuperior" unicode="&#x2070;" horiz-adv-x="343" 
d="M168 907c76 0 131 -45 131 -174v-34c0 -130 -55 -174 -131 -174c-75 0 -130 44 -130 174v34c0 129 55 174 130 174zM168 578c43 0 74 29 74 124v28c0 94 -31 124 -74 124s-74 -30 -74 -124v-28c0 -95 31 -124 74 -124z" />
    <glyph glyph-name="foursuperior" unicode="&#x2074;" horiz-adv-x="332" 
d="M255 657h41v-53h-41v-73h-56v73h-173v47l184 250h45v-244zM200 656v146l-108 -146h108z" />
    <glyph glyph-name="fivesuperior" unicode="&#x2075;" horiz-adv-x="309" 
d="M268 653c0 -69 -59 -128 -129 -128c-33 0 -62 8 -90 20v59c29 -19 61 -27 90 -27c41 0 73 32 73 75c0 42 -25 77 -68 77c-16 0 -43 -4 -71 -21l-26 13l25 180h181v-54h-135l-11 -77c12 3 26 6 38 6c71 0 123 -54 123 -123z" />
    <glyph glyph-name="sixsuperior" unicode="&#x2076;" horiz-adv-x="319" 
d="M174 900h66l-91 -126c72 0 134 -45 134 -121c0 -68 -53 -128 -128 -128c-73 0 -129 57 -129 127c0 39 21 72 42 101zM155 576c41 0 73 33 73 74c0 43 -33 75 -73 75c-38 0 -74 -31 -74 -74c0 -37 28 -75 74 -75z" />
    <glyph glyph-name="sevensuperior" unicode="&#x2077;" horiz-adv-x="281" 
d="M190 847h-172v54h248v-28l-185 -342h-61z" />
    <glyph glyph-name="eightsuperior" unicode="&#x2078;" horiz-adv-x="317" 
d="M35 640c0 31 14 71 53 91c-29 19 -40 51 -40 72c0 61 49 104 108 104s107 -44 107 -104c0 -20 -11 -52 -39 -72c38 -20 53 -61 53 -91c0 -65 -53 -115 -121 -115s-121 50 -121 115zM90 640c0 -36 32 -63 66 -63c32 0 66 25 66 63c0 40 -34 63 -67 63
c-32 0 -65 -24 -65 -63zM103 804c0 -25 25 -50 53 -50s52 25 52 50c0 27 -23 52 -52 52c-30 0 -53 -25 -53 -52z" />
    <glyph glyph-name="ninesuperior" unicode="&#x2079;" horiz-adv-x="318" 
d="M138 531h-66l90 127c-75 0 -132 47 -132 121c0 67 52 127 128 127c73 0 128 -58 128 -126c0 -41 -19 -71 -42 -102zM158 855c-41 0 -74 -33 -74 -74c0 -43 34 -75 74 -75c39 0 74 32 74 74c0 37 -29 75 -74 75z" />
    <glyph glyph-name="ordmasculine" unicode="&#xba;" horiz-adv-x="421" 
d="M210 724c94 0 161 -75 161 -166c0 -90 -67 -165 -161 -165c-93 0 -160 74 -160 163c0 99 71 168 160 168zM211 453c53 0 94 43 94 105c0 64 -45 106 -94 106c-52 0 -95 -43 -95 -107c0 -59 40 -104 95 -104zM62 329h297v-59h-297v59z" />
    <glyph glyph-name="Eth" unicode="&#xd0;" horiz-adv-x="695" 
d="M259 712c269 0 390 -179 390 -356c0 -176 -121 -356 -390 -356h-176v329h-72v52h72v331h176zM240 78c201 0 324 95 324 278c0 184 -123 278 -324 278h-75v-253h190v-52h-190v-251h75z" />
    <glyph glyph-name="Lslash" unicode="&#x141;" horiz-adv-x="444" 
d="M165 357v-279h252v-78h-334v288l-74 -61l-33 39l107 89v357h82v-288l75 63l34 -39z" />
    <glyph glyph-name="lslash" unicode="&#x142;" horiz-adv-x="202" 
d="M239 447l-98 -83v-364h-80v297c-21 -17 -41 -35 -60 -52l-34 39c31 27 62 54 94 80v400h80v-332l65 54z" />
    <glyph glyph-name="Ydieresis" unicode="&#x178;" horiz-adv-x="585" 
d="M13 712h93l142 -245c17 -30 35 -66 42 -83h6c6 16 23 51 41 82l142 246h94l-240 -417v-295h-82v295zM262 874c0 -28 -23 -51 -51 -51c-29 0 -52 23 -52 51c0 29 23 52 52 52c28 0 51 -23 51 -52zM382 926c28 0 51 -23 51 -52c0 -28 -23 -51 -51 -51c-29 0 -52 23 -52 51
c0 29 23 52 52 52z" />
    <glyph glyph-name="Agrave" unicode="&#xc0;" horiz-adv-x="708" 
d="M329 712h49l317 -712h-90l-71 166h-361l-70 -166h-90zM500 244l-105 243c-14 32 -33 80 -38 97h-5c-6 -20 -22 -62 -38 -98l-107 -242h293zM468 827l-31 -45l-194 124l40 58z" />
    <glyph glyph-name="Aacute" unicode="&#xc1;" horiz-adv-x="708" 
d="M329 712h49l317 -712h-90l-71 166h-361l-70 -166h-90zM500 244l-105 243c-14 32 -33 80 -38 97h-5c-6 -20 -22 -62 -38 -98l-107 -242h293zM274 782l-32 45l185 137l40 -58z" />
    <glyph glyph-name="Acircumflex" unicode="&#xc2;" horiz-adv-x="708" 
d="M329 712h49l317 -712h-90l-71 166h-361l-70 -166h-90zM500 244l-105 243c-14 32 -33 80 -38 97h-5c-6 -20 -22 -62 -38 -98l-107 -242h293zM519 833l-32 -42l-132 84l-132 -84l-32 43l164 125z" />
    <glyph glyph-name="Atilde" unicode="&#xc3;" horiz-adv-x="708" 
d="M329 712h49l317 -712h-90l-71 166h-361l-70 -166h-90zM500 244l-105 243c-14 32 -33 80 -38 97h-5c-6 -20 -22 -62 -38 -98l-107 -242h293zM409 825c-45 0 -81 37 -121 37c-23 0 -38 -12 -52 -33l-43 31c25 41 62 62 103 62s91 -38 122 -38c18 0 37 13 52 35l44 -32
c-28 -40 -61 -62 -105 -62z" />
    <glyph glyph-name="Adieresis" unicode="&#xc4;" horiz-adv-x="708" 
d="M329 712h49l317 -712h-90l-71 166h-361l-70 -166h-90zM500 244l-105 243c-14 32 -33 80 -38 97h-5c-6 -20 -22 -62 -38 -98l-107 -242h293zM322 874c0 -28 -23 -51 -51 -51c-29 0 -52 23 -52 51c0 29 23 52 52 52c28 0 51 -23 51 -52zM442 926c28 0 51 -23 51 -52
c0 -28 -23 -51 -51 -51c-29 0 -52 23 -52 51c0 29 23 52 52 52z" />
    <glyph glyph-name="Aring" unicode="&#xc5;" horiz-adv-x="708" 
d="M329 712h49l317 -712h-90l-71 166h-361l-70 -166h-90zM500 244l-105 243c-14 32 -33 80 -38 97h-5c-6 -20 -22 -62 -38 -98l-107 -242h293zM259 874c0 52 43 95 95 95c53 0 96 -43 96 -95s-43 -95 -96 -95c-52 0 -95 43 -95 95zM305 874c0 -27 23 -49 49 -49
c28 0 50 22 50 49s-22 49 -50 49c-26 0 -49 -22 -49 -49z" />
    <glyph glyph-name="Ccedilla" unicode="&#xc7;" horiz-adv-x="635" 
d="M377 -90h-21l18 81c-184 16 -327 171 -327 365c0 206 161 368 361 368c61 0 119 -16 172 -45v-93c-50 37 -109 59 -172 59c-164 0 -277 -131 -277 -289c0 -157 113 -289 277 -289c61 0 123 24 172 57v-89c-52 -27 -115 -46 -171 -46v-41c43 -1 77 -38 77 -80
c0 -49 -35 -89 -99 -89c-22 0 -43 7 -59 17v49c18 -10 36 -15 48 -15c25 0 52 9 52 40c0 24 -18 40 -51 40z" />
    <glyph glyph-name="Egrave" unicode="&#xc8;" horiz-adv-x="544" 
d="M83 0v712h394v-78h-312v-218h303v-80h-303v-258h312v-78h-394zM396 827l-31 -45l-194 124l40 58z" />
    <glyph glyph-name="Eacute" unicode="&#xc9;" horiz-adv-x="544" 
d="M83 0v712h394v-78h-312v-218h303v-80h-303v-258h312v-78h-394zM198 782l-32 45l185 137l40 -58z" />
    <glyph glyph-name="Ecircumflex" unicode="&#xca;" horiz-adv-x="544" 
d="M83 0v712h394v-78h-312v-218h303v-80h-303v-258h312v-78h-394zM443 833l-32 -42l-132 84l-132 -84l-32 43l164 125z" />
    <glyph glyph-name="Edieresis" unicode="&#xcb;" horiz-adv-x="544" 
d="M83 0v712h394v-78h-312v-218h303v-80h-303v-258h312v-78h-394zM249 874c0 -28 -23 -51 -51 -51c-29 0 -52 23 -52 51c0 29 23 52 52 52c28 0 51 -23 51 -52zM369 926c28 0 51 -23 51 -52c0 -28 -23 -51 -51 -51c-29 0 -52 23 -52 51c0 29 23 52 52 52z" />
    <glyph glyph-name="Igrave" unicode="&#xcc;" horiz-adv-x="249" 
d="M165 712v-712h-82v712h82zM239 827l-31 -45l-194 124l40 58z" />
    <glyph glyph-name="Iacute" unicode="&#xcd;" horiz-adv-x="249" 
d="M165 712v-712h-82v712h82zM44 782l-32 45l185 137l40 -58z" />
    <glyph glyph-name="Icircumflex" unicode="&#xce;" horiz-adv-x="249" 
d="M165 712v-712h-82v712h82zM289 833l-32 -42l-132 84l-132 -84l-32 43l164 125z" />
    <glyph glyph-name="Idieresis" unicode="&#xcf;" horiz-adv-x="249" 
d="M165 712v-712h-82v712h82zM92 874c0 -28 -23 -51 -51 -51c-29 0 -52 23 -52 51c0 29 23 52 52 52c28 0 51 -23 51 -52zM212 926c28 0 51 -23 51 -52c0 -28 -23 -51 -51 -51c-29 0 -52 23 -52 51c0 29 23 52 52 52z" />
    <glyph glyph-name="Ntilde" unicode="&#xd1;" horiz-adv-x="717" 
d="M633 712v-712h-54l-348 473c-24 33 -54 80 -65 97h-4c1 -18 3 -66 3 -104v-466h-82v712h70l339 -463c23 -32 49 -70 58 -88h5c-1 19 -4 71 -4 112v439h82zM411 825c-45 0 -81 37 -121 37c-23 0 -38 -12 -52 -33l-43 31c25 41 62 62 103 62s91 -38 122 -38
c18 0 37 13 52 35l44 -32c-28 -40 -61 -62 -105 -62z" />
    <glyph glyph-name="Ograve" unicode="&#xd2;" horiz-adv-x="816" 
d="M408 724c200 0 361 -162 361 -368s-161 -367 -361 -367s-361 161 -361 367s161 368 361 368zM408 68c164 0 276 130 276 288s-112 289 -276 289c-165 0 -277 -131 -277 -289s112 -288 277 -288zM522 827l-31 -45l-194 124l40 58z" />
    <glyph glyph-name="Oacute" unicode="&#xd3;" horiz-adv-x="816" 
d="M408 724c200 0 361 -162 361 -368s-161 -367 -361 -367s-361 161 -361 367s161 368 361 368zM408 68c164 0 276 130 276 288s-112 289 -276 289c-165 0 -277 -131 -277 -289s112 -288 277 -288zM328 782l-32 45l185 137l40 -58z" />
    <glyph glyph-name="Ocircumflex" unicode="&#xd4;" horiz-adv-x="816" 
d="M408 724c200 0 361 -162 361 -368s-161 -367 -361 -367s-361 161 -361 367s161 368 361 368zM408 68c164 0 276 130 276 288s-112 289 -276 289c-165 0 -277 -131 -277 -289s112 -288 277 -288zM574 833l-32 -42l-132 84l-132 -84l-32 43l164 125z" />
    <glyph glyph-name="Otilde" unicode="&#xd5;" horiz-adv-x="816" 
d="M408 724c200 0 361 -162 361 -368s-161 -367 -361 -367s-361 161 -361 367s161 368 361 368zM408 68c164 0 276 130 276 288s-112 289 -276 289c-165 0 -277 -131 -277 -289s112 -288 277 -288zM466 825c-45 0 -81 37 -121 37c-23 0 -38 -12 -52 -33l-43 31
c25 41 62 62 103 62s91 -38 122 -38c18 0 37 13 52 35l44 -32c-28 -40 -61 -62 -105 -62z" />
    <glyph glyph-name="Odieresis" unicode="&#xd6;" horiz-adv-x="816" 
d="M408 724c200 0 361 -162 361 -368s-161 -367 -361 -367s-361 161 -361 367s161 368 361 368zM408 68c164 0 276 130 276 288s-112 289 -276 289c-165 0 -277 -131 -277 -289s112 -288 277 -288zM377 874c0 -28 -23 -51 -51 -51c-29 0 -52 23 -52 51c0 29 23 52 52 52
c28 0 51 -23 51 -52zM497 926c28 0 51 -23 51 -52c0 -28 -23 -51 -51 -51c-29 0 -52 23 -52 51c0 29 23 52 52 52z" />
    <glyph glyph-name="Ugrave" unicode="&#xd9;" horiz-adv-x="660" 
d="M580 252c0 -165 -118 -263 -250 -263c-133 0 -250 97 -250 263v460h82v-452c0 -126 78 -191 168 -191c88 0 168 65 168 191v452h82v-460zM440 827l-31 -45l-194 124l40 58z" />
    <glyph glyph-name="Uacute" unicode="&#xda;" horiz-adv-x="660" 
d="M580 252c0 -165 -118 -263 -250 -263c-133 0 -250 97 -250 263v460h82v-452c0 -126 78 -191 168 -191c88 0 168 65 168 191v452h82v-460zM248 782l-32 45l185 137l40 -58z" />
    <glyph glyph-name="Ucircumflex" unicode="&#xdb;" horiz-adv-x="660" 
d="M580 252c0 -165 -118 -263 -250 -263c-133 0 -250 97 -250 263v460h82v-452c0 -126 78 -191 168 -191c88 0 168 65 168 191v452h82v-460zM493 833l-32 -42l-132 84l-132 -84l-32 43l164 125z" />
    <glyph glyph-name="Udieresis" unicode="&#xdc;" horiz-adv-x="660" 
d="M580 252c0 -165 -118 -263 -250 -263c-133 0 -250 97 -250 263v460h82v-452c0 -126 78 -191 168 -191c88 0 168 65 168 191v452h82v-460zM297 874c0 -28 -23 -51 -51 -51c-29 0 -52 23 -52 51c0 29 23 52 52 52c28 0 51 -23 51 -52zM417 926c28 0 51 -23 51 -52
c0 -28 -23 -51 -51 -51c-29 0 -52 23 -52 51c0 29 23 52 52 52z" />
    <glyph glyph-name="Yacute" unicode="&#xdd;" horiz-adv-x="585" 
d="M13 712h93l142 -245c17 -30 35 -66 42 -83h6c6 16 23 51 41 82l142 246h94l-240 -417v-295h-82v295zM213 782l-32 45l185 137l40 -58z" />
    <glyph glyph-name="agrave" unicode="&#xe0;" horiz-adv-x="465" 
d="M323 173v17c-14 4 -55 17 -108 17c-67 0 -100 -26 -100 -75c0 -47 25 -71 87 -71c71 0 121 51 121 112zM211 452c108 0 193 -60 193 -159v-293h-70l-7 58c-33 -48 -85 -69 -137 -69c-114 0 -156 56 -156 141c0 77 65 139 180 139c54 0 102 -16 109 -18v38
c0 59 -61 91 -114 91c-52 0 -90 -14 -121 -31v76c40 17 80 27 123 27zM344 557l-31 -45l-194 124l40 58z" />
    <glyph glyph-name="aacute" unicode="&#xe1;" horiz-adv-x="465" 
d="M323 173v17c-14 4 -55 17 -108 17c-67 0 -100 -26 -100 -75c0 -47 25 -71 87 -71c71 0 121 51 121 112zM211 452c108 0 193 -60 193 -159v-293h-70l-7 58c-33 -48 -85 -69 -137 -69c-114 0 -156 56 -156 141c0 77 65 139 180 139c54 0 102 -16 109 -18v38
c0 59 -61 91 -114 91c-52 0 -90 -14 -121 -31v76c40 17 80 27 123 27zM147 512l-32 45l185 137l40 -58z" />
    <glyph glyph-name="acircumflex" unicode="&#xe2;" horiz-adv-x="465" 
d="M323 173v17c-14 4 -55 17 -108 17c-67 0 -100 -26 -100 -75c0 -47 25 -71 87 -71c71 0 121 51 121 112zM211 452c108 0 193 -60 193 -159v-293h-70l-7 58c-33 -48 -85 -69 -137 -69c-114 0 -156 56 -156 141c0 77 65 139 180 139c54 0 102 -16 109 -18v38
c0 59 -61 91 -114 91c-52 0 -90 -14 -121 -31v76c40 17 80 27 123 27zM396 563l-32 -42l-132 84l-132 -84l-32 43l164 125z" />
    <glyph glyph-name="atilde" unicode="&#xe3;" horiz-adv-x="465" 
d="M323 173v17c-14 4 -55 17 -108 17c-67 0 -100 -26 -100 -75c0 -47 25 -71 87 -71c71 0 121 51 121 112zM211 452c108 0 193 -60 193 -159v-293h-70l-7 58c-33 -48 -85 -69 -137 -69c-114 0 -156 56 -156 141c0 77 65 139 180 139c54 0 102 -16 109 -18v38
c0 59 -61 91 -114 91c-52 0 -90 -14 -121 -31v76c40 17 80 27 123 27zM286 555c-45 0 -81 37 -121 37c-23 0 -38 -12 -52 -33l-43 31c25 41 62 62 103 62s91 -38 122 -38c18 0 37 13 52 35l44 -32c-28 -40 -61 -62 -105 -62z" />
    <glyph glyph-name="adieresis" unicode="&#xe4;" horiz-adv-x="465" 
d="M323 173v17c-14 4 -55 17 -108 17c-67 0 -100 -26 -100 -75c0 -47 25 -71 87 -71c71 0 121 51 121 112zM211 452c108 0 193 -60 193 -159v-293h-70l-7 58c-33 -48 -85 -69 -137 -69c-114 0 -156 56 -156 141c0 77 65 139 180 139c54 0 102 -16 109 -18v38
c0 59 -61 91 -114 91c-52 0 -90 -14 -121 -31v76c40 17 80 27 123 27zM193 604c0 -28 -23 -51 -51 -51c-29 0 -52 23 -52 51c0 29 23 52 52 52c28 0 51 -23 51 -52zM313 656c28 0 51 -23 51 -52c0 -28 -23 -51 -51 -51c-29 0 -52 23 -52 51c0 29 23 52 52 52z" />
    <glyph glyph-name="aring" unicode="&#xe5;" horiz-adv-x="465" 
d="M323 173v17c-14 4 -55 17 -108 17c-67 0 -100 -26 -100 -75c0 -47 25 -71 87 -71c71 0 121 51 121 112zM211 452c108 0 193 -60 193 -159v-293h-70l-7 58c-33 -48 -85 -69 -137 -69c-114 0 -156 56 -156 141c0 77 65 139 180 139c54 0 102 -16 109 -18v38
c0 59 -61 91 -114 91c-52 0 -90 -14 -121 -31v76c40 17 80 27 123 27zM132 604c0 52 43 95 95 95c53 0 96 -43 96 -95s-43 -95 -96 -95c-52 0 -95 43 -95 95zM178 604c0 -27 23 -49 49 -49c28 0 50 22 50 49s-22 49 -50 49c-26 0 -49 -22 -49 -49z" />
    <glyph glyph-name="ccedilla" unicode="&#xe7;" horiz-adv-x="407" 
d="M227 -90h-21l18 82c-112 16 -188 113 -188 227c0 136 99 233 222 233c41 0 80 -10 113 -32v-94c-37 36 -75 52 -113 52c-77 0 -139 -64 -139 -159c0 -82 57 -156 139 -156c36 0 78 16 114 50v-93c-34 -20 -73 -31 -113 -31v-41c43 -1 77 -38 77 -80
c0 -49 -35 -89 -99 -89c-22 0 -43 7 -59 17v49c18 -10 36 -15 48 -15c25 0 52 9 52 40c0 24 -18 40 -51 40z" />
    <glyph glyph-name="egrave" unicode="&#xe8;" horiz-adv-x="471" 
d="M243 380c-64 0 -108 -46 -121 -110h235c-5 76 -54 110 -114 110zM258 61c50 0 100 14 141 38v-82c-43 -17 -94 -28 -142 -28c-126 0 -221 99 -221 238c0 122 81 225 207 225c103 0 192 -76 192 -218c0 -7 -1 -16 -1 -28h-315c4 -79 59 -145 139 -145zM358 557l-31 -45
l-194 124l40 58z" />
    <glyph glyph-name="eacute" unicode="&#xe9;" horiz-adv-x="471" 
d="M243 380c-64 0 -108 -46 -121 -110h235c-5 76 -54 110 -114 110zM258 61c50 0 100 14 141 38v-82c-43 -17 -94 -28 -142 -28c-126 0 -221 99 -221 238c0 122 81 225 207 225c103 0 192 -76 192 -218c0 -7 -1 -16 -1 -28h-315c4 -79 59 -145 139 -145zM166 512l-32 45
l185 137l40 -58z" />
    <glyph glyph-name="ecircumflex" unicode="&#xea;" horiz-adv-x="471" 
d="M243 380c-64 0 -108 -46 -121 -110h235c-5 76 -54 110 -114 110zM258 61c50 0 100 14 141 38v-82c-43 -17 -94 -28 -142 -28c-126 0 -221 99 -221 238c0 122 81 225 207 225c103 0 192 -76 192 -218c0 -7 -1 -16 -1 -28h-315c4 -79 59 -145 139 -145zM409 563l-32 -42
l-132 84l-132 -84l-32 43l164 125z" />
    <glyph glyph-name="edieresis" unicode="&#xeb;" horiz-adv-x="471" 
d="M243 380c-64 0 -108 -46 -121 -110h235c-5 76 -54 110 -114 110zM258 61c50 0 100 14 141 38v-82c-43 -17 -94 -28 -142 -28c-126 0 -221 99 -221 238c0 122 81 225 207 225c103 0 192 -76 192 -218c0 -7 -1 -16 -1 -28h-315c4 -79 59 -145 139 -145zM211 604
c0 -28 -23 -51 -51 -51c-29 0 -52 23 -52 51c0 29 23 52 52 52c28 0 51 -23 51 -52zM331 656c28 0 51 -23 51 -52c0 -28 -23 -51 -51 -51c-29 0 -52 23 -52 51c0 29 23 52 52 52z" />
    <glyph glyph-name="igrave" unicode="&#xec;" horiz-adv-x="203" 
d="M214 557l-31 -45l-194 124l40 58zM142 441v-441h-81v441h81z" />
    <glyph glyph-name="iacute" unicode="&#xed;" horiz-adv-x="203" 
d="M22 512l-32 45l185 137l40 -58zM142 441v-441h-81v441h81z" />
    <glyph glyph-name="icircumflex" unicode="&#xee;" horiz-adv-x="203" 
d="M142 441v-441h-81v441h81zM266 563l-32 -42l-132 84l-132 -84l-32 43l164 125z" />
    <glyph glyph-name="idieresis" unicode="&#xef;" horiz-adv-x="203" 
d="M66 604c0 -28 -23 -51 -51 -51c-29 0 -52 23 -52 51c0 29 23 52 52 52c28 0 51 -23 51 -52zM186 656c28 0 51 -23 51 -52c0 -28 -23 -51 -51 -51c-29 0 -52 23 -52 51c0 29 23 52 52 52zM142 441v-441h-81v441h81z" />
    <glyph glyph-name="ntilde" unicode="&#xf1;" horiz-adv-x="503" 
d="M61 441h73l6 -59c22 29 69 70 129 70c119 0 173 -77 173 -197v-255h-81v248c0 99 -47 130 -105 130c-68 0 -114 -74 -114 -74v-304h-81v441zM322 555c-45 0 -81 37 -121 37c-23 0 -38 -12 -52 -33l-43 31c25 41 62 62 103 62s91 -38 122 -38c18 0 37 13 52 35l44 -32
c-28 -40 -61 -62 -105 -62z" />
    <glyph glyph-name="ograve" unicode="&#xf2;" horiz-adv-x="518" 
d="M36 218c0 137 99 234 223 234c130 0 223 -104 223 -232c0 -126 -93 -231 -223 -231s-223 105 -223 229zM119 219c0 -86 60 -156 140 -156c78 0 140 65 140 158c0 94 -68 157 -140 157c-75 0 -140 -64 -140 -159zM376 557l-31 -45l-194 124l40 58z" />
    <glyph glyph-name="oacute" unicode="&#xf3;" horiz-adv-x="518" 
d="M36 218c0 137 99 234 223 234c130 0 223 -104 223 -232c0 -126 -93 -231 -223 -231s-223 105 -223 229zM119 219c0 -86 60 -156 140 -156c78 0 140 65 140 158c0 94 -68 157 -140 157c-75 0 -140 -64 -140 -159zM180 512l-32 45l185 137l40 -58z" />
    <glyph glyph-name="ocircumflex" unicode="&#xf4;" horiz-adv-x="518" 
d="M36 218c0 137 99 234 223 234c130 0 223 -104 223 -232c0 -126 -93 -231 -223 -231s-223 105 -223 229zM119 219c0 -86 60 -156 140 -156c78 0 140 65 140 158c0 94 -68 157 -140 157c-75 0 -140 -64 -140 -159zM426 563l-32 -42l-132 84l-132 -84l-32 43l164 125z" />
    <glyph glyph-name="otilde" unicode="&#xf5;" horiz-adv-x="518" 
d="M36 218c0 137 99 234 223 234c130 0 223 -104 223 -232c0 -126 -93 -231 -223 -231s-223 105 -223 229zM119 219c0 -86 60 -156 140 -156c78 0 140 65 140 158c0 94 -68 157 -140 157c-75 0 -140 -64 -140 -159zM318 555c-45 0 -81 37 -121 37c-23 0 -38 -12 -52 -33
l-43 31c25 41 62 62 103 62s91 -38 122 -38c18 0 37 13 52 35l44 -32c-28 -40 -61 -62 -105 -62z" />
    <glyph glyph-name="odieresis" unicode="&#xf6;" horiz-adv-x="518" 
d="M36 218c0 137 99 234 223 234c130 0 223 -104 223 -232c0 -126 -93 -231 -223 -231s-223 105 -223 229zM119 219c0 -86 60 -156 140 -156c78 0 140 65 140 158c0 94 -68 157 -140 157c-75 0 -140 -64 -140 -159zM228 604c0 -28 -23 -51 -51 -51c-29 0 -52 23 -52 51
c0 29 23 52 52 52c28 0 51 -23 51 -52zM348 656c28 0 51 -23 51 -52c0 -28 -23 -51 -51 -51c-29 0 -52 23 -52 51c0 29 23 52 52 52z" />
    <glyph glyph-name="ugrave" unicode="&#xf9;" horiz-adv-x="497" 
d="M358 195v246h81v-254c0 -121 -72 -198 -190 -198s-191 77 -191 198v254h81v-246c0 -99 51 -132 110 -132c58 0 109 33 109 132zM364 557l-31 -45l-194 124l40 58z" />
    <glyph glyph-name="uacute" unicode="&#xfa;" horiz-adv-x="497" 
d="M358 195v246h81v-254c0 -121 -72 -198 -190 -198s-191 77 -191 198v254h81v-246c0 -99 51 -132 110 -132c58 0 109 33 109 132zM169 512l-32 45l185 137l40 -58z" />
    <glyph glyph-name="ucircumflex" unicode="&#xfb;" horiz-adv-x="497" 
d="M358 195v246h81v-254c0 -121 -72 -198 -190 -198s-191 77 -191 198v254h81v-246c0 -99 51 -132 110 -132c58 0 109 33 109 132zM414 563l-32 -42l-132 84l-132 -84l-32 43l164 125z" />
    <glyph glyph-name="udieresis" unicode="&#xfc;" horiz-adv-x="497" 
d="M358 195v246h81v-254c0 -121 -72 -198 -190 -198s-191 77 -191 198v254h81v-246c0 -99 51 -132 110 -132c58 0 109 33 109 132zM218 604c0 -28 -23 -51 -51 -51c-29 0 -52 23 -52 51c0 29 23 52 52 52c28 0 51 -23 51 -52zM338 656c28 0 51 -23 51 -52
c0 -28 -23 -51 -51 -51c-29 0 -52 23 -52 51c0 29 23 52 52 52z" />
    <glyph glyph-name="yacute" unicode="&#xfd;" horiz-adv-x="471" 
d="M268 210l104 231h87l-308 -657h-85l129 265l-183 392h87l106 -231c12 -26 23 -60 28 -76h5c5 17 18 49 30 76zM155 512l-32 45l185 137l40 -58z" />
    <glyph glyph-name="ydieresis" unicode="&#xff;" horiz-adv-x="471" 
d="M268 210l104 231h87l-308 -657h-85l129 265l-183 392h87l106 -231c12 -26 23 -60 28 -76h5c5 17 18 49 30 76zM201 604c0 -28 -23 -51 -51 -51c-29 0 -52 23 -52 51c0 29 23 52 52 52c28 0 51 -23 51 -52zM321 656c28 0 51 -23 51 -52c0 -28 -23 -51 -51 -51
c-29 0 -52 23 -52 51c0 29 23 52 52 52z" />
    <glyph glyph-name="Zcaron" unicode="&#x17d;" horiz-adv-x="568" 
d="M54 712h490v-53l-359 -513c-18 -25 -40 -52 -50 -64v-7c14 1 53 3 87 3h324v-78h-524v53l361 514c18 25 40 52 51 64v7c-15 -1 -55 -4 -96 -4h-284v78zM418 959l32 -44l-164 -124l-164 124l32 44l132 -84z" />
    <glyph glyph-name="zcaron" unicode="&#x17e;" horiz-adv-x="420" 
d="M43 441h354v-33l-216 -296c-13 -17 -29 -34 -37 -42v-5c11 1 39 3 60 3h193v-68h-374v30l222 303c11 15 25 31 33 38v5c-11 -1 -38 -2 -63 -2h-172v67zM342 689l32 -44l-164 -124l-164 124l32 44l132 -84z" />
    <glyph glyph-name="commaaccent" unicode="&#xf6c3;" horiz-adv-x="398" 
d="M175 -271l-47 9c23 65 43 144 54 212l83 10c-25 -88 -58 -172 -90 -231z" />
    <glyph glyph-name="Amacron" unicode="&#x100;" horiz-adv-x="708" 
d="M329 712h49l317 -712h-90l-71 166h-361l-70 -166h-90zM500 244l-105 243c-14 32 -33 80 -38 97h-5c-6 -20 -22 -62 -38 -98l-107 -242h293zM224 905h257v-60h-257v60z" />
    <glyph glyph-name="amacron" unicode="&#x101;" horiz-adv-x="465" 
d="M323 173v17c-14 4 -55 17 -108 17c-67 0 -100 -26 -100 -75c0 -47 25 -71 87 -71c71 0 121 51 121 112zM211 452c108 0 193 -60 193 -159v-293h-70l-7 58c-33 -48 -85 -69 -137 -69c-114 0 -156 56 -156 141c0 77 65 139 180 139c54 0 102 -16 109 -18v38
c0 59 -61 91 -114 91c-52 0 -90 -14 -121 -31v76c40 17 80 27 123 27zM104 635h257v-60h-257v60z" />
    <glyph glyph-name="Abreve" unicode="&#x102;" horiz-adv-x="708" 
d="M329 712h49l317 -712h-90l-71 166h-361l-70 -166h-90zM500 244l-105 243c-14 32 -33 80 -38 97h-5c-6 -20 -22 -62 -38 -98l-107 -242h293zM464 937l54 -19c-28 -85 -104 -113 -163 -113c-60 0 -136 28 -164 113l55 19c19 -65 71 -72 109 -72c39 0 88 7 109 72z" />
    <glyph glyph-name="abreve" unicode="&#x103;" horiz-adv-x="465" 
d="M323 173v17c-14 4 -55 17 -108 17c-67 0 -100 -26 -100 -75c0 -47 25 -71 87 -71c71 0 121 51 121 112zM211 452c108 0 193 -60 193 -159v-293h-70l-7 58c-33 -48 -85 -69 -137 -69c-114 0 -156 56 -156 141c0 77 65 139 180 139c54 0 102 -16 109 -18v38
c0 59 -61 91 -114 91c-52 0 -90 -14 -121 -31v76c40 17 80 27 123 27zM341 667l54 -19c-28 -85 -104 -113 -163 -113c-60 0 -136 28 -164 113l55 19c19 -65 71 -72 109 -72c39 0 88 7 109 72z" />
    <glyph glyph-name="Aogonek" unicode="&#x104;" horiz-adv-x="708" 
d="M669 -192c-16 -7 -34 -12 -54 -12c-55 0 -93 37 -93 85c0 45 36 91 82 120l-70 165h-361l-70 -166h-90l316 712h49l317 -712c-60 -17 -114 -71 -114 -112c0 -24 20 -37 41 -37c14 0 33 5 47 16v-59zM500 244l-105 243c-14 32 -33 80 -38 97h-5c-8 -17 -22 -62 -38 -98
l-107 -242h293z" />
    <glyph glyph-name="aogonek" unicode="&#x105;" horiz-adv-x="465" 
d="M323 173v17c-14 4 -55 17 -108 17c-67 0 -100 -26 -100 -75c0 -47 25 -71 87 -71c71 0 121 51 121 112zM211 452c108 0 193 -60 193 -159v-293h-70l-7 58c-33 -48 -85 -69 -137 -69c-114 0 -156 56 -156 141c0 77 65 139 180 139c54 0 102 -16 109 -18v38
c0 59 -61 91 -114 91c-52 0 -90 -14 -121 -31v76c40 17 80 27 123 27zM400 -192c-16 -7 -34 -12 -54 -12c-55 0 -93 37 -93 85c0 45 37 91 83 120h81c-49 -19 -105 -72 -105 -113c0 -24 20 -37 41 -37c14 0 33 5 47 16v-59z" />
    <glyph glyph-name="Cacute" unicode="&#x106;" horiz-adv-x="635" 
d="M580 124v-89c-52 -27 -116 -46 -172 -46c-200 0 -361 161 -361 367s161 368 361 368c61 0 119 -16 172 -45v-93c-50 37 -109 59 -172 59c-164 0 -277 -131 -277 -289c0 -157 113 -289 277 -289c61 0 123 24 172 57zM317 782l-32 45l185 137l40 -58z" />
    <glyph glyph-name="cacute" unicode="&#x107;" horiz-adv-x="407" 
d="M258 63c36 0 78 16 114 50v-93c-34 -20 -73 -31 -114 -31c-130 0 -222 105 -222 230c0 136 99 233 222 233c41 0 80 -10 113 -32v-94c-37 36 -75 52 -113 52c-77 0 -139 -64 -139 -159c0 -82 57 -156 139 -156zM174 512l-32 45l185 137l40 -58z" />
    <glyph glyph-name="Ccircumflex" unicode="&#x108;" horiz-adv-x="635" 
d="M580 124v-89c-52 -27 -116 -46 -172 -46c-200 0 -361 161 -361 367s161 368 361 368c61 0 119 -16 172 -45v-93c-50 37 -109 59 -172 59c-164 0 -277 -131 -277 -289c0 -157 113 -289 277 -289c61 0 123 24 172 57zM555 833l-32 -42l-132 84l-132 -84l-32 43l164 125z
" />
    <glyph glyph-name="ccircumflex" unicode="&#x109;" horiz-adv-x="407" 
d="M258 63c36 0 78 16 114 50v-93c-34 -20 -73 -31 -114 -31c-130 0 -222 105 -222 230c0 136 99 233 222 233c41 0 80 -10 113 -32v-94c-37 36 -75 52 -113 52c-77 0 -139 -64 -139 -159c0 -82 57 -156 139 -156zM416 563l-32 -42l-132 84l-132 -84l-32 43l164 125z" />
    <glyph glyph-name="Cdotaccent" unicode="&#x10a;" horiz-adv-x="635" 
d="M580 124v-89c-52 -27 -116 -46 -172 -46c-200 0 -361 161 -361 367s161 368 361 368c61 0 119 -16 172 -45v-93c-50 37 -109 59 -172 59c-164 0 -277 -131 -277 -289c0 -157 113 -289 277 -289c61 0 123 24 172 57zM458 874c0 -28 -23 -51 -52 -51c-28 0 -52 23 -52 51
c0 29 24 52 52 52c29 0 52 -23 52 -52z" />
    <glyph glyph-name="cdotaccent" unicode="&#x10b;" horiz-adv-x="407" 
d="M258 63c36 0 78 16 114 50v-93c-34 -20 -73 -31 -114 -31c-130 0 -222 105 -222 230c0 136 99 233 222 233c41 0 80 -10 113 -32v-94c-37 36 -75 52 -113 52c-77 0 -139 -64 -139 -159c0 -82 57 -156 139 -156zM308 604c0 -28 -23 -51 -52 -51c-28 0 -52 23 -52 51
c0 29 24 52 52 52c29 0 52 -23 52 -52z" />
    <glyph glyph-name="Ccaron" unicode="&#x10c;" horiz-adv-x="635" 
d="M580 124v-89c-52 -27 -116 -46 -172 -46c-200 0 -361 161 -361 367s161 368 361 368c61 0 119 -16 172 -45v-93c-50 37 -109 59 -172 59c-164 0 -277 -131 -277 -289c0 -157 113 -289 277 -289c61 0 123 24 172 57zM537 959l32 -44l-164 -124l-164 124l32 44l132 -84z
" />
    <glyph glyph-name="ccaron" unicode="&#x10d;" horiz-adv-x="407" 
d="M258 63c36 0 78 16 114 50v-93c-34 -20 -73 -31 -114 -31c-130 0 -222 105 -222 230c0 136 99 233 222 233c41 0 80 -10 113 -32v-94c-37 36 -75 52 -113 52c-77 0 -139 -64 -139 -159c0 -82 57 -156 139 -156zM380 689l32 -44l-164 -124l-164 124l32 44l132 -84z" />
    <glyph glyph-name="Dcaron" unicode="&#x10e;" horiz-adv-x="696" 
d="M259 712c269 0 390 -179 390 -356c0 -176 -121 -356 -390 -356h-176v712h176zM240 78c201 0 324 95 324 278c0 184 -123 278 -324 278h-75v-556h75zM416 959l32 -44l-164 -124l-164 124l32 44l132 -84z" />
    <glyph glyph-name="dcaron" unicode="&#x10f;" horiz-adv-x="544" 
d="M402 764h81v-764h-73l-7 73c-47 -73 -108 -84 -155 -84c-136 0 -212 113 -212 233c0 119 78 230 214 230c70 0 121 -37 152 -71v383zM402 226v65c-29 38 -72 87 -144 87c-87 0 -139 -65 -139 -156c0 -92 52 -159 139 -159c88 0 144 78 144 163zM594 543l-47 9
c23 65 43 144 54 212l83 10c-25 -88 -58 -172 -90 -231z" />
    <glyph glyph-name="Dcroat" unicode="&#x110;" horiz-adv-x="695" 
d="M259 712c269 0 390 -179 390 -356c0 -176 -121 -356 -390 -356h-176v329h-72v52h72v331h176zM240 78c201 0 324 95 324 278c0 184 -123 278 -324 278h-75v-253h190v-52h-190v-251h75z" />
    <glyph glyph-name="dcroat" unicode="&#x111;" horiz-adv-x="544" 
d="M403 764h80v-106h54v-52h-54v-606h-73l-6 68c-47 -67 -109 -79 -156 -79c-136 0 -212 113 -212 233c0 119 78 230 214 230c70 0 122 -37 153 -71v225h-158v52h158v106zM403 226v65c-29 38 -73 87 -145 87c-87 0 -140 -65 -140 -156c0 -92 53 -158 140 -158
c88 0 145 77 145 162z" />
    <glyph glyph-name="Emacron" unicode="&#x112;" horiz-adv-x="544" 
d="M83 0v712h394v-78h-312v-218h303v-80h-303v-258h312v-78h-394zM148 905h257v-60h-257v60z" />
    <glyph glyph-name="emacron" unicode="&#x113;" horiz-adv-x="471" 
d="M243 380c-64 0 -108 -46 -121 -110h235c-5 76 -54 110 -114 110zM258 61c50 0 100 14 141 38v-82c-43 -17 -94 -28 -142 -28c-126 0 -221 99 -221 238c0 122 81 225 207 225c103 0 192 -76 192 -218c0 -7 -1 -16 -1 -28h-315c4 -79 59 -145 139 -145zM119 635h257v-60
h-257v60z" />
    <glyph glyph-name="Ebreve" unicode="&#x114;" horiz-adv-x="544" 
d="M83 0v712h394v-78h-312v-218h303v-80h-303v-258h312v-78h-394zM387 937l54 -19c-28 -85 -104 -113 -163 -113c-60 0 -136 28 -164 113l55 19c19 -65 71 -72 109 -72c39 0 88 7 109 72z" />
    <glyph glyph-name="ebreve" unicode="&#x115;" horiz-adv-x="471" 
d="M243 380c-64 0 -108 -46 -121 -110h235c-5 76 -54 110 -114 110zM258 61c50 0 100 14 141 38v-82c-43 -17 -94 -28 -142 -28c-126 0 -221 99 -221 238c0 122 81 225 207 225c103 0 192 -76 192 -218c0 -7 -1 -16 -1 -28h-315c4 -79 59 -145 139 -145zM354 667l54 -19
c-28 -85 -104 -113 -163 -113c-60 0 -136 28 -164 113l55 19c19 -65 71 -72 109 -72c39 0 88 7 109 72z" />
    <glyph glyph-name="Edotaccent" unicode="&#x116;" horiz-adv-x="544" 
d="M83 0v712h394v-78h-312v-218h303v-80h-303v-258h312v-78h-394zM333 874c0 -28 -23 -51 -52 -51c-28 0 -52 23 -52 51c0 29 24 52 52 52c29 0 52 -23 52 -52z" />
    <glyph glyph-name="edotaccent" unicode="&#x117;" horiz-adv-x="471" 
d="M243 380c-64 0 -108 -46 -121 -110h235c-5 76 -54 110 -114 110zM258 61c50 0 100 14 141 38v-82c-43 -17 -94 -28 -142 -28c-126 0 -221 99 -221 238c0 122 81 225 207 225c103 0 192 -76 192 -218c0 -7 -1 -16 -1 -28h-315c4 -79 59 -145 139 -145zM296 604
c0 -28 -23 -51 -52 -51c-28 0 -52 23 -52 51c0 29 24 52 52 52c29 0 52 -23 52 -52z" />
    <glyph glyph-name="Eogonek" unicode="&#x118;" horiz-adv-x="544" 
d="M83 0v712h394v-78h-312v-218h303v-80h-303v-258h312v-78c-51 -20 -105 -71 -105 -112c0 -24 20 -37 41 -37c14 0 33 5 47 16v-59c-16 -7 -34 -12 -54 -12c-55 0 -93 37 -93 85c0 45 36 90 81 119h-311z" />
    <glyph glyph-name="eogonek" unicode="&#x119;" horiz-adv-x="471" 
d="M310 -192c-16 -7 -34 -12 -54 -12c-55 0 -93 37 -93 85c0 40 28 81 67 110c-113 12 -194 107 -194 236c0 122 81 225 207 225c103 0 192 -76 192 -218c0 -7 -1 -16 -1 -28h-315c4 -79 59 -145 139 -145c50 0 100 14 141 38v-82c-28 -11 -59 -19 -90 -24
c-44 -23 -87 -69 -87 -105c0 -24 20 -37 41 -37c14 0 33 5 47 16v-59zM243 380c-64 0 -108 -46 -121 -110h235c-5 76 -54 110 -114 110z" />
    <glyph glyph-name="Ecaron" unicode="&#x11a;" horiz-adv-x="544" 
d="M83 0v712h394v-78h-312v-218h303v-80h-303v-258h312v-78h-394zM404 959l32 -44l-164 -124l-164 124l32 44l132 -84z" />
    <glyph glyph-name="ecaron" unicode="&#x11b;" horiz-adv-x="471" 
d="M243 380c-64 0 -108 -46 -121 -110h235c-5 76 -54 110 -114 110zM258 61c50 0 100 14 141 38v-82c-43 -17 -94 -28 -142 -28c-126 0 -221 99 -221 238c0 122 81 225 207 225c103 0 192 -76 192 -218c0 -7 -1 -16 -1 -28h-315c4 -79 59 -145 139 -145zM377 689l32 -44
l-164 -124l-164 124l32 44l132 -84z" />
    <glyph glyph-name="Gcircumflex" unicode="&#x11c;" horiz-adv-x="710" 
d="M366 367h269v-336c-59 -19 -120 -37 -227 -37c-200 0 -361 156 -361 362s161 368 361 368c84 0 154 -28 196 -50v-89c-45 27 -108 60 -196 60c-165 0 -277 -131 -277 -289c0 -157 112 -282 277 -282c63 0 109 7 145 17v196h-187v80zM567 833l-32 -42l-132 84l-132 -84
l-32 43l164 125z" />
    <glyph glyph-name="gcircumflex" unicode="&#x11d;" horiz-adv-x="530" 
d="M247 378c-81 0 -128 -61 -128 -147c0 -88 46 -149 130 -149c86 0 139 73 139 155v56c-29 39 -72 85 -141 85zM469 441v-451c0 -120 -94 -215 -216 -215c-64 0 -124 15 -171 38v80c46 -23 103 -43 172 -43c62 0 134 48 134 130v103c-45 -63 -105 -76 -148 -76
c-132 0 -204 109 -204 224c0 114 71 221 204 221c71 0 120 -37 150 -77l5 66h74zM422 563l-32 -42l-132 84l-132 -84l-32 43l164 125z" />
    <glyph glyph-name="Gbreve" unicode="&#x11e;" horiz-adv-x="710" 
d="M366 367h269v-336c-59 -19 -120 -37 -227 -37c-200 0 -361 156 -361 362s161 368 361 368c84 0 154 -28 196 -50v-89c-45 27 -108 60 -196 60c-165 0 -277 -131 -277 -289c0 -157 112 -282 277 -282c63 0 109 7 145 17v196h-187v80zM517 937l54 -19
c-28 -85 -104 -113 -163 -113c-60 0 -136 28 -164 113l55 19c19 -65 71 -72 109 -72c39 0 88 7 109 72z" />
    <glyph glyph-name="gbreve" unicode="&#x11f;" horiz-adv-x="530" 
d="M247 378c-81 0 -128 -61 -128 -147c0 -88 46 -149 130 -149c86 0 139 73 139 155v56c-29 39 -72 85 -141 85zM469 441v-451c0 -120 -94 -215 -216 -215c-64 0 -124 15 -171 38v80c46 -23 103 -43 172 -43c62 0 134 48 134 130v103c-45 -63 -105 -76 -148 -76
c-132 0 -204 109 -204 224c0 114 71 221 204 221c71 0 120 -37 150 -77l5 66h74zM368 667l54 -19c-28 -85 -104 -113 -163 -113c-60 0 -136 28 -164 113l55 19c19 -65 71 -72 109 -72c39 0 88 7 109 72z" />
    <glyph glyph-name="Gdotaccent" unicode="&#x120;" horiz-adv-x="710" 
d="M366 367h269v-336c-59 -19 -120 -37 -227 -37c-200 0 -361 156 -361 362s161 368 361 368c84 0 154 -28 196 -50v-89c-45 27 -108 60 -196 60c-165 0 -277 -131 -277 -289c0 -157 112 -282 277 -282c63 0 109 7 145 17v196h-187v80zM463 874c0 -28 -23 -51 -52 -51
c-28 0 -52 23 -52 51c0 29 24 52 52 52c29 0 52 -23 52 -52z" />
    <glyph glyph-name="gdotaccent" unicode="&#x121;" horiz-adv-x="530" 
d="M247 378c-81 0 -128 -61 -128 -147c0 -88 46 -149 130 -149c86 0 139 73 139 155v56c-29 39 -72 85 -141 85zM469 441v-451c0 -120 -94 -215 -216 -215c-64 0 -124 15 -171 38v80c46 -23 103 -43 172 -43c62 0 134 48 134 130v103c-45 -63 -105 -76 -148 -76
c-132 0 -204 109 -204 224c0 114 71 221 204 221c71 0 120 -37 150 -77l5 66h74zM309 604c0 -28 -23 -51 -52 -51c-28 0 -52 23 -52 51c0 29 24 52 52 52c29 0 52 -23 52 -52z" />
    <glyph glyph-name="Gcommaaccent" unicode="&#x122;" horiz-adv-x="710" 
d="M366 367h269v-336c-59 -19 -120 -37 -227 -37c-200 0 -361 156 -361 362s161 368 361 368c84 0 154 -28 196 -50v-89c-45 27 -108 60 -196 60c-165 0 -277 -131 -277 -289c0 -157 112 -282 277 -282c63 0 109 7 145 17v196h-187v80zM374 -271l-47 9c23 65 43 144 54 212
l83 10c-25 -88 -58 -172 -90 -231z" />
    <glyph glyph-name="gcommaaccent" unicode="&#x123;" horiz-adv-x="530" 
d="M247 378c-81 0 -128 -61 -128 -147c0 -88 46 -149 130 -149c86 0 139 73 139 155v56c-29 39 -72 85 -141 85zM469 441v-451c0 -120 -94 -215 -216 -215c-64 0 -124 15 -171 38v80c46 -23 103 -43 172 -43c62 0 134 48 134 130v103c-45 -63 -105 -76 -148 -76
c-132 0 -204 109 -204 224c0 114 71 221 204 221c71 0 120 -37 150 -77l5 66h74zM285 751l47 -9c-23 -65 -43 -144 -54 -212l-83 -10c25 88 58 172 90 231z" />
    <glyph glyph-name="Hcircumflex" unicode="&#x124;" horiz-adv-x="677" 
d="M512 416v296h82v-712h-82v335h-347v-335h-82v712h82v-296h347zM501 833l-32 -42l-132 84l-132 -84l-32 43l164 125z" />
    <glyph glyph-name="hcircumflex" unicode="&#x125;" horiz-adv-x="503" 
d="M61 764h81v-381c21 29 66 69 128 69c118 0 172 -77 172 -197v-255h-81v248c0 99 -46 130 -105 130c-67 0 -114 -74 -114 -74v-304h-81v764zM267 833l-32 -42l-132 84l-132 -84l-32 43l164 125z" />
    <glyph glyph-name="Hbar" unicode="&#x126;" horiz-adv-x="677" 
d="M666 589v-51h-72v-538h-83v335h-346v-335h-82v538h-72v51h72v123h82v-123h346v123h83v-123h72zM511 416v122h-346v-122h346z" />
    <glyph glyph-name="hbar" unicode="&#x127;" horiz-adv-x="503" 
d="M61 764h80v-106h138v-52h-138v-219c21 26 67 65 129 65c118 0 172 -77 172 -197v-255h-80v248c0 99 -47 130 -106 130c-67 0 -115 -78 -115 -78v-300h-80v606h-54v52h54v106z" />
    <glyph glyph-name="Itilde" unicode="&#x128;" horiz-adv-x="249" 
d="M165 712v-712h-82v712h82zM179 825c-45 0 -81 37 -121 37c-23 0 -38 -12 -52 -33l-43 31c25 41 62 62 103 62s91 -38 122 -38c18 0 37 13 52 35l44 -32c-28 -40 -61 -62 -105 -62z" />
    <glyph glyph-name="itilde" unicode="&#x129;" horiz-adv-x="203" 
d="M158 555c-45 0 -81 37 -121 37c-23 0 -38 -12 -52 -33l-43 31c25 41 62 62 103 62s91 -38 122 -38c18 0 37 13 52 35l44 -32c-28 -40 -61 -62 -105 -62zM142 441v-441h-81v441h81z" />
    <glyph glyph-name="Imacron" unicode="&#x12a;" horiz-adv-x="249" 
d="M165 712v-712h-82v712h82zM-5 905h257v-60h-257v60z" />
    <glyph glyph-name="imacron" unicode="&#x12b;" horiz-adv-x="203" 
d="M-26 635h257v-60h-257v60zM142 441v-441h-81v441h81z" />
    <glyph glyph-name="Ibreve" unicode="&#x12c;" horiz-adv-x="249" 
d="M165 712v-712h-82v712h82zM235 937l54 -19c-28 -85 -104 -113 -163 -113c-60 0 -136 28 -164 113l55 19c19 -65 71 -72 109 -72c39 0 88 7 109 72z" />
    <glyph glyph-name="ibreve" unicode="&#x12d;" horiz-adv-x="203" 
d="M212 667l54 -19c-28 -85 -104 -113 -163 -113c-60 0 -136 28 -164 113l55 19c19 -65 71 -72 109 -72c39 0 88 7 109 72zM142 441v-441h-81v441h81z" />
    <glyph glyph-name="Iogonek" unicode="&#x12e;" horiz-adv-x="249" 
d="M148 -192c-16 -7 -34 -12 -54 -12c-55 0 -93 37 -93 85c0 45 36 91 82 119v712h82v-712c-48 -20 -105 -71 -105 -112c0 -24 20 -37 41 -37c14 0 33 5 47 16v-59z" />
    <glyph glyph-name="iogonek" unicode="&#x12f;" horiz-adv-x="203" 
d="M142 0h-81v441h81v-441zM157 584c0 -32 -25 -56 -55 -56s-56 24 -56 56c0 30 26 54 56 54s55 -24 55 -54zM126 -192c-16 -7 -34 -12 -54 -12c-55 0 -93 37 -93 85c0 45 37 91 83 120h81c-49 -19 -105 -72 -105 -113c0 -24 20 -37 41 -37c14 0 33 5 47 16v-59z" />
    <glyph glyph-name="Idotaccent" unicode="&#x130;" horiz-adv-x="249" 
d="M165 712v-712h-82v712h82zM179 874c0 -28 -23 -51 -52 -51c-28 0 -52 23 -52 51c0 29 24 52 52 52c29 0 52 -23 52 -52z" />
    <glyph glyph-name="Jcircumflex" unicode="&#x134;" horiz-adv-x="417" 
d="M251 712h82v-510c0 -135 -87 -213 -198 -213c-34 0 -70 11 -95 28v93c28 -23 60 -38 100 -38c59 0 111 48 111 131v509zM456 833l-32 -42l-132 84l-132 -84l-32 43l164 125z" />
    <glyph glyph-name="jcircumflex" unicode="&#x135;" horiz-adv-x="202" 
d="M-59 -219v74c22 -7 33 -7 47 -7c53 0 73 46 73 87v506h80v-496c0 -89 -43 -170 -154 -170c-14 0 -28 2 -46 6zM266 563l-32 -42l-132 84l-132 -84l-32 43l164 125z" />
    <glyph glyph-name="Kcommaaccent" unicode="&#x136;" horiz-adv-x="602" 
d="M584 712l-302 -334l302 -378h-104l-253 317l-62 -69v-248h-82v712h82v-284c0 -24 -1 -54 -2 -67h5c9 12 28 37 47 59l261 292h108zM277 -271l-47 9c23 65 43 144 54 212l83 10c-25 -88 -58 -172 -90 -231z" />
    <glyph glyph-name="kcommaaccent" unicode="&#x137;" horiz-adv-x="437" 
d="M61 764h81v-454c0 -19 -1 -53 -4 -72h5c8 11 20 32 37 50l140 153h99c-61 -70 -124 -139 -185 -209l192 -232h-101l-144 179l-39 -43v-136h-81v764zM212 -271l-47 9c23 65 43 144 54 212l83 10c-25 -88 -58 -172 -90 -231z" />
    <glyph glyph-name="kgreenlandic" unicode="&#x138;" horiz-adv-x="437" 
d="M180 288l140 153h99c-61 -70 -124 -139 -185 -209l192 -232h-101l-144 179l-40 -43v-136h-80v441h80v-131c-1 -19 -1 -53 -4 -72h5c8 12 22 32 38 50z" />
    <glyph glyph-name="Lacute" unicode="&#x139;" horiz-adv-x="444" 
d="M165 712v-634h252v-78h-334v712h82zM46 782l-32 45l185 137l40 -58z" />
    <glyph glyph-name="lacute" unicode="&#x13a;" horiz-adv-x="203" 
d="M61 0v764h81v-764h-81zM21 782l-32 45l185 137l40 -58z" />
    <glyph glyph-name="Lcommaaccent" unicode="&#x13b;" horiz-adv-x="444" 
d="M165 712v-634h252v-78h-334v712h82zM211 -271l-47 9c23 65 43 144 54 212l83 10c-25 -88 -58 -172 -90 -231z" />
    <glyph glyph-name="lcommaaccent" unicode="&#x13c;" horiz-adv-x="203" 
d="M61 0v764h81v-764h-81zM90 -271l-47 9c23 65 43 144 54 212l83 10c-25 -88 -58 -172 -90 -231z" />
    <glyph glyph-name="Lcaron" unicode="&#x13d;" horiz-adv-x="444" 
d="M165 712v-634h252v-78h-334v712h82zM307 543l-47 9c23 65 43 144 54 212l83 10c-25 -88 -58 -172 -90 -231z" />
    <glyph glyph-name="lcaron" unicode="&#x13e;" horiz-adv-x="203" 
d="M61 0v764h81v-764h-81zM253 543l-47 9c23 65 43 144 54 212l83 10c-25 -88 -58 -172 -90 -231z" />
    <glyph glyph-name="Ldot" unicode="&#x13f;" horiz-adv-x="444" 
d="M165 712v-634h252v-78h-334v712h82zM302 315c30 0 55 -26 55 -57c0 -30 -25 -54 -55 -54c-31 0 -57 24 -57 54c0 31 26 57 57 57z" />
    <glyph glyph-name="ldot" unicode="&#x140;" horiz-adv-x="335" 
d="M61 0v764h81v-764h-81zM273 315c30 0 55 -26 55 -57c0 -30 -25 -54 -55 -54c-31 0 -57 24 -57 54c0 31 26 57 57 57z" />
    <glyph glyph-name="Nacute" unicode="&#x143;" horiz-adv-x="717" 
d="M633 712v-712h-54l-348 473c-24 33 -54 80 -65 97h-4c1 -18 3 -66 3 -104v-466h-82v712h70l339 -463c23 -32 49 -70 58 -88h5c-1 19 -4 71 -4 112v439h82zM275 782l-32 45l185 137l40 -58z" />
    <glyph glyph-name="nacute" unicode="&#x144;" horiz-adv-x="503" 
d="M61 441h73l6 -59c22 29 69 70 129 70c119 0 173 -77 173 -197v-255h-81v248c0 99 -47 130 -105 130c-68 0 -114 -74 -114 -74v-304h-81v441zM178 512l-32 45l185 137l40 -58z" />
    <glyph glyph-name="Ncommaaccent" unicode="&#x145;" horiz-adv-x="717" 
d="M633 712v-712h-54l-348 473c-24 33 -54 80 -65 97h-4c1 -18 3 -66 3 -104v-466h-82v712h70l339 -463c23 -32 49 -70 58 -88h5c-1 19 -4 71 -4 112v439h82zM343 -271l-47 9c23 65 43 144 54 212l83 10c-25 -88 -58 -172 -90 -231z" />
    <glyph glyph-name="ncommaaccent" unicode="&#x146;" horiz-adv-x="503" 
d="M61 441h73l6 -59c22 29 69 70 129 70c119 0 173 -77 173 -197v-255h-81v248c0 99 -47 130 -105 130c-68 0 -114 -74 -114 -74v-304h-81v441zM253 -271l-47 9c23 65 43 144 54 212l83 10c-25 -88 -58 -172 -90 -231z" />
    <glyph glyph-name="Ncaron" unicode="&#x147;" horiz-adv-x="717" 
d="M633 712v-712h-54l-348 473c-24 33 -54 80 -65 97h-4c1 -18 3 -66 3 -104v-466h-82v712h70l339 -463c23 -32 49 -70 58 -88h5c-1 19 -4 71 -4 112v439h82zM485 959l32 -44l-164 -124l-164 124l32 44l132 -84z" />
    <glyph glyph-name="ncaron" unicode="&#x148;" horiz-adv-x="503" 
d="M61 441h73l6 -59c22 29 69 70 129 70c119 0 173 -77 173 -197v-255h-81v248c0 99 -47 130 -105 130c-68 0 -114 -74 -114 -74v-304h-81v441zM395 689l32 -44l-164 -124l-164 124l32 44l132 -84z" />
    <glyph glyph-name="napostrophe" unicode="&#x149;" horiz-adv-x="661" 
d="M35 490c29 83 55 185 69 274l98 12c-31 -109 -73 -218 -116 -295zM219 441h73l6 -59c22 29 69 70 129 70c119 0 173 -77 173 -197v-255h-81v248c0 99 -47 130 -105 130c-68 0 -114 -74 -114 -74v-304h-81v441z" />
    <glyph glyph-name="Eng" unicode="&#x14a;" horiz-adv-x="717" 
d="M423 -219v74c18 -6 28 -7 43 -7c57 0 87 48 87 98v88l-322 439c-24 33 -53 80 -65 97h-4c0 -18 3 -66 3 -104v-466h-82v712h71l338 -463c23 -32 48 -70 58 -87h5c-1 19 -4 70 -4 111v439h82v-760c0 -94 -54 -177 -166 -177c-15 0 -28 2 -44 6z" />
    <glyph glyph-name="eng" unicode="&#x14b;" horiz-adv-x="503" 
d="M243 -218v76c23 -7 36 -7 48 -7c53 0 71 45 71 85v313c0 98 -50 130 -108 130c-67 0 -113 -77 -113 -77v-302h-80v441h73l4 -56c23 25 70 67 129 67c121 0 175 -77 175 -196v-311c0 -89 -39 -170 -153 -170c-13 0 -29 3 -46 7z" />
    <glyph glyph-name="Omacron" unicode="&#x14c;" horiz-adv-x="816" 
d="M408 724c200 0 361 -162 361 -368s-161 -367 -361 -367s-361 161 -361 367s161 368 361 368zM408 68c164 0 276 130 276 288s-112 289 -276 289c-165 0 -277 -131 -277 -289s112 -288 277 -288zM279 905h257v-60h-257v60z" />
    <glyph glyph-name="omacron" unicode="&#x14d;" horiz-adv-x="518" 
d="M36 218c0 137 99 234 223 234c130 0 223 -104 223 -232c0 -126 -93 -231 -223 -231s-223 105 -223 229zM119 219c0 -86 60 -156 140 -156c78 0 140 65 140 158c0 94 -68 157 -140 157c-75 0 -140 -64 -140 -159zM134 635h257v-60h-257v60z" />
    <glyph glyph-name="Obreve" unicode="&#x14e;" horiz-adv-x="816" 
d="M408 724c200 0 361 -162 361 -368s-161 -367 -361 -367s-361 161 -361 367s161 368 361 368zM408 68c164 0 276 130 276 288s-112 289 -276 289c-165 0 -277 -131 -277 -289s112 -288 277 -288zM522 937l54 -19c-28 -85 -104 -113 -163 -113c-60 0 -136 28 -164 113
l55 19c19 -65 71 -72 109 -72c39 0 88 7 109 72z" />
    <glyph glyph-name="obreve" unicode="&#x14f;" horiz-adv-x="518" 
d="M36 218c0 137 99 234 223 234c130 0 223 -104 223 -232c0 -126 -93 -231 -223 -231s-223 105 -223 229zM119 219c0 -86 60 -156 140 -156c78 0 140 65 140 158c0 94 -68 157 -140 157c-75 0 -140 -64 -140 -159zM372 667l54 -19c-28 -85 -104 -113 -163 -113
c-60 0 -136 28 -164 113l55 19c19 -65 71 -72 109 -72c39 0 88 7 109 72z" />
    <glyph glyph-name="Ohungarumlaut" unicode="&#x150;" horiz-adv-x="816" 
d="M408 724c200 0 361 -162 361 -368s-161 -367 -361 -367s-361 161 -361 367s161 368 361 368zM408 68c164 0 276 130 276 288s-112 289 -276 289c-165 0 -277 -131 -277 -289s112 -288 277 -288zM391 956l48 -48l-129 -117l-36 38zM534 956l48 -48l-129 -117l-37 38z" />
    <glyph glyph-name="ohungarumlaut" unicode="&#x151;" horiz-adv-x="518" 
d="M36 218c0 137 99 234 223 234c130 0 223 -104 223 -232c0 -126 -93 -231 -223 -231s-223 105 -223 229zM119 219c0 -86 60 -156 140 -156c78 0 140 65 140 158c0 94 -68 157 -140 157c-75 0 -140 -64 -140 -159zM259 686l48 -48l-129 -117l-36 38zM402 686l48 -48
l-129 -117l-37 38z" />
    <glyph glyph-name="Racute" unicode="&#x154;" horiz-adv-x="580" 
d="M83 712h195c160 0 239 -95 239 -208c0 -101 -67 -184 -179 -206l217 -298h-98l-211 292h-81v-292h-82v712zM165 634v-264h112c94 0 157 53 157 134c0 80 -65 130 -158 130h-111zM193 782l-32 45l185 137l40 -58z" />
    <glyph glyph-name="racute" unicode="&#x155;" horiz-adv-x="305" 
d="M138 383c23 41 85 64 130 64c8 0 16 0 22 -1v-80c-8 1 -16 2 -22 2c-105 0 -126 -76 -126 -155v-213h-81v441h72zM100 512l-32 45l185 137l40 -58z" />
    <glyph glyph-name="Rcommaaccent" unicode="&#x156;" horiz-adv-x="580" 
d="M83 712h195c160 0 239 -95 239 -208c0 -101 -67 -184 -179 -206l217 -298h-98l-211 292h-81v-292h-82v712zM165 634v-264h112c94 0 157 53 157 134c0 80 -65 130 -158 130h-111zM276 -271l-47 9c23 65 43 144 54 212l83 10c-25 -88 -58 -172 -90 -231z" />
    <glyph glyph-name="rcommaaccent" unicode="&#x157;" horiz-adv-x="305" 
d="M138 383c23 41 85 64 130 64c8 0 16 0 22 -1v-80c-8 1 -16 2 -22 2c-105 0 -126 -76 -126 -155v-213h-81v441h72zM126 -273l-47 9c23 65 43 144 54 212l83 10c-25 -88 -58 -172 -90 -231z" />
    <glyph glyph-name="Rcaron" unicode="&#x158;" horiz-adv-x="580" 
d="M83 712h195c160 0 239 -95 239 -208c0 -101 -67 -184 -179 -206l217 -298h-98l-211 292h-81v-292h-82v712zM165 634v-264h112c94 0 157 53 157 134c0 80 -65 130 -158 130h-111zM384 959l32 -44l-164 -124l-164 124l32 44l132 -84z" />
    <glyph glyph-name="rcaron" unicode="&#x159;" horiz-adv-x="305" 
d="M138 383c23 41 85 64 130 64c8 0 16 0 22 -1v-80c-8 1 -16 2 -22 2c-105 0 -126 -76 -126 -155v-213h-81v441h72zM312 689l32 -44l-164 -124l-164 124l32 44l132 -84z" />
    <glyph glyph-name="Sacute" unicode="&#x15a;" horiz-adv-x="517" 
d="M141 539c0 -130 318 -124 318 -334c0 -124 -94 -216 -222 -216c-79 0 -137 29 -177 63v100c32 -38 98 -85 177 -85c74 0 137 54 137 130c0 150 -317 138 -317 337c0 118 92 190 204 190c73 0 129 -25 169 -56v-97c-44 45 -107 75 -170 75c-57 0 -119 -40 -119 -107z
M193 782l-32 45l185 137l40 -58z" />
    <glyph glyph-name="sacute" unicode="&#x15b;" horiz-adv-x="363" 
d="M320 121c0 -78 -63 -132 -146 -132c-50 0 -92 12 -125 27v80c37 -21 72 -35 120 -35c37 0 68 17 68 53c0 72 -193 95 -193 211c0 73 61 127 143 127c47 0 86 -12 117 -27v-84c-29 19 -65 39 -114 39c-27 0 -63 -16 -63 -48c0 -69 193 -94 193 -211zM110 512l-32 45
l185 137l40 -58z" />
    <glyph glyph-name="Scircumflex" unicode="&#x15c;" horiz-adv-x="517" 
d="M141 539c0 -130 318 -124 318 -334c0 -124 -94 -216 -222 -216c-79 0 -137 29 -177 63v100c32 -38 98 -85 177 -85c74 0 137 54 137 130c0 150 -317 138 -317 337c0 118 92 190 204 190c73 0 129 -25 169 -56v-97c-44 45 -107 75 -170 75c-57 0 -119 -40 -119 -107z
M434 833l-32 -42l-132 84l-132 -84l-32 43l164 125z" />
    <glyph glyph-name="scircumflex" unicode="&#x15d;" horiz-adv-x="363" 
d="M320 121c0 -78 -63 -132 -146 -132c-50 0 -92 12 -125 27v80c37 -21 72 -35 120 -35c37 0 68 17 68 53c0 72 -193 95 -193 211c0 73 61 127 143 127c47 0 86 -12 117 -27v-84c-29 19 -65 39 -114 39c-27 0 -63 -16 -63 -48c0 -69 193 -94 193 -211zM356 563l-32 -42
l-132 84l-132 -84l-32 43l164 125z" />
    <glyph glyph-name="Scedilla" unicode="&#x15e;" horiz-adv-x="517" 
d="M207 -90h-21l18 81c-63 7 -110 32 -144 61v100c32 -38 98 -85 177 -85c74 0 137 54 137 130c0 150 -317 138 -317 337c0 118 92 190 204 190c73 0 129 -25 169 -56v-97c-44 45 -107 75 -170 75c-57 0 -119 -40 -119 -107c0 -130 318 -124 318 -334
c0 -124 -93 -215 -220 -216v-41c43 -1 77 -38 77 -80c0 -49 -35 -89 -99 -89c-22 0 -43 7 -59 17v49c18 -10 36 -15 48 -15c25 0 52 9 52 40c0 24 -18 40 -51 40z" />
    <glyph glyph-name="scedilla" unicode="&#x15f;" horiz-adv-x="363" 
d="M153 -90h-21l18 80c-40 3 -74 13 -101 26v80c37 -21 72 -35 120 -35c37 0 68 17 68 53c0 72 -193 95 -193 211c0 73 61 127 143 127c47 0 86 -12 117 -27v-84c-29 19 -65 39 -114 39c-27 0 -63 -16 -63 -48c0 -69 193 -94 193 -211c0 -75 -58 -127 -135 -131v-42
c43 -1 77 -38 77 -80c0 -49 -35 -89 -99 -89c-22 0 -43 7 -59 17v49c18 -10 36 -15 48 -15c25 0 52 9 52 40c0 24 -18 40 -51 40z" />
    <glyph glyph-name="Tcommaaccent" unicode="&#x162;" horiz-adv-x="479" 
d="M281 633v-633h-83v633h-180v79h443v-79h-180zM220 -271l-47 9c23 65 43 144 54 212l83 10c-25 -88 -58 -172 -90 -231z" />
    <glyph glyph-name="tcommaaccent" unicode="&#x163;" horiz-adv-x="288" 
d="M267 75v-75c-15 -5 -28 -6 -42 -6c-103 0 -153 71 -153 158v222h-59v67h59v91l81 32v-123h114v-67h-114v-223c0 -41 24 -83 73 -83c14 0 22 0 41 7zM157 -271l-47 9c23 65 43 144 54 212l83 10c-25 -88 -58 -172 -90 -231z" />
    <glyph glyph-name="Tcaron" unicode="&#x164;" horiz-adv-x="479" 
d="M281 633v-633h-83v633h-180v79h443v-79h-180zM369 959l32 -44l-164 -124l-164 124l32 44l132 -84z" />
    <glyph glyph-name="tcaron" unicode="&#x165;" horiz-adv-x="288" 
d="M267 75v-75c-15 -5 -28 -6 -42 -6c-103 0 -153 71 -153 158v222h-59v67h59v91l81 32v-123h114v-67h-114v-223c0 -41 24 -83 73 -83c14 0 22 0 41 7zM264 543l-47 9c23 65 43 144 54 212l83 10c-25 -88 -58 -172 -90 -231z" />
    <glyph glyph-name="Tbar" unicode="&#x166;" horiz-adv-x="479" 
d="M461 382v-52h-180v-330h-83v330h-180v52h180v251h-180v79h443v-79h-180v-251h180z" />
    <glyph glyph-name="tbar" unicode="&#x167;" horiz-adv-x="287" 
d="M266 193h-113v-39c0 -45 22 -87 78 -87c12 1 23 2 41 6v-73c-16 -4 -31 -5 -45 -5c-112 0 -154 78 -154 167v31h-61v51h61v129h-61v68h61v90l80 32v-122h113v-68h-113v-129h113v-51z" />
    <glyph glyph-name="Utilde" unicode="&#x168;" horiz-adv-x="660" 
d="M580 252c0 -165 -118 -263 -250 -263c-133 0 -250 97 -250 263v460h82v-452c0 -126 78 -191 168 -191c88 0 168 65 168 191v452h82v-460zM381 825c-45 0 -81 37 -121 37c-23 0 -38 -12 -52 -33l-43 31c25 41 62 62 103 62s91 -38 122 -38c18 0 37 13 52 35l44 -32
c-28 -40 -61 -62 -105 -62z" />
    <glyph glyph-name="utilde" unicode="&#x169;" horiz-adv-x="497" 
d="M358 195v246h81v-254c0 -121 -72 -198 -190 -198s-191 77 -191 198v254h81v-246c0 -99 51 -132 110 -132c58 0 109 33 109 132zM310 555c-45 0 -81 37 -121 37c-23 0 -38 -12 -52 -33l-43 31c25 41 62 62 103 62s91 -38 122 -38c18 0 37 13 52 35l44 -32
c-28 -40 -61 -62 -105 -62z" />
    <glyph glyph-name="Umacron" unicode="&#x16a;" horiz-adv-x="660" 
d="M580 252c0 -165 -118 -263 -250 -263c-133 0 -250 97 -250 263v460h82v-452c0 -126 78 -191 168 -191c88 0 168 65 168 191v452h82v-460zM202 905h257v-60h-257v60z" />
    <glyph glyph-name="umacron" unicode="&#x16b;" horiz-adv-x="497" 
d="M358 195v246h81v-254c0 -121 -72 -198 -190 -198s-191 77 -191 198v254h81v-246c0 -99 51 -132 110 -132c58 0 109 33 109 132zM124 635h257v-60h-257v60z" />
    <glyph glyph-name="Ubreve" unicode="&#x16c;" horiz-adv-x="660" 
d="M580 252c0 -165 -118 -263 -250 -263c-133 0 -250 97 -250 263v460h82v-452c0 -126 78 -191 168 -191c88 0 168 65 168 191v452h82v-460zM439 937l54 -19c-28 -85 -104 -113 -163 -113c-60 0 -136 28 -164 113l55 19c19 -65 71 -72 109 -72c39 0 88 7 109 72z" />
    <glyph glyph-name="ubreve" unicode="&#x16d;" horiz-adv-x="497" 
d="M358 195v246h81v-254c0 -121 -72 -198 -190 -198s-191 77 -191 198v254h81v-246c0 -99 51 -132 110 -132c58 0 109 33 109 132zM360 667l54 -19c-28 -85 -104 -113 -163 -113c-60 0 -136 28 -164 113l55 19c19 -65 71 -72 109 -72c39 0 88 7 109 72z" />
    <glyph glyph-name="Uring" unicode="&#x16e;" horiz-adv-x="660" 
d="M580 252c0 -165 -118 -263 -250 -263c-133 0 -250 97 -250 263v460h82v-452c0 -126 78 -191 168 -191c88 0 168 65 168 191v452h82v-460zM234 874c0 52 43 95 95 95c53 0 96 -43 96 -95s-43 -95 -96 -95c-52 0 -95 43 -95 95zM280 874c0 -27 23 -49 49 -49
c28 0 50 22 50 49s-22 49 -50 49c-26 0 -49 -22 -49 -49z" />
    <glyph glyph-name="uring" unicode="&#x16f;" horiz-adv-x="497" 
d="M358 195v246h81v-254c0 -121 -72 -198 -190 -198s-191 77 -191 198v254h81v-246c0 -99 51 -132 110 -132c58 0 109 33 109 132zM156 604c0 52 43 95 95 95c53 0 96 -43 96 -95s-43 -95 -96 -95c-52 0 -95 43 -95 95zM202 604c0 -27 23 -49 49 -49c28 0 50 22 50 49
s-22 49 -50 49c-26 0 -49 -22 -49 -49z" />
    <glyph glyph-name="Uhungarumlaut" unicode="&#x170;" horiz-adv-x="660" 
d="M580 252c0 -165 -118 -263 -250 -263c-133 0 -250 97 -250 263v460h82v-452c0 -126 78 -191 168 -191c88 0 168 65 168 191v452h82v-460zM309 956l48 -48l-129 -117l-36 38zM452 956l48 -48l-129 -117l-37 38z" />
    <glyph glyph-name="uhungarumlaut" unicode="&#x171;" horiz-adv-x="497" 
d="M358 195v246h81v-254c0 -121 -72 -198 -190 -198s-191 77 -191 198v254h81v-246c0 -99 51 -132 110 -132c58 0 109 33 109 132zM243 686l48 -48l-129 -117l-36 38zM386 686l48 -48l-129 -117l-37 38z" />
    <glyph glyph-name="Uogonek" unicode="&#x172;" horiz-adv-x="660" 
d="M391 -192c-16 -7 -34 -12 -54 -12c-55 0 -93 37 -93 85c0 40 28 80 66 109c-125 9 -230 104 -230 262v460h82v-452c0 -126 78 -191 168 -191c88 0 168 65 168 191v452h82v-460c0 -132 -75 -220 -172 -251c-49 -19 -105 -72 -105 -113c0 -24 20 -37 41 -37
c14 0 33 5 47 16v-59z" />
    <glyph glyph-name="uogonek" unicode="&#x173;" horiz-adv-x="497" 
d="M358 195v246h81v-254c0 -121 -72 -198 -190 -198s-191 77 -191 198v254h81v-246c0 -99 51 -132 110 -132c58 0 109 33 109 132zM291 -192c-16 -7 -34 -12 -54 -12c-55 0 -93 37 -93 85c0 45 37 91 83 120h81c-49 -19 -105 -72 -105 -113c0 -24 20 -37 41 -37
c14 0 33 5 47 16v-59z" />
    <glyph glyph-name="Wcircumflex" unicode="&#x174;" horiz-adv-x="906" 
d="M39 712h84l75 -435c9 -50 17 -117 20 -145h6c8 27 28 91 49 143l161 401h39l159 -400c20 -50 42 -116 51 -144h5c3 28 11 92 20 144l75 436h84l-125 -712h-84l-162 396c-17 42 -33 91 -40 111h-6c-5 -20 -23 -68 -40 -111l-161 -396h-86zM617 833l-32 -42l-132 84
l-132 -84l-32 43l164 125z" />
    <glyph glyph-name="wcircumflex" unicode="&#x175;" horiz-adv-x="664" 
d="M471 0l-110 224c-10 21 -23 51 -27 63h-4c-4 -12 -17 -42 -27 -63l-111 -224h-55l-119 441h82l62 -235c6 -24 14 -66 17 -85h4c4 18 20 59 33 85l100 212h32l101 -211c12 -25 27 -67 34 -86h4c2 18 9 59 16 85l61 235h82l-119 -441h-56zM496 563l-32 -42l-132 84
l-132 -84l-32 43l164 125z" />
    <glyph glyph-name="Ycircumflex" unicode="&#x176;" horiz-adv-x="585" 
d="M13 712h93l142 -245c17 -30 35 -66 42 -83h6c6 16 23 51 41 82l142 246h94l-240 -417v-295h-82v295zM456 833l-32 -42l-132 84l-132 -84l-32 43l164 125z" />
    <glyph glyph-name="ycircumflex" unicode="&#x177;" horiz-adv-x="471" 
d="M268 210l104 231h87l-308 -657h-85l129 265l-183 392h87l106 -231c12 -26 23 -60 28 -76h5c5 17 18 49 30 76zM400 563l-32 -42l-132 84l-132 -84l-32 43l164 125z" />
    <glyph glyph-name="Zacute" unicode="&#x179;" horiz-adv-x="568" 
d="M54 712h490v-53l-359 -513c-18 -25 -40 -52 -50 -64v-7c14 1 53 3 87 3h324v-78h-524v53l361 514c18 25 40 52 51 64v7c-15 -1 -55 -4 -96 -4h-284v78zM202 782l-32 45l185 137l40 -58z" />
    <glyph glyph-name="zacute" unicode="&#x17a;" horiz-adv-x="420" 
d="M43 441h354v-33l-216 -296c-13 -17 -29 -34 -37 -42v-5c11 1 39 3 60 3h193v-68h-374v30l222 303c11 15 25 31 33 38v5c-11 -1 -38 -2 -63 -2h-172v67zM126 512l-32 45l185 137l40 -58z" />
    <glyph glyph-name="Zdotaccent" unicode="&#x17b;" horiz-adv-x="568" 
d="M54 712h490v-53l-359 -513c-18 -25 -40 -52 -50 -64v-7c14 1 53 3 87 3h324v-78h-524v53l361 514c18 25 40 52 51 64v7c-15 -1 -55 -4 -96 -4h-284v78zM337 874c0 -28 -23 -51 -52 -51c-28 0 -52 23 -52 51c0 29 24 52 52 52c29 0 52 -23 52 -52z" />
    <glyph glyph-name="zdotaccent" unicode="&#x17c;" horiz-adv-x="420" 
d="M43 441h354v-33l-216 -296c-13 -17 -29 -34 -37 -42v-5c11 1 39 3 60 3h193v-68h-374v30l222 303c11 15 25 31 33 38v5c-11 -1 -38 -2 -63 -2h-172v67zM261 604c0 -28 -23 -51 -52 -51c-28 0 -52 23 -52 51c0 29 24 52 52 52c29 0 52 -23 52 -52z" />
    <glyph glyph-name="longs" unicode="&#x17f;" horiz-adv-x="202" 
d="M262 768v-74c-14 5 -26 6 -38 7c-58 0 -81 -41 -81 -87v-614h-79v391h-54v50h54v165c0 88 42 169 154 169c12 0 28 -2 44 -7z" />
    <glyph glyph-name="notequal" unicode="&#x2260;" 
d="M42 373h267l68 133l60 -31l-53 -102h141v-78h-181l-56 -107h237v-78h-276l-70 -132c-9 4 -51 26 -57 30l51 102h-131v78h172l54 107h-226v78z" />
    <glyph glyph-name="lessequal" unicode="&#x2264;" 
d="M525 608v-82l-375 -158l375 -157v-84c-111 49 -373 161 -485 208v66zM43 67h483v-78h-483v78z" />
    <glyph glyph-name="greaterequal" unicode="&#x2265;" 
d="M41 526v82l485 -207v-66l-485 -208v84l375 157zM40 67h483v-78h-483v78z" />
    <glyph glyph-name="lozenge" unicode="&#x25ca;" horiz-adv-x="555" 
d="M537 298l-216 -426h-88c-49 96 -167 330 -216 426l216 426h88zM277 635l-171 -338c17 -32 154 -302 171 -336l171 336z" />
    <glyph glyph-name="integral" unicode="&#x222b;" horiz-adv-x="379" 
d="M362 717l-1 -73c-21 5 -33 6 -50 6c-60 0 -82 -54 -82 -98v-599c0 -95 -42 -183 -164 -183c-17 0 -30 4 -47 7v73c21 -6 33 -6 49 -6c61 0 82 54 82 98v599c0 95 42 183 166 183c15 0 29 -4 47 -7z" />
    <glyph glyph-name="approxequal" unicode="&#x2248;" 
d="M461 406l61 -43c-31 -47 -78 -101 -136 -101c-73 0 -142 81 -203 81c-34 0 -61 -30 -83 -66l-57 41c30 47 75 101 138 101c74 0 169 -81 203 -81c35 0 53 28 77 68zM103 72l-60 43c30 46 77 101 138 101c71 0 166 -82 200 -82c37 0 61 31 83 67l58 -41
c-31 -47 -75 -102 -136 -102c-76 0 -146 82 -205 82c-33 0 -55 -28 -78 -68z" />
    <glyph glyph-name="infinity" unicode="&#x221e;" horiz-adv-x="731" 
d="M536 130c-63 0 -104 19 -169 115c-71 -96 -111 -115 -172 -115c-92 0 -158 72 -158 174c0 103 66 176 158 176c62 0 104 -20 168 -115c67 95 107 115 173 115c92 0 157 -73 157 -176c0 -104 -64 -174 -157 -174zM527 406c-43 0 -61 -15 -119 -102
c55 -86 76 -102 120 -102c51 0 89 43 89 102c0 60 -38 102 -90 102zM203 201c44 0 60 16 120 103c-57 87 -76 102 -120 102c-53 0 -89 -43 -89 -102s36 -103 89 -103z" />
    <glyph glyph-name="uni2126" unicode="&#x2126;" horiz-adv-x="790" 
d="M571 75c18 1 49 4 71 4h85v-79h-261v98c105 40 193 146 193 272c0 157 -100 275 -264 275s-264 -118 -264 -275c0 -126 87 -232 193 -272v-98h-261v79h85c21 0 53 -3 71 -4v6c-106 59 -172 173 -172 289c0 206 147 354 348 354s348 -148 348 -354
c0 -116 -66 -227 -172 -289v-6z" />
    <glyph glyph-name="uni2206" unicode="&#x2206;" horiz-adv-x="697" 
d="M345 579c-7 -23 -28 -87 -47 -135l-145 -366h390l-145 367c-21 52 -40 112 -47 134h-6zM54 0v56l267 656h55l267 -656v-56h-589z" />
    <glyph glyph-name="partialdiff" unicode="&#x2202;" horiz-adv-x="608" 
d="M433 647c72 -64 114 -181 114 -311c0 -178 -90 -347 -295 -347c-119 0 -208 90 -208 212c0 165 148 290 283 290c42 0 83 -4 126 -54c-31 134 -115 209 -246 209c-33 0 -68 -5 -83 -7c-5 25 -11 49 -17 74c12 3 54 11 97 11c67 0 158 -14 229 -77zM252 65
c107 0 209 104 209 213c0 81 -56 138 -134 138c-103 0 -200 -105 -200 -215c0 -80 49 -136 125 -136z" />
    <glyph glyph-name="summation" unicode="&#x2211;" horiz-adv-x="613" 
d="M27 712h549v-78h-455c55 -87 183 -280 238 -366l-240 -404h466v-80h-558v83l238 400l-238 361v84z" />
    <glyph glyph-name="product" unicode="&#x220f;" horiz-adv-x="658" 
d="M27 634v78h603v-78h-70v-850h-83v850h-298v-850h-83v850h-69z" />
    <glyph glyph-name="pi" unicode="&#x3c0;" horiz-adv-x="510" 
d="M490 -3c-87 0 -156 62 -162 142c-2 18 -2 37 -2 56v178h-169v-373h-80v373h-59v68h446v-68h-58v-219c0 -40 36 -83 84 -83v-74z" />
    <glyph glyph-name="radical" unicode="&#x221a;" horiz-adv-x="511" 
d="M406 764h82l-218 -764h-92l-73 254h-83v80h138l64 -224z" />
    <glyph glyph-name="Scommaaccent" unicode="&#x218;" horiz-adv-x="517" 
d="M141 539c0 -130 318 -124 318 -334c0 -124 -94 -216 -222 -216c-79 0 -137 29 -177 63v100c32 -38 98 -85 177 -85c74 0 137 54 137 130c0 150 -317 138 -317 337c0 118 92 190 204 190c73 0 129 -25 169 -56v-97c-44 45 -107 75 -170 75c-57 0 -119 -40 -119 -107z
M218 -271l-47 9c23 65 43 144 54 212l83 10c-25 -88 -58 -172 -90 -231z" />
    <glyph glyph-name="scommaaccent" unicode="&#x219;" horiz-adv-x="363" 
d="M320 121c0 -78 -63 -132 -146 -132c-50 0 -92 12 -125 27v80c37 -21 72 -35 120 -35c37 0 68 17 68 53c0 72 -193 95 -193 211c0 73 61 127 143 127c47 0 86 -12 117 -27v-84c-29 19 -65 39 -114 39c-27 0 -63 -16 -63 -48c0 -69 193 -94 193 -211zM164 -271l-47 9
c23 65 43 144 54 212l83 10c-25 -88 -58 -172 -90 -231z" />
    <glyph glyph-name="uni021A" unicode="&#x21a;" horiz-adv-x="479" 
d="M281 633v-633h-83v633h-180v79h443v-79h-180zM221 -271l-47 9c23 65 43 144 54 212l83 10c-25 -88 -58 -172 -90 -231z" />
    <glyph glyph-name="uni021B" unicode="&#x21b;" horiz-adv-x="288" 
d="M267 75v-75c-15 -5 -28 -6 -42 -6c-103 0 -153 71 -153 158v222h-59v67h59v91l81 32v-123h114v-67h-114v-223c0 -41 24 -83 73 -83c14 0 22 0 41 7zM158 -271l-47 9c23 65 43 144 54 212l83 10c-25 -88 -58 -172 -90 -231z" />
    <glyph glyph-name="doublegrave" unicode="&#x30f;" horiz-adv-x="388" 
d="M180 675l48 48l118 -127l-37 -38zM38 675l48 48l117 -127l-36 -38z" />
    <glyph glyph-name="uni0200" unicode="&#x200;" horiz-adv-x="708" 
d="M329 712h49l317 -712h-90l-71 166h-361l-70 -166h-90zM500 244l-105 243c-14 32 -33 80 -38 97h-5c-6 -20 -22 -62 -38 -98l-107 -242h293zM307 908l48 48l118 -127l-37 -38zM165 908l48 48l117 -127l-36 -38z" />
    <glyph glyph-name="uni0201" unicode="&#x201;" horiz-adv-x="465" 
d="M323 173v17c-14 4 -55 17 -108 17c-67 0 -100 -26 -100 -75c0 -47 25 -71 87 -71c71 0 121 51 121 112zM211 452c108 0 193 -60 193 -159v-293h-70l-7 58c-33 -48 -85 -69 -137 -69c-114 0 -156 56 -156 141c0 77 65 139 180 139c54 0 102 -16 109 -18v38
c0 59 -61 91 -114 91c-52 0 -90 -14 -121 -31v76c40 17 80 27 123 27zM190 638l48 48l118 -127l-37 -38zM48 638l48 48l117 -127l-36 -38z" />
    <glyph glyph-name="uni0204" unicode="&#x204;" horiz-adv-x="553" 
d="M92 0v712h394v-78h-312v-218h303v-80h-303v-258h312v-78h-394zM239 908l48 48l118 -127l-37 -38zM97 908l48 48l117 -127l-36 -38z" />
    <glyph glyph-name="uni0205" unicode="&#x205;" horiz-adv-x="471" 
d="M243 380c-64 0 -108 -46 -121 -110h235c-5 76 -54 110 -114 110zM258 61c50 0 100 14 141 38v-82c-43 -17 -94 -28 -142 -28c-126 0 -221 99 -221 238c0 122 81 225 207 225c103 0 192 -76 192 -218c0 -7 -1 -16 -1 -28h-315c4 -79 59 -145 139 -145zM211 638l48 48
l118 -127l-37 -38zM69 638l48 48l117 -127l-36 -38z" />
    <glyph glyph-name="uni0208" unicode="&#x208;" horiz-adv-x="249" 
d="M165 712v-712h-82v712h82zM71 908l48 48l118 -127l-37 -38zM-71 908l48 48l117 -127l-36 -38z" />
    <glyph glyph-name="uni0209" unicode="&#x209;" horiz-adv-x="203" 
d="M142 441v-441h-81v441h81zM66 638l48 48l118 -127l-37 -38zM-76 638l48 48l117 -127l-36 -38z" />
    <glyph glyph-name="uni020C" unicode="&#x20c;" horiz-adv-x="816" 
d="M408 724c200 0 361 -162 361 -368s-161 -367 -361 -367s-361 161 -361 367s161 368 361 368zM408 68c164 0 276 130 276 288s-112 289 -276 289c-165 0 -277 -131 -277 -289s112 -288 277 -288zM361 908l48 48l118 -127l-37 -38zM219 908l48 48l117 -127l-36 -38z" />
    <glyph glyph-name="uni020D" unicode="&#x20d;" horiz-adv-x="518" 
d="M36 218c0 137 99 234 223 234c130 0 223 -104 223 -232c0 -126 -93 -231 -223 -231s-223 105 -223 229zM119 219c0 -86 60 -156 140 -156c78 0 140 65 140 158c0 94 -68 157 -140 157c-75 0 -140 -64 -140 -159zM228 638l48 48l118 -127l-37 -38zM86 638l48 48l117 -127
l-36 -38z" />
    <glyph glyph-name="uni0210" unicode="&#x210;" horiz-adv-x="580" 
d="M83 712h195c160 0 239 -95 239 -208c0 -101 -67 -184 -179 -206l217 -298h-98l-211 292h-81v-292h-82v712zM165 634v-264h112c94 0 157 53 157 134c0 80 -65 130 -158 130h-111zM212 908l48 48l118 -127l-37 -38zM70 908l48 48l117 -127l-36 -38z" />
    <glyph glyph-name="uni0211" unicode="&#x211;" horiz-adv-x="305" 
d="M138 383c23 41 85 64 130 64c8 0 16 0 22 -1v-80c-8 1 -16 2 -22 2c-105 0 -126 -76 -126 -155v-213h-81v441h72zM151 638l48 48l118 -127l-37 -38zM9 638l48 48l117 -127l-36 -38z" />
    <glyph glyph-name="uni0214" unicode="&#x214;" horiz-adv-x="660" 
d="M580 252c0 -165 -118 -263 -250 -263c-133 0 -250 97 -250 263v460h82v-452c0 -126 78 -191 168 -191c88 0 168 65 168 191v452h82v-460zM276 908l48 48l118 -127l-37 -38zM134 908l48 48l117 -127l-36 -38z" />
    <glyph glyph-name="uni0215" unicode="&#x215;" horiz-adv-x="497" 
d="M358 195v246h81v-254c0 -121 -72 -198 -190 -198s-191 77 -191 198v254h81v-246c0 -99 51 -132 110 -132c58 0 109 33 109 132zM220 638l48 48l118 -127l-37 -38zM78 638l48 48l117 -127l-36 -38z" />
    <glyph glyph-name="uni0202" unicode="&#x202;" horiz-adv-x="708" 
d="M329 712h49l317 -712h-90l-71 166h-361l-70 -166h-90zM500 244l-105 243c-14 32 -33 80 -38 97h-5c-6 -20 -22 -62 -38 -98l-107 -242h293zM519 833l-32 -42l-132 84l-132 -84l-32 43l164 125z" />
    <glyph glyph-name="uni0203" unicode="&#x203;" horiz-adv-x="465" 
d="M323 173v17c-14 4 -55 17 -108 17c-67 0 -100 -26 -100 -75c0 -47 25 -71 87 -71c71 0 121 51 121 112zM211 452c108 0 193 -60 193 -159v-293h-70l-7 58c-33 -48 -85 -69 -137 -69c-114 0 -156 56 -156 141c0 77 65 139 180 139c54 0 102 -16 109 -18v38
c0 59 -61 91 -114 91c-52 0 -90 -14 -121 -31v76c40 17 80 27 123 27zM398 563l-32 -42l-132 84l-132 -84l-32 43l164 125z" />
    <glyph glyph-name="uni0206" unicode="&#x206;" horiz-adv-x="544" 
d="M83 0v712h394v-78h-312v-218h303v-80h-303v-258h312v-78h-394zM437 833l-32 -42l-132 84l-132 -84l-32 43l164 125z" />
    <glyph glyph-name="uni0207" unicode="&#x207;" horiz-adv-x="471" 
d="M243 380c-64 0 -108 -46 -121 -110h235c-5 76 -54 110 -114 110zM258 61c50 0 100 14 141 38v-82c-43 -17 -94 -28 -142 -28c-126 0 -221 99 -221 238c0 122 81 225 207 225c103 0 192 -76 192 -218c0 -7 -1 -16 -1 -28h-315c4 -79 59 -145 139 -145zM408 563l-32 -42
l-132 84l-132 -84l-32 43l164 125z" />
    <glyph glyph-name="uni020A" unicode="&#x20a;" horiz-adv-x="249" 
d="M165 712v-712h-82v712h82zM289 833l-32 -42l-132 84l-132 -84l-32 43l164 125z" />
    <glyph glyph-name="uni020B" unicode="&#x20b;" horiz-adv-x="203" 
d="M142 441v-441h-81v441h81zM265 563l-32 -42l-132 84l-132 -84l-32 43l164 125z" />
    <glyph glyph-name="uni020E" unicode="&#x20e;" horiz-adv-x="816" 
d="M408 724c200 0 361 -162 361 -368s-161 -367 -361 -367s-361 161 -361 367s161 368 361 368zM408 68c164 0 276 130 276 288s-112 289 -276 289c-165 0 -277 -131 -277 -289s112 -288 277 -288zM570 833l-32 -42l-132 84l-132 -84l-32 43l164 125z" />
    <glyph glyph-name="uni020F" unicode="&#x20f;" horiz-adv-x="518" 
d="M36 218c0 137 99 234 223 234c130 0 223 -104 223 -232c0 -126 -93 -231 -223 -231s-223 105 -223 229zM119 219c0 -86 60 -156 140 -156c78 0 140 65 140 158c0 94 -68 157 -140 157c-75 0 -140 -64 -140 -159zM423 563l-32 -42l-132 84l-132 -84l-32 43l164 125z" />
    <glyph glyph-name="uni0212" unicode="&#x212;" horiz-adv-x="580" 
d="M83 712h195c160 0 239 -95 239 -208c0 -101 -67 -184 -179 -206l217 -298h-98l-211 292h-81v-292h-82v712zM165 634v-264h112c94 0 157 53 157 134c0 80 -65 130 -158 130h-111zM421 833l-32 -42l-132 84l-132 -84l-32 43l164 125z" />
    <glyph glyph-name="uni0213" unicode="&#x213;" horiz-adv-x="305" 
d="M138 383c23 41 85 64 130 64c8 0 16 0 22 -1v-80c-8 1 -16 2 -22 2c-105 0 -126 -76 -126 -155v-213h-81v441h72zM344 563l-32 -42l-132 84l-132 -84l-32 43l164 125z" />
    <glyph glyph-name="uni0216" unicode="&#x216;" horiz-adv-x="660" 
d="M580 252c0 -165 -118 -263 -250 -263c-133 0 -250 97 -250 263v460h82v-452c0 -126 78 -191 168 -191c88 0 168 65 168 191v452h82v-460zM495 833l-32 -42l-132 84l-132 -84l-32 43l164 125z" />
    <glyph glyph-name="uni0217" unicode="&#x217;" horiz-adv-x="497" 
d="M358 195v246h81v-254c0 -121 -72 -198 -190 -198s-191 77 -191 198v254h81v-246c0 -99 51 -132 110 -132c58 0 109 33 109 132zM416 563l-32 -42l-132 84l-132 -84l-32 43l164 125z" />
    <glyph glyph-name="wgrave" unicode="&#x1e81;" horiz-adv-x="664" 
d="M471 0l-110 224c-10 21 -23 51 -27 63h-4c-4 -12 -17 -42 -27 -63l-111 -224h-55l-119 441h82l62 -235c6 -24 14 -66 17 -85h4c4 18 20 59 33 85l100 212h32l101 -211c12 -25 27 -67 34 -86h4c2 18 9 59 16 85l61 235h82l-119 -441h-56zM444 557l-31 -45l-194 124l40 58z
" />
    <glyph glyph-name="wacute" unicode="&#x1e83;" horiz-adv-x="664" 
d="M471 0l-110 224c-10 21 -23 51 -27 63h-4c-4 -12 -17 -42 -27 -63l-111 -224h-55l-119 441h82l62 -235c6 -24 14 -66 17 -85h4c4 18 20 59 33 85l100 212h32l101 -211c12 -25 27 -67 34 -86h4c2 18 9 59 16 85l61 235h82l-119 -441h-56zM251 512l-32 45l185 137l40 -58z
" />
    <glyph glyph-name="wdieresis" unicode="&#x1e85;" horiz-adv-x="664" 
d="M471 0l-110 224c-10 21 -23 51 -27 63h-4c-4 -12 -17 -42 -27 -63l-111 -224h-55l-119 441h82l62 -235c6 -24 14 -66 17 -85h4c4 18 20 59 33 85l100 212h32l101 -211c12 -25 27 -67 34 -86h4c2 18 9 59 16 85l61 235h82l-119 -441h-56zM297 604c0 -28 -23 -51 -51 -51
c-29 0 -52 23 -52 51c0 29 23 52 52 52c28 0 51 -23 51 -52zM417 656c28 0 51 -23 51 -52c0 -28 -23 -51 -51 -51c-29 0 -52 23 -52 51c0 29 23 52 52 52z" />
    <glyph glyph-name="Wgrave" unicode="&#x1e80;" horiz-adv-x="906" 
d="M39 712h84l75 -435c9 -50 17 -117 20 -145h6c8 27 28 91 49 143l161 401h39l159 -400c20 -50 42 -116 51 -144h5c3 28 11 92 20 144l75 436h84l-125 -712h-84l-162 396c-17 42 -33 91 -40 111h-6c-5 -20 -23 -68 -40 -111l-161 -396h-86zM564 827l-31 -45l-194 124l40 58
z" />
    <glyph glyph-name="Wacute" unicode="&#x1e82;" horiz-adv-x="906" 
d="M39 712h84l75 -435c9 -50 17 -117 20 -145h6c8 27 28 91 49 143l161 401h39l159 -400c20 -50 42 -116 51 -144h5c3 28 11 92 20 144l75 436h84l-125 -712h-84l-162 396c-17 42 -33 91 -40 111h-6c-5 -20 -23 -68 -40 -111l-161 -396h-86zM372 782l-32 45l185 137l40 -58z
" />
    <glyph glyph-name="Wdieresis" unicode="&#x1e84;" horiz-adv-x="906" 
d="M39 712h84l75 -435c9 -50 17 -117 20 -145h6c8 27 28 91 49 143l161 401h39l159 -400c20 -50 42 -116 51 -144h5c3 28 11 92 20 144l75 436h84l-125 -712h-84l-162 396c-17 42 -33 91 -40 111h-6c-5 -20 -23 -68 -40 -111l-161 -396h-86zM421 874c0 -28 -23 -51 -51 -51
c-29 0 -52 23 -52 51c0 29 23 52 52 52c28 0 51 -23 51 -52zM541 926c28 0 51 -23 51 -52c0 -28 -23 -51 -51 -51c-29 0 -52 23 -52 51c0 29 23 52 52 52z" />
    <glyph glyph-name="ygrave" unicode="&#x1ef3;" horiz-adv-x="471" 
d="M268 210l104 231h87l-308 -657h-85l129 265l-183 392h87l106 -231c12 -26 23 -60 28 -76h5c5 17 18 49 30 76zM348 557l-31 -45l-194 124l40 58z" />
    <glyph glyph-name="Ygrave" unicode="&#x1ef2;" horiz-adv-x="585" 
d="M13 712h93l142 -245c17 -30 35 -66 42 -83h6c6 16 23 51 41 82l142 246h94l-240 -417v-295h-82v295zM404 827l-31 -45l-194 124l40 58z" />
    <glyph glyph-name="uniF639" unicode="&#xf639;" horiz-adv-x="602" 
d="M301 724c143 0 241 -85 241 -332v-70c0 -248 -98 -333 -241 -333s-240 85 -240 333v70c0 247 97 332 240 332zM301 66c94 0 156 63 156 262v58c0 198 -62 260 -156 260s-156 -62 -156 -260v-58c0 -199 62 -262 156 -262z" />
    <glyph glyph-name="uniF6DC" unicode="&#xf6dc;" horiz-adv-x="408" 
d="M249 712h69v-712h-82v596l-197 -165v104z" />
    <glyph glyph-name="uniF63A" unicode="&#xf63a;" horiz-adv-x="518" 
d="M472 78v-78h-433v63l286 316c31 35 62 85 62 121c0 80 -66 146 -143 146c-76 0 -127 -35 -180 -95v104c47 42 109 69 178 69c123 0 229 -99 229 -222c0 -57 -26 -111 -84 -175l-226 -249h311z" />
    <glyph glyph-name="uniF63B" unicode="&#xf63b;" horiz-adv-x="493" 
d="M127 344v71h63c89 0 144 50 144 110c0 70 -58 121 -128 121c-66 0 -111 -18 -159 -46v89c47 22 99 35 159 35c121 0 212 -86 212 -200c0 -57 -29 -111 -86 -142c70 -33 109 -99 109 -169c0 -126 -103 -224 -237 -224c-61 0 -115 11 -164 31v88c41 -23 94 -41 164 -41
c86 0 153 61 153 144c0 78 -70 133 -167 133h-63z" />
    <glyph glyph-name="uniF63C" unicode="&#xf63c;" horiz-adv-x="572" 
d="M459 0h-83v147h-347v73l362 492h68v-487h81v-78h-81v-147zM376 225v205c0 45 2 107 3 137l-7 1c-16 -27 -52 -80 -77 -114l-170 -229h251z" />
    <glyph glyph-name="uniF63D" unicode="&#xf63d;" horiz-adv-x="540" 
d="M231 -11c-67 0 -118 12 -170 34v89c41 -23 91 -45 170 -45c88 0 164 72 164 162c0 93 -62 163 -154 163c-33 0 -85 -7 -140 -42l-41 21l47 341h341v-78h-270l-24 -177c26 9 62 14 88 14c136 0 237 -107 237 -239s-113 -243 -248 -243z" />
    <glyph glyph-name="uniF63E" unicode="&#xf63e;" horiz-adv-x="583" 
d="M338 712h97l-187 -259c19 7 42 10 61 10c127 0 225 -110 225 -234c0 -126 -99 -240 -243 -240c-137 0 -243 108 -243 238c0 76 39 139 82 198zM291 66c88 0 158 70 158 157c0 92 -68 162 -155 162c-82 0 -161 -68 -161 -160c0 -77 62 -159 158 -159z" />
    <glyph glyph-name="uniF63F" unicode="&#xf63f;" horiz-adv-x="521" 
d="M387 634h-353v78h468v-39l-364 -673h-93z" />
    <glyph glyph-name="uniF640" unicode="&#xf640;" horiz-adv-x="570" 
d="M57 205c0 63 37 148 122 181c-67 33 -95 101 -95 145c0 113 92 193 200 193c110 0 201 -81 201 -193c0 -40 -27 -111 -95 -145c86 -34 122 -118 122 -181c0 -123 -100 -216 -228 -216c-127 0 -227 93 -227 216zM141 206c0 -78 71 -140 144 -140c67 0 142 57 142 140
c0 85 -75 137 -143 137c-70 0 -143 -54 -143 -137zM167 533c0 -55 54 -111 117 -111s118 54 118 111c0 63 -53 116 -117 116c-67 0 -118 -55 -118 -116z" />
    <glyph glyph-name="uniF641" unicode="&#xf641;" horiz-adv-x="582" 
d="M244 0h-97l187 260c-19 -8 -43 -10 -62 -10c-125 0 -224 110 -224 233c0 126 99 241 243 241c138 0 243 -108 243 -239c0 -76 -40 -139 -82 -197zM291 646c-88 0 -158 -70 -158 -157c0 -91 68 -162 155 -162c82 0 161 68 161 160c0 77 -62 159 -158 159z" />
    <glyph glyph-name="zero.dnom" unicode="&#xf655;" horiz-adv-x="389" 
d="M194 446c89 0 154 -52 154 -205v-42c0 -153 -65 -206 -154 -206c-90 0 -153 53 -153 206v42c0 153 63 205 153 205zM194 51c53 0 91 38 91 152v35c0 113 -38 149 -91 149s-91 -36 -91 -149v-35c0 -114 38 -152 91 -152z" />
    <glyph glyph-name="one.dnom" unicode="&#xf656;" horiz-adv-x="304" 
d="M169 439h51v-439h-61v351c-26 -22 -94 -79 -119 -100v79z" />
    <glyph glyph-name="two.dnom" unicode="&#xf657;" horiz-adv-x="362" 
d="M135 59h180v-59h-271v46l174 193c18 20 34 47 34 67c0 45 -36 81 -80 81c-41 0 -84 -28 -113 -76v90c30 28 69 45 112 45c77 0 144 -62 144 -139c0 -33 -16 -66 -50 -106z" />
    <glyph glyph-name="three.dnom" unicode="&#xf658;" horiz-adv-x="344" 
d="M98 206v55h38c53 0 85 26 85 60c0 39 -31 66 -70 66c-37 0 -71 -10 -102 -33v69c31 15 65 23 102 23c75 0 133 -54 133 -126c0 -34 -15 -65 -44 -85c38 -22 58 -60 58 -101c0 -79 -65 -141 -148 -141c-38 0 -72 8 -105 22v65c35 -21 70 -28 105 -28c47 0 85 34 85 80
c0 41 -40 74 -97 74h-40z" />
    <glyph glyph-name="four.dnom" unicode="&#xf659;" horiz-adv-x="378" 
d="M296 147h49v-59h-49v-88h-61v88h-209v53l220 298h50v-292zM236 145v85l4 103h-8c-10 -18 -29 -47 -47 -71l-87 -117h138z" />
    <glyph glyph-name="five.dnom" unicode="&#xf65a;" horiz-adv-x="363" 
d="M312 144c0 -82 -71 -151 -155 -151c-38 0 -73 8 -105 21v68c33 -22 69 -32 106 -32c51 0 91 40 91 92s-32 94 -85 94c-20 0 -52 -4 -85 -25l-29 13l30 215h211v-58h-159l-14 -99c15 4 32 8 47 8c83 0 147 -65 147 -146z" />
    <glyph glyph-name="six.dnom" unicode="&#xf65b;" horiz-adv-x="378" 
d="M212 439h74l-110 -153h12c83 0 151 -57 151 -143c0 -79 -61 -150 -151 -150c-86 0 -152 68 -152 149c0 46 25 85 50 121zM188 49c51 0 91 40 91 90c0 54 -42 94 -91 94c-48 0 -92 -39 -92 -92c0 -45 36 -92 92 -92z" />
    <glyph glyph-name="seven.dnom" unicode="&#xf65c;" horiz-adv-x="348" 
d="M245 380h-207v59h292v-31l-221 -408h-69z" />
    <glyph glyph-name="eight.dnom" unicode="&#xf65d;" horiz-adv-x="375" 
d="M44 129c0 37 20 86 66 110c-35 23 -50 60 -50 86c0 72 58 121 126 121c69 0 127 -50 127 -121c0 -24 -15 -65 -51 -87c47 -24 67 -73 67 -109c0 -77 -63 -136 -143 -136c-79 0 -142 59 -142 136zM105 130c0 -45 40 -80 82 -80c37 0 80 32 80 79c0 49 -43 79 -81 79
c-40 0 -81 -31 -81 -78zM121 326c0 -31 30 -62 65 -62s66 30 66 62c0 35 -30 65 -66 65c-37 0 -65 -31 -65 -65z" />
    <glyph glyph-name="nine.dnom" unicode="&#xf65e;" horiz-adv-x="379" 
d="M164 0h-74l110 151h-9c-85 0 -154 57 -154 144c0 79 61 151 152 151c85 0 151 -68 151 -150c0 -48 -23 -84 -50 -122zM189 389c-52 0 -91 -40 -91 -91c0 -52 41 -94 91 -94c47 0 90 40 90 93c0 45 -35 92 -90 92z" />
    <glyph glyph-name="zero.numr" unicode="&#xf661;" horiz-adv-x="389" 
d="M193 726c89 0 154 -52 154 -205v-42c0 -153 -65 -206 -154 -206c-90 0 -153 53 -153 206v42c0 153 63 205 153 205zM193 331c53 0 91 38 91 152v35c0 113 -38 149 -91 149s-91 -36 -91 -149v-35c0 -114 38 -152 91 -152z" />
    <glyph glyph-name="one.numr" unicode="&#xf662;" horiz-adv-x="304" 
d="M169 719h51v-439h-61v351c-26 -22 -94 -79 -119 -100v79z" />
    <glyph glyph-name="two.numr" unicode="&#xf663;" horiz-adv-x="362" 
d="M135 339h180v-59h-271v46l174 193c18 20 34 47 34 67c0 45 -36 81 -80 81c-41 0 -84 -28 -113 -76v90c30 28 69 45 112 45c77 0 144 -62 144 -139c0 -33 -16 -66 -50 -106z" />
    <glyph glyph-name="three.numr" unicode="&#xf664;" horiz-adv-x="344" 
d="M98 486v55h38c53 0 85 26 85 60c0 39 -31 66 -70 66c-37 0 -71 -10 -102 -33v69c31 15 65 23 102 23c75 0 133 -54 133 -126c0 -34 -15 -65 -44 -85c38 -22 58 -60 58 -101c0 -79 -65 -141 -148 -141c-38 0 -72 8 -105 22v65c35 -21 70 -28 105 -28c47 0 85 34 85 80
c0 41 -40 74 -97 74h-40z" />
    <glyph glyph-name="four.numr" unicode="&#xf665;" horiz-adv-x="378" 
d="M296 427h49v-59h-49v-88h-61v88h-209v53l220 298h50v-292zM236 425v85l4 103h-8c-10 -18 -29 -47 -47 -71l-87 -117h138z" />
    <glyph glyph-name="five.numr" unicode="&#xf666;" horiz-adv-x="363" 
d="M312 424c0 -82 -71 -151 -155 -151c-38 0 -73 8 -105 21v68c33 -22 69 -32 106 -32c51 0 91 40 91 92s-32 94 -85 94c-20 0 -52 -4 -85 -25l-29 13l30 215h211v-58h-159l-14 -99c15 4 32 8 47 8c83 0 147 -65 147 -146z" />
    <glyph glyph-name="six.numr" unicode="&#xf667;" horiz-adv-x="378" 
d="M212 719h74l-110 -153h12c83 0 151 -57 151 -143c0 -79 -61 -150 -151 -150c-86 0 -152 68 -152 149c0 46 25 85 50 121zM188 329c51 0 91 40 91 90c0 54 -42 94 -91 94c-48 0 -92 -39 -92 -92c0 -45 36 -92 92 -92z" />
    <glyph glyph-name="seven.numr" unicode="&#xf668;" horiz-adv-x="348" 
d="M245 660h-207v59h292v-31l-221 -408h-69z" />
    <glyph glyph-name="eight.numr" unicode="&#xf669;" horiz-adv-x="375" 
d="M44 409c0 37 20 86 66 110c-35 23 -50 60 -50 86c0 72 58 121 126 121c69 0 127 -50 127 -121c0 -24 -15 -65 -51 -87c47 -24 67 -73 67 -109c0 -77 -63 -136 -143 -136c-79 0 -142 59 -142 136zM105 410c0 -45 40 -80 82 -80c37 0 80 32 80 79c0 49 -43 79 -81 79
c-40 0 -81 -31 -81 -78zM121 606c0 -31 30 -62 65 -62s66 30 66 62c0 35 -30 65 -66 65c-37 0 -65 -31 -65 -65z" />
    <glyph glyph-name="nine.numr" unicode="&#xf66a;" horiz-adv-x="379" 
d="M164 280h-74l110 151h-9c-85 0 -154 57 -154 144c0 79 61 151 152 151c85 0 151 -68 151 -150c0 -48 -23 -84 -50 -122zM189 669c-52 0 -91 -40 -91 -91c0 -52 41 -94 91 -94c47 0 90 40 90 93c0 45 -35 92 -90 92z" />
    <glyph glyph-name="Euro.small" unicode="&#xe02a;" horiz-adv-x="505" 
d="M341 467c-82 0 -146 -49 -173 -118h234v-52h-249c-1 -10 -2 -20 -2 -31c0 -10 1 -19 2 -29h249v-52h-235c28 -69 92 -118 174 -118c48 0 93 19 135 49v-87c-41 -22 -91 -37 -135 -37c-122 0 -225 80 -259 193h-57v52h47c-1 10 -2 19 -2 29c0 11 1 21 2 31h-47v52h58
c34 113 137 194 258 194c46 0 92 -14 135 -37v-91c-43 36 -86 52 -135 52z" />
    <glyph glyph-name="a.small" unicode="&#xf761;" horiz-adv-x="549" 
d="M298 534l237 -534h-87l-51 120h-248l-51 -120h-87l238 534h49zM180 194h186l-69 169c-8 20 -17 49 -22 66h-4c-4 -17 -13 -46 -21 -66z" />
    <glyph glyph-name="aacute.small" unicode="&#xf7e1;" horiz-adv-x="549" 
d="M192 604l-32 45l185 137l40 -58zM298 534l237 -534h-87l-51 120h-248l-51 -120h-87l238 534h49zM180 194h186l-69 169c-8 20 -17 49 -22 66h-4c-4 -17 -13 -46 -21 -66z" />
    <glyph glyph-name="abreve.small" unicode="&#xf66d;" horiz-adv-x="549" 
d="M383 759l54 -19c-28 -85 -104 -113 -163 -113c-60 0 -136 28 -164 113l55 19c19 -65 71 -72 109 -72c39 0 88 7 109 72zM298 534l237 -534h-87l-51 120h-248l-51 -120h-87l238 534h49zM180 194h186l-69 169c-8 20 -17 49 -22 66h-4c-4 -17 -13 -46 -21 -66z" />
    <glyph glyph-name="acircumflex.small" unicode="&#xf7e2;" horiz-adv-x="549" 
d="M298 534l237 -534h-87l-51 120h-248l-51 -120h-87l238 534h49zM180 194h186l-69 169c-8 20 -17 49 -22 66h-4c-4 -17 -13 -46 -21 -66zM437 655l-32 -42l-132 84l-132 -84l-32 43l164 125z" />
    <glyph glyph-name="adieresis.small" unicode="&#xf7e4;" horiz-adv-x="549" 
d="M298 534l237 -534h-87l-51 120h-248l-51 -120h-87l238 534h49zM180 194h186l-69 169c-8 20 -17 49 -22 66h-4c-4 -17 -13 -46 -21 -66zM238 696c0 -28 -23 -51 -51 -51c-29 0 -52 23 -52 51c0 29 23 52 52 52c28 0 51 -23 51 -52zM358 748c28 0 51 -23 51 -52
c0 -28 -23 -51 -51 -51c-29 0 -52 23 -52 51c0 29 23 52 52 52z" />
    <glyph glyph-name="ae.small" unicode="&#xf7e6;" horiz-adv-x="744" 
d="M677 459h-261l24 -140h229v-76h-215l30 -169h193v-74h-263l-21 119h-218l-70 -119h-94l317 534h349v-75zM210 191h170l-40 226h-4c-24 -46 -51 -99 -78 -145z" />
    <glyph glyph-name="aeacute.small" unicode="&#xf670;" horiz-adv-x="744" 
d="M430 604l-32 45l185 137l40 -58zM677 459h-261l24 -140h229v-76h-215l30 -169h193v-74h-263l-21 119h-218l-70 -119h-94l317 534h349v-75zM210 191h170l-40 226h-4c-24 -46 -51 -99 -78 -145z" />
    <glyph glyph-name="agrave.small" unicode="&#xf7e0;" horiz-adv-x="549" 
d="M385 649l-31 -45l-194 124l40 58zM298 534l237 -534h-87l-51 120h-248l-51 -120h-87l238 534h49zM180 194h186l-69 169c-8 20 -17 49 -22 66h-4c-4 -17 -13 -46 -21 -66z" />
    <glyph glyph-name="amacron.small" unicode="&#xf66e;" horiz-adv-x="549" 
d="M144 727h257v-60h-257v60zM298 534l237 -534h-87l-51 120h-248l-51 -120h-87l238 534h49zM180 194h186l-69 169c-8 20 -17 49 -22 66h-4c-4 -17 -13 -46 -21 -66z" />
    <glyph glyph-name="ampersand.small" unicode="&#xf726;" horiz-adv-x="545" 
d="M332 138l-110 119c-46 -24 -88 -61 -88 -111c0 -44 47 -82 91 -82c48 0 81 41 107 74zM193 425c0 -31 22 -57 46 -80c31 15 72 39 72 77c0 33 -26 55 -60 55c-33 0 -58 -25 -58 -52zM461 0l-77 80c-33 -39 -86 -88 -157 -88c-99 0 -172 74 -172 164c0 76 52 118 114 157
c-26 28 -51 64 -51 105c0 75 62 125 134 125c71 0 135 -51 135 -125c0 -61 -54 -100 -93 -124l87 -93l50 80h87l-86 -136l136 -145h-107z" />
    <glyph glyph-name="aogonek.small" unicode="&#xf66f;" horiz-adv-x="549" 
d="M298 534l237 -534h-9c-48 -20 -102 -71 -102 -112c0 -24 20 -37 41 -37c14 0 33 5 47 16v-59c-16 -7 -34 -12 -54 -12c-55 0 -93 37 -93 85c0 45 36 91 82 120l-50 119h-248l-51 -120h-87l238 534h49zM180 194h186l-69 169c-8 20 -17 49 -22 66h-4
c-4 -17 -13 -46 -21 -66z" />
    <glyph glyph-name="aring.small" unicode="&#xf7e5;" horiz-adv-x="549" 
d="M178 696c0 52 43 95 95 95c53 0 96 -43 96 -95s-43 -95 -96 -95c-52 0 -95 43 -95 95zM224 696c0 -27 23 -49 49 -49c28 0 50 22 50 49s-22 49 -50 49c-26 0 -49 -22 -49 -49zM298 534l237 -534h-87l-51 120h-248l-51 -120h-87l238 534h49zM180 194h186l-69 169
c-8 20 -17 49 -22 66h-4c-4 -17 -13 -46 -21 -66z" />
    <glyph glyph-name="at.small" unicode="&#xe025;" horiz-adv-x="784" 
d="M415 -99v-66c-233 0 -364 168 -364 355c0 207 154 353 353 353c172 0 321 -119 321 -295c0 -154 -89 -254 -176 -254c-41 0 -61 20 -69 58c-44 -49 -90 -58 -126 -58c-101 0 -151 81 -151 173c0 105 70 207 183 207c50 0 93 -32 117 -57l7 49h68l-33 -218
c-5 -32 -6 -33 -6 -63c0 -16 8 -26 21 -26c48 0 96 79 96 175c0 160 -111 242 -253 242c-162 0 -283 -124 -283 -286c0 -148 104 -289 295 -289zM483 189l8 55c-10 13 -48 62 -105 62c-69 0 -113 -58 -113 -137c0 -61 33 -110 90 -110c67 0 112 76 120 130z" />
    <glyph glyph-name="atilde.small" unicode="&#xf7e3;" horiz-adv-x="549" 
d="M328 647c-45 0 -81 37 -121 37c-23 0 -38 -12 -52 -33l-43 31c25 41 62 62 103 62s91 -38 122 -38c18 0 37 13 52 35l44 -32c-28 -40 -61 -62 -105 -62zM298 534l237 -534h-87l-51 120h-248l-51 -120h-87l238 534h49zM180 194h186l-69 169c-8 20 -17 49 -22 66h-4
c-4 -17 -13 -46 -21 -66z" />
    <glyph glyph-name="b.small" unicode="&#xf762;" horiz-adv-x="479" 
d="M159 460v-152h80c51 0 87 23 87 76c0 49 -39 76 -89 76h-78zM159 233v-158h90c54 0 96 26 96 81c0 52 -41 77 -101 77h-85zM406 384c0 -43 -21 -84 -51 -107c42 -24 70 -76 70 -122c0 -102 -80 -155 -173 -155h-173v534h154c119 0 173 -73 173 -150z" />
    <glyph glyph-name="backslash.small" unicode="&#xe00d;" horiz-adv-x="331" 
d="M80 601l239 -660l-72 -25l-239 659z" />
    <glyph glyph-name="bar.small" unicode="&#xe00e;" horiz-adv-x="222" 
d="M144 580v-617h-74v617h74z" />
    <glyph glyph-name="braceleft.small" unicode="&#xf60c;" horiz-adv-x="257" 
d="M177 620h50v-71h-50c-22 0 -37 -19 -37 -45c0 -48 43 -81 43 -138c0 -48 -24 -76 -46 -94c23 -16 46 -47 46 -94c0 -56 -43 -89 -43 -137c0 -27 16 -46 37 -46h50v-71h-50c-63 0 -116 47 -116 115c0 48 43 94 43 139c0 37 -28 59 -66 59v70c39 0 66 23 66 60
c0 44 -43 90 -43 138c0 69 54 115 116 115z" />
    <glyph glyph-name="braceright.small" unicode="&#xf60d;" horiz-adv-x="257" 
d="M25 620h50c62 0 116 -46 116 -115c0 -48 -43 -94 -43 -138c0 -37 27 -60 66 -60v-70c-38 0 -66 -22 -66 -59c0 -45 43 -91 43 -139c0 -68 -53 -115 -116 -115h-50v71h50c21 0 37 19 37 46c0 48 -43 81 -43 137c0 47 23 78 46 94c-22 18 -46 46 -46 94c0 57 43 90 43 138
c0 26 -15 45 -37 45h-50v71z" />
    <glyph glyph-name="bracketleft.small" unicode="&#xf60e;" horiz-adv-x="268" 
d="M238 546h-76v-552h76v-73h-156v699h156v-74z" />
    <glyph glyph-name="bracketright.small" unicode="&#xf60f;" horiz-adv-x="273" 
d="M102 546h-77v74h156v-699h-156v73h77v552z" />
    <glyph glyph-name="c.small" unicode="&#xf763;" horiz-adv-x="510" 
d="M450 117v-88c-41 -22 -91 -37 -135 -37c-150 0 -271 120 -271 275c0 154 121 276 271 276c46 0 92 -14 135 -37v-92c-43 36 -86 53 -135 53c-113 0 -190 -91 -190 -200c0 -108 77 -200 190 -200c48 0 93 20 135 50z" />
    <glyph glyph-name="cacute.small" unicode="&#xf671;" horiz-adv-x="510" 
d="M232 604l-32 45l185 137l40 -58zM450 117v-88c-41 -22 -91 -37 -135 -37c-150 0 -271 120 -271 275c0 154 121 276 271 276c46 0 92 -14 135 -37v-92c-43 36 -86 53 -135 53c-113 0 -190 -91 -190 -200c0 -108 77 -200 190 -200c48 0 93 20 135 50z" />
    <glyph glyph-name="ccaron.small" unicode="&#xf672;" horiz-adv-x="509" 
d="M445 781l32 -44l-164 -124l-164 124l32 44l132 -84zM450 117v-88c-41 -22 -91 -37 -135 -37c-150 0 -271 120 -271 275c0 154 121 276 271 276c46 0 92 -14 135 -37v-92c-43 36 -86 53 -135 53c-113 0 -190 -91 -190 -200c0 -108 77 -200 190 -200c48 0 93 20 135 50z
" />
    <glyph glyph-name="ccedilla.small" unicode="&#xf7e7;" horiz-adv-x="510" 
d="M284 -90h-21l18 84c-134 16 -237 130 -237 273c0 154 121 276 271 276c46 0 92 -14 135 -37v-92c-43 36 -86 53 -135 53c-113 0 -190 -91 -190 -200c0 -108 77 -200 190 -200c48 0 93 20 135 50v-88c-41 -22 -90 -37 -134 -37v-44c43 -1 77 -38 77 -80
c0 -49 -35 -89 -99 -89c-22 0 -43 7 -59 17v49c18 -10 36 -15 48 -15c25 0 52 9 52 40c0 24 -18 40 -51 40z" />
    <glyph glyph-name="ccircumflex.small" unicode="&#xf673;" horiz-adv-x="509" 
d="M450 117v-88c-41 -22 -91 -37 -135 -37c-150 0 -271 120 -271 275c0 154 121 276 271 276c46 0 92 -14 135 -37v-92c-43 36 -86 53 -135 53c-113 0 -190 -91 -190 -200c0 -108 77 -200 190 -200c48 0 93 20 135 50zM476 648l-32 -42l-132 84l-132 -84l-32 43l164 125z
" />
    <glyph glyph-name="cdotaccent.small" unicode="&#xf674;" horiz-adv-x="510" 
d="M450 117v-88c-41 -22 -91 -37 -135 -37c-150 0 -271 120 -271 275c0 154 121 276 271 276c46 0 92 -14 135 -37v-92c-43 36 -86 53 -135 53c-113 0 -190 -91 -190 -200c0 -108 77 -200 190 -200c48 0 93 20 135 50zM365 696c0 -28 -23 -51 -52 -51c-28 0 -52 23 -52 51
c0 29 24 52 52 52c29 0 52 -23 52 -52z" />
    <glyph glyph-name="cent.small" unicode="&#xe026;" horiz-adv-x="372" 
d="M329 264c-27 27 -54 40 -81 44v-242c27 4 55 18 81 41v-84c-25 -16 -51 -26 -81 -29v-50h-41v50c-99 10 -167 93 -167 193c0 106 74 183 167 192v46h41v-46c29 -2 56 -12 81 -28v-87zM121 187c0 -61 35 -109 86 -120v239c-48 -9 -86 -55 -86 -119z" />
    <glyph glyph-name="copyright.small" unicode="&#xe028;" horiz-adv-x="643" 
d="M166 268c0 92 74 164 163 164c25 0 52 -7 78 -21v-74c-27 22 -54 33 -78 33c-59 0 -100 -46 -100 -102s41 -103 100 -103c24 0 50 12 78 32v-72c-26 -14 -53 -22 -78 -22c-89 0 -163 73 -163 165zM319 543c152 0 274 -123 274 -275s-122 -275 -274 -275
c-153 0 -275 123 -275 275s122 275 275 275zM319 53c119 0 216 96 216 215c0 118 -97 215 -216 215c-120 0 -216 -97 -216 -215c0 -119 96 -215 216 -215z" />
    <glyph glyph-name="d.small" unicode="&#xf764;" horiz-adv-x="560" 
d="M217 534c202 0 293 -135 293 -267s-91 -267 -293 -267h-138v534h138zM204 75c138 0 224 66 224 192c0 127 -86 193 -224 193h-44v-385h44z" />
    <glyph glyph-name="dcaron.small" unicode="&#xf675;" horiz-adv-x="560" 
d="M371 781l32 -44l-164 -124l-164 124l32 44l132 -84zM217 534c202 0 293 -135 293 -267s-91 -267 -293 -267h-138v534h138zM204 75c138 0 224 66 224 192c0 127 -86 193 -224 193h-44v-385h44z" />
    <glyph glyph-name="dcroat.small" unicode="&#xf676;" horiz-adv-x="558" 
d="M235 534c202 0 293 -135 293 -267s-91 -267 -293 -267h-138v238h-52v57h52v239h138zM222 75c138 0 224 66 224 192c0 127 -86 193 -224 193h-44v-165h137v-57h-137v-163h44z" />
    <glyph glyph-name="dollar.small" unicode="&#xe023;" horiz-adv-x="420" 
d="M359 157c0 -84 -57 -149 -139 -163v-60h-40v58c-57 2 -99 24 -130 51v103c28 -35 73 -76 130 -80v183c-63 31 -133 66 -133 147s58 135 133 145v56h40v-55c49 -3 89 -23 118 -45v-100c-34 38 -78 64 -118 69v-150c65 -32 139 -71 139 -159zM124 399c0 -27 23 -46 56 -63
v127c-30 -8 -56 -31 -56 -64zM220 71c36 11 62 42 62 80c0 35 -27 56 -62 76v-156z" />
    <glyph glyph-name="dotlessi.small" unicode="&#xe02c;" horiz-adv-x="248" 
d="M160 534v-534h-81v534h81z" />
    <glyph glyph-name="e.small" unicode="&#xf765;" horiz-adv-x="452" 
d="M79 0v534h306v-74h-225v-141h219v-76h-219v-168h225v-75h-306z" />
    <glyph glyph-name="eacute.small" unicode="&#xf7e9;" horiz-adv-x="452" 
d="M152 604l-32 45l185 137l40 -58zM79 0v534h306v-74h-225v-141h219v-76h-219v-168h225v-75h-306z" />
    <glyph glyph-name="ebreve.small" unicode="&#xf677;" horiz-adv-x="452" 
d="M343 759l54 -19c-28 -85 -104 -113 -163 -113c-60 0 -136 28 -164 113l55 19c19 -65 71 -72 109 -72c39 0 88 7 109 72zM79 0v534h306v-74h-225v-141h219v-76h-219v-168h225v-75h-306z" />
    <glyph glyph-name="ecaron.small" unicode="&#xf678;" horiz-adv-x="452" 
d="M367 781l32 -44l-164 -124l-164 124l32 44l132 -84zM79 0v534h306v-74h-225v-141h219v-76h-219v-168h225v-75h-306z" />
    <glyph glyph-name="ecircumflex.small" unicode="&#xf7ea;" horiz-adv-x="452" 
d="M79 0v534h306v-74h-225v-141h219v-76h-219v-168h225v-75h-306zM398 655l-32 -42l-132 84l-132 -84l-32 43l164 125z" />
    <glyph glyph-name="edieresis.small" unicode="&#xf7eb;" horiz-adv-x="452" 
d="M79 0v534h306v-74h-225v-141h219v-76h-219v-168h225v-75h-306zM199 696c0 -28 -23 -51 -51 -51c-29 0 -52 23 -52 51c0 29 23 52 52 52c28 0 51 -23 51 -52zM319 748c28 0 51 -23 51 -52c0 -28 -23 -51 -51 -51c-29 0 -52 23 -52 51c0 29 23 52 52 52z" />
    <glyph glyph-name="edotaccent.small" unicode="&#xf679;" horiz-adv-x="452" 
d="M79 0v534h306v-74h-225v-141h219v-76h-219v-168h225v-75h-306zM285 696c0 -28 -23 -51 -52 -51c-28 0 -52 23 -52 51c0 29 24 52 52 52c29 0 52 -23 52 -52z" />
    <glyph glyph-name="egrave.small" unicode="&#xf7e8;" horiz-adv-x="452" 
d="M345 649l-31 -45l-194 124l40 58zM79 0v534h306v-74h-225v-141h219v-76h-219v-168h225v-75h-306z" />
    <glyph glyph-name="eight.small" unicode="&#xe021;" horiz-adv-x="454" 
d="M51 158c0 44 25 102 79 131c-41 28 -60 75 -60 105c0 87 72 149 156 149c85 0 155 -63 155 -149c0 -29 -16 -76 -61 -104c57 -31 81 -88 81 -132c0 -95 -77 -166 -175 -166c-99 0 -175 71 -175 166zM129 158c0 -51 48 -94 97 -94c46 0 97 38 97 94c0 58 -51 93 -97 93
c-48 0 -97 -36 -97 -93zM147 395c0 -36 36 -74 79 -74c42 0 78 37 78 74c0 42 -36 77 -78 77c-44 0 -79 -37 -79 -77z" />
    <glyph glyph-name="emacron.small" unicode="&#xf67a;" horiz-adv-x="452" 
d="M103 727h257v-60h-257v60zM79 0v534h306v-74h-225v-141h219v-76h-219v-168h225v-75h-306z" />
    <glyph glyph-name="eng.small" unicode="&#xf67b;" horiz-adv-x="586" 
d="M79 534h68l243 -334c12 -17 21 -34 27 -43h4c-1 17 -2 45 -2 63v314h79v-559c0 -74 -42 -138 -130 -138c-13 0 -25 2 -43 6v75c26 -9 32 -9 42 -9c34 0 53 30 53 61v60l-227 311c-12 15 -25 39 -33 54h-4c1 -15 3 -44 3 -62v-333h-80v534z" />
    <glyph glyph-name="eogonek.small" unicode="&#xf67c;" horiz-adv-x="452" 
d="M79 0v534h306v-74h-225v-141h219v-76h-219v-168h225v-75c-48 -20 -105 -71 -105 -112c0 -24 20 -37 41 -37c14 0 33 5 47 16v-59c-16 -7 -34 -12 -54 -12c-55 0 -93 37 -93 85c0 45 36 90 81 119h-223z" />
    <glyph glyph-name="eth.small" unicode="&#xf7f0;" horiz-adv-x="560" 
d="M217 534c202 0 293 -135 293 -267s-91 -267 -293 -267h-138v238h-52v57h52v239h138zM204 75c138 0 224 66 224 192c0 127 -86 193 -224 193h-44v-165h137v-57h-137v-163h44z" />
    <glyph glyph-name="exclam.small" unicode="&#xf721;" horiz-adv-x="244" 
d="M78 142v392h79v-392h-79zM118 95c27 0 50 -23 50 -50c0 -28 -23 -49 -50 -49s-50 21 -50 49c0 27 23 50 50 50z" />
    <glyph glyph-name="exclamdown.small" unicode="&#xf7a1;" horiz-adv-x="244" 
d="M157 392v-392h-79v392h79zM117 439c-27 0 -50 23 -50 50c0 28 23 49 50 49s50 -21 50 -49c0 -27 -23 -50 -50 -50z" />
    <glyph glyph-name="f.small" unicode="&#xf766;" horiz-adv-x="412" 
d="M361 460h-201v-142h195v-75h-195v-243h-81v534h282v-74z" />
    <glyph glyph-name="five.small" unicode="&#xe01e;" horiz-adv-x="434" 
d="M381 175c0 -101 -87 -183 -189 -183c-47 0 -91 9 -131 26v82c43 -26 85 -34 129 -34c59 0 110 45 110 107s-41 109 -102 109c-23 0 -59 -4 -100 -30l-38 19l37 263h260v-72h-195l-17 -117c19 5 36 10 56 10c104 0 180 -81 180 -180z" />
    <glyph glyph-name="four.small" unicode="&#xe01d;" horiz-adv-x="450" 
d="M359 181h58v-75h-58v-106h-80v106h-252v67l267 361h65v-353zM280 179v113c0 35 2 87 3 114h-10c-13 -24 -39 -67 -59 -94l-99 -133h165z" />
    <glyph glyph-name="g.small" unicode="&#xf767;" horiz-adv-x="565" 
d="M275 212v72h215v-259c-47 -15 -95 -29 -175 -29c-150 0 -271 116 -271 271c0 154 121 276 271 276c64 0 119 -23 153 -40v-85s-83 49 -153 49c-113 0 -190 -91 -190 -200c0 -108 77 -196 190 -196c40 0 72 5 96 11v130h-136z" />
    <glyph glyph-name="gbreve.small" unicode="&#xf67d;" horiz-adv-x="565" 
d="M424 759l54 -19c-28 -85 -104 -113 -163 -113c-60 0 -136 28 -164 113l55 19c19 -65 71 -72 109 -72c39 0 88 7 109 72zM275 212v72h215v-259c-47 -15 -95 -29 -175 -29c-150 0 -271 116 -271 271c0 154 121 276 271 276c64 0 119 -23 153 -40v-85s-83 49 -153 49
c-113 0 -190 -91 -190 -200c0 -108 77 -196 190 -196c40 0 72 5 96 11v130h-136z" />
    <glyph glyph-name="gcircumflex.small" unicode="&#xf67e;" horiz-adv-x="565" 
d="M275 212v72h215v-259c-47 -15 -95 -29 -175 -29c-150 0 -271 116 -271 271c0 154 121 276 271 276c64 0 119 -23 153 -40v-85s-83 49 -153 49c-113 0 -190 -91 -190 -200c0 -108 77 -196 190 -196c40 0 72 5 96 11v130h-136zM481 655l-32 -42l-132 84l-132 -84l-32 43
l164 125z" />
    <glyph glyph-name="gcommaaccent.small" unicode="&#xf67f;" horiz-adv-x="565" 
d="M275 212v72h215v-259c-47 -15 -95 -29 -175 -29c-150 0 -271 116 -271 271c0 154 121 276 271 276c64 0 119 -23 153 -40v-85s-83 49 -153 49c-113 0 -190 -91 -190 -200c0 -108 77 -196 190 -196c40 0 72 5 96 11v130h-136zM300 -271l-47 9c23 65 43 144 54 212l83 10
c-25 -88 -58 -172 -90 -231z" />
    <glyph glyph-name="gdotaccent.small" unicode="&#xf680;" horiz-adv-x="565" 
d="M275 212v72h215v-259c-47 -15 -95 -29 -175 -29c-150 0 -271 116 -271 271c0 154 121 276 271 276c64 0 119 -23 153 -40v-85s-83 49 -153 49c-113 0 -190 -91 -190 -200c0 -108 77 -196 190 -196c40 0 72 5 96 11v130h-136zM368 696c0 -28 -23 -51 -52 -51
c-28 0 -52 23 -52 51c0 29 24 52 52 52c29 0 52 -23 52 -52z" />
    <glyph glyph-name="germandbls.small" unicode="&#xe02b;" horiz-adv-x="830" 
d="M215 467c-37 0 -77 -25 -77 -67c0 -84 230 -87 230 -243c0 -94 -71 -165 -171 -165c-60 0 -105 24 -138 51v98c29 -36 85 -74 138 -74c48 0 90 35 90 85c0 99 -230 96 -230 244c0 91 71 147 158 147c55 0 101 -21 133 -46v-94c-39 43 -93 64 -133 64zM618 467
c-37 0 -77 -25 -77 -67c0 -84 230 -87 230 -243c0 -94 -71 -165 -171 -165c-60 0 -105 24 -138 51v98c29 -36 85 -74 138 -74c48 0 90 35 90 85c0 99 -230 96 -230 244c0 91 71 147 158 147c55 0 101 -21 133 -46v-94c-39 43 -93 64 -133 64z" />
    <glyph glyph-name="h.small" unicode="&#xf768;" horiz-adv-x="558" 
d="M390 319v215h80v-534h-80v243h-230v-243h-81v534h81v-215h230z" />
    <glyph glyph-name="hbar.small" unicode="&#xf681;" horiz-adv-x="554" 
d="M522 445v-56h-52v-389h-80v243h-230v-243h-81v389h-52v56h52v89h81v-89h230v89h80v-89h52zM390 319v70h-230v-70h230z" />
    <glyph glyph-name="hcircumflex.small" unicode="&#xf682;" horiz-adv-x="558" 
d="M390 319v215h80v-534h-80v243h-230v-243h-81v534h81v-215h230zM437 655l-32 -42l-132 84l-132 -84l-32 43l164 125z" />
    <glyph glyph-name="i.small" unicode="&#xf769;" horiz-adv-x="248" 
d="M160 534v-534h-81v534h81z" />
    <glyph glyph-name="iacute.small" unicode="&#xf7ed;" horiz-adv-x="242" 
d="M39 604l-32 45l185 137l40 -58zM160 534v-534h-81v534h81z" />
    <glyph glyph-name="ibreve.small" unicode="&#xf683;" horiz-adv-x="245" 
d="M230 759l54 -19c-28 -85 -104 -113 -163 -113c-60 0 -136 28 -164 113l55 19c19 -65 71 -72 109 -72c39 0 88 7 109 72zM160 534v-534h-81v534h81z" />
    <glyph glyph-name="icircumflex.small" unicode="&#xf7ee;" horiz-adv-x="245" 
d="M160 534v-534h-81v534h81zM284 655l-32 -42l-132 84l-132 -84l-32 43l164 125z" />
    <glyph glyph-name="idieresis.small" unicode="&#xf7ef;" horiz-adv-x="244" 
d="M160 534v-534h-81v534h81zM85 696c0 -28 -23 -51 -51 -51c-29 0 -52 23 -52 51c0 29 23 52 52 52c28 0 51 -23 51 -52zM205 748c28 0 51 -23 51 -52c0 -28 -23 -51 -51 -51c-29 0 -52 23 -52 51c0 29 23 52 52 52z" />
    <glyph glyph-name="igrave.small" unicode="&#xf7ec;" horiz-adv-x="242" 
d="M233 649l-31 -45l-194 124l40 58zM160 534v-534h-81v534h81z" />
    <glyph glyph-name="ij.small" unicode="&#xf684;" horiz-adv-x="525" 
d="M160 534v-534h-81v534h81zM362 534h80v-379c0 -103 -68 -163 -154 -163c-27 0 -57 10 -79 24v92c28 -24 56 -38 83 -38c37 0 70 32 70 86v378z" />
    <glyph glyph-name="imacron.small" unicode="&#xf685;" horiz-adv-x="243" 
d="M-8 727h257v-60h-257v60zM160 534v-534h-81v534h81z" />
    <glyph glyph-name="iogonek.small" unicode="&#xf686;" horiz-adv-x="248" 
d="M160 534v-534c-48 -20 -104 -71 -104 -112c0 -24 20 -37 41 -37c14 0 33 5 47 16v-59c-16 -7 -34 -12 -54 -12c-55 0 -93 37 -93 85c0 45 36 91 82 119v534h81z" />
    <glyph glyph-name="itilde.small" unicode="&#xf687;" horiz-adv-x="245" 
d="M176 647c-45 0 -81 37 -121 37c-23 0 -38 -12 -52 -33l-43 31c25 41 62 62 103 62s91 -38 122 -38c18 0 37 13 52 35l44 -32c-28 -40 -61 -62 -105 -62zM160 534v-534h-81v534h81z" />
    <glyph glyph-name="j.small" unicode="&#xf76a;" horiz-adv-x="361" 
d="M193 534h80v-379c0 -103 -68 -163 -154 -163c-27 0 -57 10 -79 24v92c28 -24 56 -38 83 -38c37 0 70 32 70 86v378z" />
    <glyph glyph-name="jcircumflex.small" unicode="&#xf688;" horiz-adv-x="359" 
d="M193 534h80v-379c0 -103 -68 -163 -154 -163c-27 0 -57 10 -79 24v92c28 -24 56 -38 83 -38c37 0 70 32 70 86v378zM398 655l-32 -42l-132 84l-132 -84l-32 43l164 125z" />
    <glyph glyph-name="k.small" unicode="&#xf76b;" horiz-adv-x="490" 
d="M79 534h80v-195c0 -14 0 -31 -2 -43h4c6 10 15 23 24 33l184 205h105l-228 -252l226 -282h-100l-177 225l-36 -40v-185h-80v534z" />
    <glyph glyph-name="kcommaaccent.small" unicode="&#xf689;" horiz-adv-x="490" 
d="M79 534h80v-195c0 -14 0 -31 -2 -43h4c6 10 15 23 24 33l184 205h105l-228 -252l226 -282h-100l-177 225l-36 -40v-185h-80v534zM220 -271l-47 9c23 65 43 144 54 212l83 10c-25 -88 -58 -172 -90 -231z" />
    <glyph glyph-name="l.small" unicode="&#xf76c;" horiz-adv-x="369" 
d="M160 534v-459h181v-75h-262v534h81z" />
    <glyph glyph-name="lacute.small" unicode="&#xf68a;" horiz-adv-x="369" 
d="M80 604l-32 45l185 137l40 -58zM160 534v-459h181v-75h-262v534h81z" />
    <glyph glyph-name="lcaron.small" unicode="&#xf68b;" horiz-adv-x="369" 
d="M160 534v-459h181v-75h-262v534h81zM272 372l-47 9c23 65 43 144 54 212l83 10c-25 -88 -58 -172 -90 -231z" />
    <glyph glyph-name="lcommaaccent.small" unicode="&#xf68c;" horiz-adv-x="369" 
d="M160 534v-459h181v-75h-262v534h81zM168 -271l-47 9c23 65 43 144 54 212l83 10c-25 -88 -58 -172 -90 -231z" />
    <glyph glyph-name="ldot.small" unicode="&#xf68d;" horiz-adv-x="369" 
d="M160 534v-459h181v-75h-262v534h81zM312 228c0 -28 -23 -51 -52 -51c-28 0 -52 23 -52 51c0 29 24 52 52 52c29 0 52 -23 52 -52z" />
    <glyph glyph-name="lslash.small" unicode="&#xf6f9;" horiz-adv-x="369" 
d="M160 263v-188h181v-75h-262v197c-10 -10 -34 -28 -44 -36l-37 42l81 68v263h81v-197l45 38l36 -42z" />
    <glyph glyph-name="m.small" unicode="&#xf76d;" horiz-adv-x="706" 
d="M598 534l57 -534h-81l-33 321c-2 19 -3 50 -4 71h-5c-6 -18 -15 -44 -25 -66l-142 -299h-31l-141 299c-11 22 -20 48 -25 66h-6c0 -21 -1 -52 -3 -71l-33 -321h-81l56 534h77l172 -359l172 359h76z" />
    <glyph glyph-name="n.small" unicode="&#xf76e;" horiz-adv-x="586" 
d="M79 534h68l243 -334c12 -17 21 -34 27 -43h4c-1 17 -2 45 -2 63v314h79v-534h-56l-249 341c-12 16 -25 39 -33 54h-4c1 -15 3 -44 3 -62v-333h-80v534z" />
    <glyph glyph-name="nacute.small" unicode="&#xf68e;" horiz-adv-x="586" 
d="M206 604l-32 45l185 137l40 -58zM79 534h68l243 -334c12 -17 21 -34 27 -43h4c-1 17 -2 45 -2 63v314h79v-534h-56l-249 341c-12 16 -25 39 -33 54h-4c1 -15 3 -44 3 -62v-333h-80v534z" />
    <glyph glyph-name="ncaron.small" unicode="&#xf68f;" horiz-adv-x="586" 
d="M417 781l32 -44l-164 -124l-164 124l32 44l132 -84zM79 534h68l243 -334c12 -17 21 -34 27 -43h4c-1 17 -2 45 -2 63v314h79v-534h-56l-249 341c-12 16 -25 39 -33 54h-4c1 -15 3 -44 3 -62v-333h-80v534z" />
    <glyph glyph-name="ncommaaccent.small" unicode="&#xf690;" horiz-adv-x="586" 
d="M79 534h68l243 -334c12 -17 21 -34 27 -43h4c-1 17 -2 45 -2 63v314h79v-534h-56l-249 341c-12 16 -25 39 -33 54h-4c1 -15 3 -44 3 -62v-333h-80v534zM273 -271l-47 9c23 65 43 144 54 212l83 10c-25 -88 -58 -172 -90 -231z" />
    <glyph glyph-name="nine.small" unicode="&#xe022;" horiz-adv-x="453" 
d="M197 0h-95l132 184c-4 -1 -8 -1 -13 -1c-101 0 -182 73 -182 175c0 97 76 185 186 185c106 0 186 -84 186 -183c0 -57 -29 -106 -60 -148zM226 467c-60 0 -106 -46 -106 -104c0 -62 47 -109 106 -109c55 0 106 46 106 107c0 52 -42 106 -106 106z" />
    <glyph glyph-name="ntilde.small" unicode="&#xf7f1;" horiz-adv-x="586" 
d="M342 647c-45 0 -81 37 -121 37c-23 0 -38 -12 -52 -33l-43 31c25 41 62 62 103 62s91 -38 122 -38c18 0 37 13 52 35l44 -32c-28 -40 -61 -62 -105 -62zM79 534h68l243 -334c12 -17 21 -34 27 -43h4c-1 17 -2 45 -2 63v314h79v-534h-56l-249 341c-12 16 -25 39 -33 54h-4
c1 -15 3 -44 3 -62v-333h-80v534z" />
    <glyph glyph-name="o.small" unicode="&#xf76f;" horiz-adv-x="637" 
d="M315 543c151 0 272 -122 272 -276c0 -155 -121 -275 -272 -275c-150 0 -271 120 -271 275c0 154 121 276 271 276zM315 67c113 0 191 91 191 200s-78 200 -191 200s-190 -91 -190 -200s77 -200 190 -200z" />
    <glyph glyph-name="oacute.small" unicode="&#xf7f3;" horiz-adv-x="637" 
d="M236 604l-32 45l185 137l40 -58zM315 543c151 0 272 -122 272 -276c0 -155 -121 -275 -272 -275c-150 0 -271 120 -271 275c0 154 121 276 271 276zM315 67c113 0 191 91 191 200s-78 200 -191 200s-190 -91 -190 -200s77 -200 190 -200z" />
    <glyph glyph-name="obreve.small" unicode="&#xf691;" horiz-adv-x="637" 
d="M426 759l54 -19c-28 -85 -104 -113 -163 -113c-60 0 -136 28 -164 113l55 19c19 -65 71 -72 109 -72c39 0 88 7 109 72zM315 543c151 0 272 -122 272 -276c0 -155 -121 -275 -272 -275c-150 0 -271 120 -271 275c0 154 121 276 271 276zM315 67c113 0 191 91 191 200
s-78 200 -191 200s-190 -91 -190 -200s77 -200 190 -200z" />
    <glyph glyph-name="ocircumflex.small" unicode="&#xf7f4;" horiz-adv-x="637" 
d="M315 543c151 0 272 -122 272 -276c0 -155 -121 -275 -272 -275c-150 0 -271 120 -271 275c0 154 121 276 271 276zM315 67c113 0 191 91 191 200s-78 200 -191 200s-190 -91 -190 -200s77 -200 190 -200zM481 655l-32 -42l-132 84l-132 -84l-32 43l164 125z" />
    <glyph glyph-name="odieresis.small" unicode="&#xf7f6;" horiz-adv-x="637" 
d="M315 543c151 0 272 -122 272 -276c0 -155 -121 -275 -272 -275c-150 0 -271 120 -271 275c0 154 121 276 271 276zM315 67c113 0 191 91 191 200s-78 200 -191 200s-190 -91 -190 -200s77 -200 190 -200zM284 696c0 -28 -23 -51 -51 -51c-29 0 -52 23 -52 51
c0 29 23 52 52 52c28 0 51 -23 51 -52zM404 748c28 0 51 -23 51 -52c0 -28 -23 -51 -51 -51c-29 0 -52 23 -52 51c0 29 23 52 52 52z" />
    <glyph glyph-name="oe.small" unicode="&#xf6fa;" horiz-adv-x="731" 
d="M664 460h-225v-141h219v-76h-219v-168h225v-75h-303c-21 -5 -43 -8 -66 -8c-150 0 -271 120 -271 275c0 154 121 276 271 276c24 0 47 -3 70 -9h299v-74zM104 267c0 -109 78 -200 191 -200c23 0 44 4 63 10v380c-19 6 -40 10 -63 10c-113 0 -191 -91 -191 -200z" />
    <glyph glyph-name="ograve.small" unicode="&#xf7f2;" horiz-adv-x="637" 
d="M427 649l-31 -45l-194 124l40 58zM315 543c151 0 272 -122 272 -276c0 -155 -121 -275 -272 -275c-150 0 -271 120 -271 275c0 154 121 276 271 276zM315 67c113 0 191 91 191 200s-78 200 -191 200s-190 -91 -190 -200s77 -200 190 -200z" />
    <glyph glyph-name="ohungarumlaut.small" unicode="&#xf692;" horiz-adv-x="637" 
d="M315 543c151 0 272 -122 272 -276c0 -155 -121 -275 -272 -275c-150 0 -271 120 -271 275c0 154 121 276 271 276zM315 67c113 0 191 91 191 200s-78 200 -191 200s-190 -91 -190 -200s77 -200 190 -200zM299 778l48 -48l-129 -117l-36 38zM442 778l48 -48l-129 -117
l-37 38z" />
    <glyph glyph-name="omacron.small" unicode="&#xf693;" horiz-adv-x="637" 
d="M189 727h257v-60h-257v60zM315 543c151 0 272 -122 272 -276c0 -155 -121 -275 -272 -275c-150 0 -271 120 -271 275c0 154 121 276 271 276zM315 67c113 0 191 91 191 200s-78 200 -191 200s-190 -91 -190 -200s77 -200 190 -200z" />
    <glyph glyph-name="one.small" unicode="&#xe01a;" horiz-adv-x="347" 
d="M193 534h65v-534h-80v420l-143 -120v100z" />
    <glyph glyph-name="oslash.small" unicode="&#xf7f8;" horiz-adv-x="642" 
d="M578 535l-65 -78c45 -49 74 -117 74 -190c0 -155 -121 -275 -272 -275c-56 0 -110 17 -154 47c-12 -15 -53 -62 -64 -77l-43 38l65 77c-46 49 -75 116 -75 190c0 154 121 276 271 276c56 0 111 -18 155 -47c13 15 51 62 64 76zM126 267c0 -50 15 -96 44 -130
c63 76 187 222 251 298c-29 19 -66 32 -106 32c-113 0 -189 -91 -189 -200zM506 267c0 50 -16 95 -44 130l-252 -300c30 -19 65 -30 105 -30c114 0 191 92 191 200z" />
    <glyph glyph-name="oslashacute.small" unicode="&#xf694;" horiz-adv-x="641" 
d="M247 604l-32 45l185 137l40 -58zM589 535l-65 -78c45 -49 74 -117 74 -190c0 -155 -121 -275 -272 -275c-56 0 -110 17 -154 47c-12 -15 -53 -62 -64 -77l-43 38l65 77c-46 49 -75 116 -75 190c0 154 121 276 271 276c56 0 111 -18 155 -47c13 15 51 62 64 76zM137 267
c0 -50 15 -96 44 -130c63 76 187 222 251 298c-29 19 -66 32 -106 32c-113 0 -189 -91 -189 -200zM517 267c0 50 -16 95 -44 130l-252 -300c30 -19 65 -30 105 -30c114 0 191 92 191 200z" />
    <glyph glyph-name="otilde.small" unicode="&#xf7f5;" horiz-adv-x="637" 
d="M373 647c-45 0 -81 37 -121 37c-23 0 -38 -12 -52 -33l-43 31c25 41 62 62 103 62s91 -38 122 -38c18 0 37 13 52 35l44 -32c-28 -40 -61 -62 -105 -62zM315 543c151 0 272 -122 272 -276c0 -155 -121 -275 -272 -275c-150 0 -271 120 -271 275c0 154 121 276 271 276z
M315 67c113 0 191 91 191 200s-78 200 -191 200s-190 -91 -190 -200s77 -200 190 -200z" />
    <glyph glyph-name="p.small" unicode="&#xf770;" horiz-adv-x="462" 
d="M159 459v-197h70c70 0 116 39 116 100c0 59 -47 97 -116 97h-70zM79 534h151c128 0 196 -77 196 -172c0 -122 -93 -175 -203 -175h-64v-187h-80v534z" />
    <glyph glyph-name="parenleft.small" unicode="&#xf618;" horiz-adv-x="276" 
d="M232 599c-46 -72 -102 -171 -102 -331s56 -258 102 -331h-75c-45 79 -103 175 -103 331s58 252 103 331h75z" />
    <glyph glyph-name="parenright.small" unicode="&#xf619;" horiz-adv-x="278" 
d="M40 599h75c45 -79 103 -175 103 -331s-58 -252 -103 -331h-75c46 73 102 171 102 331s-56 259 -102 331z" />
    <glyph glyph-name="percent.small" unicode="&#xe024;" horiz-adv-x="625" 
d="M145 543c70 0 120 -39 120 -145s-50 -143 -120 -143s-120 37 -120 143s50 145 120 145zM145 315c32 0 54 21 54 83c0 63 -22 83 -54 83c-31 0 -54 -20 -54 -83c0 -62 23 -83 54 -83zM473 281c71 0 121 -35 121 -143c0 -106 -50 -142 -121 -142c-69 0 -119 36 -119 142
c0 108 50 143 119 143zM473 55c32 0 55 21 55 83s-23 83 -55 83c-30 0 -52 -21 -52 -83s22 -83 52 -83zM140 14l272 532l58 -27l-274 -533z" />
    <glyph glyph-name="q.small" unicode="&#xf771;" horiz-adv-x="626" 
d="M540 74h71v-74h-296c-150 0 -271 119 -271 271s121 272 271 272c151 0 272 -120 272 -272c0 -74 -35 -147 -95 -196v-5c12 3 32 4 48 4zM315 74c113 0 191 90 191 197s-78 197 -191 197s-190 -90 -190 -197s77 -197 190 -197z" />
    <glyph glyph-name="question.small" unicode="&#xf73f;" horiz-adv-x="340" 
d="M144 543c85 0 150 -63 150 -147c0 -104 -137 -151 -137 -206v-48h-79v53c0 94 136 133 136 203c0 39 -32 71 -72 71c-31 0 -61 -16 -91 -48v96c27 16 63 26 93 26zM119 95c27 0 50 -23 50 -50c0 -28 -23 -49 -50 -49c-28 0 -51 21 -51 49c0 27 23 50 51 50z" />
    <glyph glyph-name="questiondown.small" unicode="&#xf7bf;" horiz-adv-x="346" 
d="M201 -9c-85 0 -150 63 -150 147c0 104 137 151 137 206v48h79v-53c0 -94 -136 -133 -136 -203c0 -39 32 -71 72 -71c31 0 61 16 91 48v-96c-27 -16 -63 -26 -93 -26zM226 439c-27 0 -50 23 -50 50c0 28 23 49 50 49c28 0 51 -21 51 -49c0 -27 -23 -50 -51 -50z" />
    <glyph glyph-name="r.small" unicode="&#xf772;" horiz-adv-x="472" 
d="M452 0h-101l-146 209h-46v-209h-80v534h152c123 0 184 -72 184 -160c0 -72 -47 -133 -124 -154zM159 460v-174h71c62 0 103 35 103 88c0 52 -42 86 -104 86h-70z" />
    <glyph glyph-name="racute.small" unicode="&#xf695;" horiz-adv-x="472" 
d="M134 604l-32 45l185 137l40 -58zM452 0h-101l-146 209h-46v-209h-80v534h152c123 0 184 -72 184 -160c0 -72 -47 -133 -124 -154zM159 460v-174h71c62 0 103 35 103 88c0 52 -42 86 -104 86h-70z" />
    <glyph glyph-name="rcaron.small" unicode="&#xf696;" horiz-adv-x="472" 
d="M365 781l32 -44l-164 -124l-164 124l32 44l132 -84zM452 0h-101l-146 209h-46v-209h-80v534h152c123 0 184 -72 184 -160c0 -72 -47 -133 -124 -154zM159 460v-174h71c62 0 103 35 103 88c0 52 -42 86 -104 86h-70z" />
    <glyph glyph-name="rcommaaccent.small" unicode="&#xf697;" horiz-adv-x="472" 
d="M452 0h-101l-146 209h-46v-209h-80v534h152c123 0 184 -72 184 -160c0 -72 -47 -133 -124 -154zM159 460v-174h71c62 0 103 35 103 88c0 52 -42 86 -104 86h-70zM211 -271l-47 9c23 65 43 144 54 212l83 10c-25 -88 -58 -172 -90 -231z" />
    <glyph glyph-name="s.small" unicode="&#xf773;" horiz-adv-x="427" 
d="M215 467c-37 0 -77 -25 -77 -67c0 -84 230 -87 230 -243c0 -94 -71 -165 -171 -165c-60 0 -105 24 -138 51v98c29 -36 85 -74 138 -74c48 0 90 35 90 85c0 99 -230 96 -230 244c0 91 71 147 158 147c55 0 101 -21 133 -46v-94c-39 43 -93 64 -133 64z" />
    <glyph glyph-name="sacute.small" unicode="&#xf698;" horiz-adv-x="427" 
d="M135 604l-32 45l185 137l40 -58zM215 467c-37 0 -77 -25 -77 -67c0 -84 230 -87 230 -243c0 -94 -71 -165 -171 -165c-60 0 -105 24 -138 51v98c29 -36 85 -74 138 -74c48 0 90 35 90 85c0 99 -230 96 -230 244c0 91 71 147 158 147c55 0 101 -21 133 -46v-94
c-39 43 -93 64 -133 64z" />
    <glyph glyph-name="scaron.small" unicode="&#xf6fd;" horiz-adv-x="426" 
d="M348 781l32 -44l-164 -124l-164 124l32 44l132 -84zM215 467c-37 0 -77 -25 -77 -67c0 -84 230 -87 230 -243c0 -94 -71 -165 -171 -165c-60 0 -105 24 -138 51v98c29 -36 85 -74 138 -74c48 0 90 35 90 85c0 99 -230 96 -230 244c0 91 71 147 158 147
c55 0 101 -21 133 -46v-94c-39 43 -93 64 -133 64z" />
    <glyph glyph-name="scedilla.small" unicode="&#xf699;" horiz-adv-x="427" 
d="M167 -90h-21l18 85c-44 6 -79 26 -105 48v98c29 -36 85 -74 138 -74c48 0 90 35 90 85c0 99 -230 96 -230 244c0 91 71 147 158 147c55 0 101 -21 133 -46v-94c-39 43 -93 64 -133 64c-37 0 -77 -25 -77 -67c0 -84 230 -87 230 -243c0 -94 -70 -164 -169 -165v-44
c43 -1 77 -38 77 -80c0 -49 -35 -89 -99 -89c-22 0 -43 7 -59 17v49c18 -10 36 -15 48 -15c25 0 52 9 52 40c0 24 -18 40 -51 40z" />
    <glyph glyph-name="scircumflex.small" unicode="&#xf69a;" horiz-adv-x="426" 
d="M215 467c-37 0 -77 -25 -77 -67c0 -84 230 -87 230 -243c0 -94 -71 -165 -171 -165c-60 0 -105 24 -138 51v98c29 -36 85 -74 138 -74c48 0 90 35 90 85c0 99 -230 96 -230 244c0 91 71 147 158 147c55 0 101 -21 133 -46v-94c-39 43 -93 64 -133 64zM379 655l-32 -42
l-132 84l-132 -84l-32 43l164 125z" />
    <glyph glyph-name="scommaaccent.small" unicode="&#xf69b;" horiz-adv-x="427" 
d="M215 467c-37 0 -77 -25 -77 -67c0 -84 230 -87 230 -243c0 -94 -71 -165 -171 -165c-60 0 -105 24 -138 51v98c29 -36 85 -74 138 -74c48 0 90 35 90 85c0 99 -230 96 -230 244c0 91 71 147 158 147c55 0 101 -21 133 -46v-94c-39 43 -93 64 -133 64zM187 -271l-47 9
c23 65 43 144 54 212l83 10c-25 -88 -58 -172 -90 -231z" />
    <glyph glyph-name="seven.small" unicode="&#xe020;" horiz-adv-x="411" 
d="M286 460h-250v74h359v-39l-268 -495h-89z" />
    <glyph glyph-name="six.small" unicode="&#xe01f;" horiz-adv-x="452" 
d="M253 534h96l-134 -186h10c102 0 186 -68 186 -173c0 -97 -75 -183 -185 -183c-106 0 -187 81 -187 181c0 57 29 103 61 148zM226 65c59 0 106 48 106 105c0 62 -48 110 -106 110c-56 0 -107 -47 -107 -108c0 -52 41 -107 107 -107z" />
    <glyph glyph-name="slash.small" unicode="&#xe00c;" horiz-adv-x="331" 
d="M8 -59l240 660l71 -26l-240 -658z" />
    <glyph glyph-name="sterling.small" unicode="&#xe027;" horiz-adv-x="448" 
d="M169 75h243v-75h-377v75h56v110h-56v52h56v130c0 90 71 176 170 176c32 0 65 -10 95 -28v-96c-29 28 -62 49 -95 49c-52 0 -92 -45 -92 -99v-132h187v-52h-187v-110z" />
    <glyph glyph-name="t.small" unicode="&#xf774;" horiz-adv-x="376" 
d="M226 459v-459h-80v459h-130v75h341v-75h-131z" />
    <glyph glyph-name="tbar.small" unicode="&#xf69c;" horiz-adv-x="376" 
d="M357 295v-56h-131v-239h-80v239h-130v56h130v164h-130v75h341v-75h-131v-164h131z" />
    <glyph glyph-name="tcaron.small" unicode="&#xf69d;" horiz-adv-x="376" 
d="M319 781l32 -44l-164 -124l-164 124l32 44l132 -84zM226 459v-459h-80v459h-130v75h341v-75h-131z" />
    <glyph glyph-name="tcommaaccent.small" unicode="&#xf69e;" horiz-adv-x="376" 
d="M226 459v-459h-80v459h-130v75h341v-75h-131zM172 -271l-47 9c23 65 43 144 54 212l83 10c-25 -88 -58 -172 -90 -231z" />
    <glyph glyph-name="thorn.small" unicode="&#xf7fe;" horiz-adv-x="461" 
d="M79 534h80v-88h72c127 0 195 -78 195 -173c0 -121 -92 -174 -203 -174h-64v-99h-80v534zM159 371v-197h71c69 0 115 39 115 99s-47 98 -116 98h-70z" />
    <glyph glyph-name="three.small" unicode="&#xe01c;" horiz-adv-x="400" 
d="M107 251v65h43c69 0 105 32 105 73c0 45 -38 79 -84 79c-40 0 -91 -14 -125 -42v88c39 18 82 29 127 29c92 0 163 -64 163 -152c0 -41 -17 -81 -57 -106c48 -25 73 -76 73 -124c0 -96 -78 -169 -181 -169c-50 0 -87 9 -130 28v83c40 -26 86 -37 128 -37
c55 0 102 40 102 95c0 51 -47 90 -121 90h-43z" />
    <glyph glyph-name="two.small" unicode="&#xe01b;" horiz-adv-x="423" 
d="M156 75h215v-75h-334v58l211 234c22 24 41 56 41 79c0 53 -43 97 -94 97c-50 0 -108 -35 -140 -76v96c38 33 87 55 140 55c93 0 175 -76 175 -171c0 -44 -19 -85 -62 -132z" />
    <glyph glyph-name="u.small" unicode="&#xf775;" horiz-adv-x="543" 
d="M458 192c0 -126 -90 -200 -191 -200c-102 0 -191 74 -191 200v342h79v-336c0 -86 53 -129 112 -129c58 0 112 43 112 129v336h79v-342z" />
    <glyph glyph-name="uacute.small" unicode="&#xf7fa;" horiz-adv-x="543" 
d="M186 604l-32 45l185 137l40 -58zM458 192c0 -126 -90 -200 -191 -200c-102 0 -191 74 -191 200v342h79v-336c0 -86 53 -129 112 -129c58 0 112 43 112 129v336h79v-342z" />
    <glyph glyph-name="ubreve.small" unicode="&#xf69f;" horiz-adv-x="543" 
d="M377 759l54 -19c-28 -85 -104 -113 -163 -113c-60 0 -136 28 -164 113l55 19c19 -65 71 -72 109 -72c39 0 88 7 109 72zM458 192c0 -126 -90 -200 -191 -200c-102 0 -191 74 -191 200v342h79v-336c0 -86 53 -129 112 -129c58 0 112 43 112 129v336h79v-342z" />
    <glyph glyph-name="ucircumflex.small" unicode="&#xf7fb;" horiz-adv-x="543" 
d="M458 192c0 -126 -90 -200 -191 -200c-102 0 -191 74 -191 200v342h79v-336c0 -86 53 -129 112 -129c58 0 112 43 112 129v336h79v-342zM430 655l-32 -42l-132 84l-132 -84l-32 43l164 125z" />
    <glyph glyph-name="udieresis.small" unicode="&#xf7fc;" horiz-adv-x="543" 
d="M458 192c0 -126 -90 -200 -191 -200c-102 0 -191 74 -191 200v342h79v-336c0 -86 53 -129 112 -129c58 0 112 43 112 129v336h79v-342zM233 696c0 -28 -23 -51 -51 -51c-29 0 -52 23 -52 51c0 29 23 52 52 52c28 0 51 -23 51 -52zM353 748c28 0 51 -23 51 -52
c0 -28 -23 -51 -51 -51c-29 0 -52 23 -52 51c0 29 23 52 52 52z" />
    <glyph glyph-name="ugrave.small" unicode="&#xf7f9;" horiz-adv-x="543" 
d="M380 649l-31 -45l-194 124l40 58zM458 192c0 -126 -90 -200 -191 -200c-102 0 -191 74 -191 200v342h79v-336c0 -86 53 -129 112 -129c58 0 112 43 112 129v336h79v-342z" />
    <glyph glyph-name="uhungarumlaut.small" unicode="&#xf6a0;" horiz-adv-x="543" 
d="M458 192c0 -126 -90 -200 -191 -200c-102 0 -191 74 -191 200v342h79v-336c0 -86 53 -129 112 -129c58 0 112 43 112 129v336h79v-342zM245 778l48 -48l-129 -117l-36 38zM388 778l48 -48l-129 -117l-37 38z" />
    <glyph glyph-name="umacron.small" unicode="&#xf6a1;" horiz-adv-x="543" 
d="M140 727h257v-60h-257v60zM458 192c0 -126 -90 -200 -191 -200c-102 0 -191 74 -191 200v342h79v-336c0 -86 53 -129 112 -129c58 0 112 43 112 129v336h79v-342z" />
    <glyph glyph-name="uni00A0" unicode="&#xa0;" horiz-adv-x="0" 
 />
    <glyph glyph-name="uogonek.small" unicode="&#xf6a2;" horiz-adv-x="543" 
d="M458 192c0 -100 -57 -168 -130 -191c-49 -19 -105 -72 -105 -113c0 -24 20 -37 41 -37c14 0 33 5 47 16v-59c-16 -7 -34 -12 -54 -12c-55 0 -93 37 -93 85c0 42 31 84 72 113c-88 13 -160 85 -160 198v342h79v-336c0 -86 53 -129 112 -129c58 0 112 43 112 129v336h79
v-342z" />
    <glyph glyph-name="uring.small" unicode="&#xf6a3;" horiz-adv-x="543" 
d="M174 696c0 52 43 95 95 95c53 0 96 -43 96 -95s-43 -95 -96 -95c-52 0 -95 43 -95 95zM220 696c0 -27 23 -49 49 -49c28 0 50 22 50 49s-22 49 -50 49c-26 0 -49 -22 -49 -49zM458 192c0 -126 -90 -200 -191 -200c-102 0 -191 74 -191 200v342h79v-336
c0 -86 53 -129 112 -129c58 0 112 43 112 129v336h79v-342z" />
    <glyph glyph-name="utilde.small" unicode="&#xf6a4;" horiz-adv-x="543" 
d="M322 647c-45 0 -81 37 -121 37c-23 0 -38 -12 -52 -33l-43 31c25 41 62 62 103 62s91 -38 122 -38c18 0 37 13 52 35l44 -32c-28 -40 -61 -62 -105 -62zM458 192c0 -126 -90 -200 -191 -200c-102 0 -191 74 -191 200v342h79v-336c0 -86 53 -129 112 -129
c58 0 112 43 112 129v336h79v-342z" />
    <glyph glyph-name="v.small" unicode="&#xf776;" horiz-adv-x="515" 
d="M11 534h87l123 -309c12 -31 25 -75 32 -99h5c7 24 21 68 33 99l122 309h87l-218 -534h-53z" />
    <glyph glyph-name="w.small" unicode="&#xf777;" horiz-adv-x="703" 
d="M324 287l-117 -287h-78l-93 534h82l51 -300c3 -20 9 -70 12 -104h5c8 28 22 76 33 104l108 274h43l108 -274c11 -28 26 -76 34 -104h4c3 34 10 84 13 104l50 300h82l-93 -534h-77l-118 287c-9 22 -17 52 -22 68h-5c-4 -16 -13 -46 -22 -68z" />
    <glyph glyph-name="wacute.small" unicode="&#xf6a5;" horiz-adv-x="703" 
d="M268 604l-32 45l185 137l40 -58zM324 287l-117 -287h-78l-93 534h82l51 -300c3 -20 9 -70 12 -104h5c8 28 22 76 33 104l108 274h43l108 -274c11 -28 26 -76 34 -104h4c3 34 10 84 13 104l50 300h82l-93 -534h-77l-118 287c-9 22 -17 52 -22 68h-5
c-4 -16 -13 -46 -22 -68z" />
    <glyph glyph-name="wcircumflex.small" unicode="&#xf6a6;" horiz-adv-x="703" 
d="M324 287l-117 -287h-78l-93 534h82l51 -300c3 -20 9 -70 12 -104h5c8 28 22 76 33 104l108 274h43l108 -274c11 -28 26 -76 34 -104h4c3 34 10 84 13 104l50 300h82l-93 -534h-77l-118 287c-9 22 -17 52 -22 68h-5c-4 -16 -13 -46 -22 -68zM513 655l-32 -42l-132 84
l-132 -84l-32 43l164 125z" />
    <glyph glyph-name="wdieresis.small" unicode="&#xf6a7;" horiz-adv-x="703" 
d="M324 287l-117 -287h-78l-93 534h82l51 -300c3 -20 9 -70 12 -104h5c8 28 22 76 33 104l108 274h43l108 -274c11 -28 26 -76 34 -104h4c3 34 10 84 13 104l50 300h82l-93 -534h-77l-118 287c-9 22 -17 52 -22 68h-5c-4 -16 -13 -46 -22 -68zM314 696
c0 -28 -23 -51 -51 -51c-29 0 -52 23 -52 51c0 29 23 52 52 52c28 0 51 -23 51 -52zM434 748c28 0 51 -23 51 -52c0 -28 -23 -51 -51 -51c-29 0 -52 23 -52 51c0 29 23 52 52 52z" />
    <glyph glyph-name="wgrave.small" unicode="&#xf6a8;" horiz-adv-x="703" 
d="M461 649l-31 -45l-194 124l40 58zM324 287l-117 -287h-78l-93 534h82l51 -300c3 -20 9 -70 12 -104h5c8 28 22 76 33 104l108 274h43l108 -274c11 -28 26 -76 34 -104h4c3 34 10 84 13 104l50 300h82l-93 -534h-77l-118 287c-9 22 -17 52 -22 68h-5
c-4 -16 -13 -46 -22 -68z" />
    <glyph glyph-name="x.small" unicode="&#xf778;" horiz-adv-x="478" 
d="M26 534h96l86 -135c11 -18 20 -38 26 -52h6c6 14 16 35 25 50l86 137h97l-163 -255l178 -279h-96l-101 160c-10 16 -21 37 -26 51h-6c-6 -14 -16 -35 -26 -51l-102 -160h-95l179 279z" />
    <glyph glyph-name="y.small" unicode="&#xf779;" horiz-adv-x="463" 
d="M359 534h90l-179 -313v-221h-80v221l-179 313h90l101 -174c9 -16 20 -40 26 -53h6c4 13 14 37 24 53z" />
    <glyph glyph-name="yacute.small" unicode="&#xf7fd;" horiz-adv-x="463" 
d="M148 604l-32 45l185 137l40 -58zM359 534h90l-179 -313v-221h-80v221l-179 313h90l101 -174c9 -16 20 -40 26 -53h6c4 13 14 37 24 53z" />
    <glyph glyph-name="ycircumflex.small" unicode="&#xf6a9;" horiz-adv-x="463" 
d="M359 534h90l-179 -313v-221h-80v221l-179 313h90l101 -174c9 -16 20 -40 26 -53h6c4 13 14 37 24 53zM394 655l-32 -42l-132 84l-132 -84l-32 43l164 125z" />
    <glyph glyph-name="ydieresis.small" unicode="&#xf7ff;" horiz-adv-x="463" 
d="M359 534h90l-179 -313v-221h-80v221l-179 313h90l101 -174c9 -16 20 -40 26 -53h6c4 13 14 37 24 53zM196 696c0 -28 -23 -51 -51 -51c-29 0 -52 23 -52 51c0 29 23 52 52 52c28 0 51 -23 51 -52zM316 748c28 0 51 -23 51 -52c0 -28 -23 -51 -51 -51c-29 0 -52 23 -52 51
c0 29 23 52 52 52z" />
    <glyph glyph-name="yen.small" unicode="&#xe029;" horiz-adv-x="463" 
d="M449 534l-105 -185h83v-52h-113l-35 -60h148v-52h-157v-185h-80v185h-156v52h147l-34 60h-113v52h83l-106 185h90l101 -174c9 -16 20 -40 26 -53h6c4 13 14 37 24 53l101 174h90z" />
    <glyph glyph-name="ygrave.small" unicode="&#xf6aa;" horiz-adv-x="463" 
d="M342 649l-31 -45l-194 124l40 58zM359 534h90l-179 -313v-221h-80v221l-179 313h90l101 -174c9 -16 20 -40 26 -53h6c4 13 14 37 24 53z" />
    <glyph glyph-name="z.small" unicode="&#xf77a;" horiz-adv-x="444" 
d="M43 534h375v-51l-258 -369c-9 -13 -22 -28 -30 -38v-5c13 1 36 4 57 4h232v-75h-399v51l261 371c9 13 20 26 28 35v6c-17 -1 -43 -3 -63 -3h-203v74z" />
    <glyph glyph-name="zacute.small" unicode="&#xf6ab;" horiz-adv-x="444" 
d="M134 604l-32 45l185 137l40 -58zM43 534h375v-51l-258 -369c-9 -13 -22 -28 -30 -38v-5c13 1 36 4 57 4h232v-75h-399v51l261 371c9 13 20 26 28 35v6c-17 -1 -43 -3 -63 -3h-203v74z" />
    <glyph glyph-name="zcaron.small" unicode="&#xf6ff;" horiz-adv-x="444" 
d="M359 781l32 -44l-164 -124l-164 124l32 44l132 -84zM43 534h375v-51l-258 -369c-9 -13 -22 -28 -30 -38v-5c13 1 36 4 57 4h232v-75h-399v51l261 371c9 13 20 26 28 35v6c-17 -1 -43 -3 -63 -3h-203v74z" />
    <glyph glyph-name="zdotaccent.small" unicode="&#xf6ac;" horiz-adv-x="444" 
d="M43 534h375v-51l-258 -369c-9 -13 -22 -28 -30 -38v-5c13 1 36 4 57 4h232v-75h-399v51l261 371c9 13 20 26 28 35v6c-17 -1 -43 -3 -63 -3h-203v74zM272 696c0 -28 -23 -51 -52 -51c-28 0 -52 23 -52 51c0 29 24 52 52 52c29 0 52 -23 52 -52z" />
    <glyph glyph-name="zero.small" unicode="&#xe019;" horiz-adv-x="486" 
d="M242 543c109 0 188 -65 188 -250v-50c0 -187 -79 -251 -188 -251c-110 0 -189 64 -189 251v50c0 185 79 250 189 250zM242 66c62 0 106 44 106 181v41c0 138 -44 180 -106 180c-63 0 -108 -42 -108 -180v-41c0 -137 45 -181 108 -181z" />
    <glyph glyph-name="aeacute" unicode="&#x1fd;" horiz-adv-x="760" 
d="M724 233c0 -7 -1 -15 -1 -26h-314c7 -83 59 -146 138 -146c50 0 100 14 141 38v-82c-43 -17 -94 -28 -142 -28c-73 0 -135 34 -173 89c-34 -51 -97 -89 -183 -89c-114 0 -156 57 -156 141c0 80 69 140 186 140h105v20c0 60 -63 92 -113 92c-56 0 -90 -13 -124 -31v74
c41 17 81 27 124 27c73 0 134 -28 164 -77c35 46 90 77 157 77c103 0 191 -76 191 -219zM325 173v34h-87c-50 0 -122 -4 -122 -76c0 -47 25 -72 87 -72c71 0 122 52 122 114zM412 270h233c-5 76 -53 113 -111 113c-65 0 -109 -49 -122 -113zM450 512l-32 45l185 137l40 -58z
" />
    <glyph glyph-name="AEacute" unicode="&#x1fc;" horiz-adv-x="962" 
d="M895 634h-362l39 -218h313v-80h-299l46 -258h263v-78h-338l-29 166h-322l-96 -166h-97l426 712h456v-78zM253 244h261l-60 343h-7c-6 -12 -17 -36 -31 -61zM586 776l-32 45l185 137l40 -58z" />
    <glyph glyph-name="oslashacute" unicode="&#x1ff;" horiz-adv-x="518" 
d="M184 512l-32 45l185 137l40 -58zM36 218c0 137 99 234 223 234c48 0 91 -15 127 -40l56 67l39 -33l-57 -68c36 -41 58 -97 58 -158c0 -126 -93 -231 -223 -231c-50 0 -93 15 -129 41l-55 -66l-40 32l57 68c-35 41 -56 95 -56 154zM399 221c0 37 -11 69 -28 95l-191 -227
c22 -17 49 -26 79 -26c78 0 140 65 140 158zM118 219c0 -35 10 -67 27 -93l190 226c-22 17 -49 26 -76 26c-75 0 -141 -64 -141 -159z" />
    <glyph glyph-name="Oslashacute" unicode="&#x1fe;" horiz-adv-x="819" 
d="M328 776l-32 45l185 137l40 -58zM752 725l-89 -106c66 -67 107 -159 107 -263c0 -206 -161 -367 -361 -367c-81 0 -155 26 -215 71l-88 -106l-40 34l89 106c-66 66 -107 158 -107 262c0 206 161 368 361 368c80 0 155 -26 215 -71l88 106zM132 356c0 -77 27 -149 74 -201
l367 437c-45 34 -101 53 -164 53c-165 0 -277 -131 -277 -289zM685 356c0 77 -26 148 -73 201l-368 -437c45 -33 101 -53 165 -53c164 0 276 132 276 289z" />
    <glyph glyph-name="arrowleft" unicode="&#x2190;" horiz-adv-x="826" 
d="M529 712l-315 -315h555v-82h-555l315 -315h-116l-356 356l356 356h116z" />
    <glyph glyph-name="arrowup" unicode="&#x2191;" horiz-adv-x="826" 
d="M769 240l-315 315v-555h-82v555l-315 -315v116l356 356l356 -356v-116z" />
    <glyph glyph-name="arrowright" unicode="&#x2192;" horiz-adv-x="826" 
d="M297 0l315 315h-555v82h555l-315 315h116l356 -356l-356 -356h-116z" />
    <glyph glyph-name="arrowdown" unicode="&#x2193;" horiz-adv-x="826" 
d="M57 472l315 -315v555h82v-555l315 315v-116l-356 -356l-356 356v116z" />
    <glyph glyph-name="ampersand.01" unicode="&#xe37a;" horiz-adv-x="826" 
d="M372 0v315h-315v82h315v315h82v-315h315v-82h-315v-315h-82z" />
    <glyph glyph-name="f_b" unicode="&#xe381;" horiz-adv-x="864" 
d="M828 220c0 -120 -77 -231 -212 -231c-82 0 -132 49 -156 80l-5 -69h-74v683c-28 8 -75 18 -118 18c-52 0 -95 -45 -95 -99v-161h141v-66h-141v-375h-81v375h-74v66h74v161c0 95 79 173 176 173c83 0 168 -28 199 -39v-359c49 64 108 75 154 75c137 0 212 -112 212 -232z
M745 220c0 91 -53 158 -138 158c-89 0 -145 -76 -145 -162v-63c6 -9 60 -90 145 -90s138 65 138 157z" />
    <glyph glyph-name="f_h" unicode="&#xe386;" horiz-adv-x="823" 
d="M13 441h74v161c0 95 79 173 176 173c83 0 168 -28 199 -39v-353c21 29 66 69 128 69c118 0 172 -77 172 -197v-255h-81v248c0 99 -46 130 -105 130c-67 0 -114 -74 -114 -74v-304h-81v683c-28 8 -75 18 -118 18c-52 0 -95 -45 -95 -99v-161h141v-66h-141v-375h-81v375
h-74v66z" />
    <glyph glyph-name="f_j" unicode="&#xe380;" horiz-adv-x="522" 
d="M421 743v-79c-50 20 -108 37 -158 37c-52 0 -95 -45 -95 -99v-161h294v-503c0 -87 -51 -163 -153 -163c-14 0 -27 2 -44 6v76c21 -7 30 -8 43 -8c47 0 73 41 73 83v443h-213v-375h-81v375h-74v66h74v161c0 95 79 173 176 173c52 0 109 -11 158 -32z" />
    <glyph glyph-name="f_k" unicode="&#xe388;" horiz-adv-x="757" 
d="M13 441h74v161c0 95 79 173 176 173c83 0 168 -28 199 -39v-426c0 -19 -1 -53 -4 -72h5c8 11 20 32 37 50l140 153h99l-185 -209l192 -232h-101l-144 179l-39 -43v-136h-81v683c-28 8 -75 18 -118 18c-52 0 -95 -45 -95 -99v-161h141v-66h-141v-375h-81v375h-74v66z" />
    <glyph glyph-name="f_f_b" unicode="&#xe382;" horiz-adv-x="1158" 
d="M1122 220c0 -120 -77 -231 -212 -231c-82 0 -132 49 -156 80l-5 -69h-74v683c-28 8 -75 18 -118 18c-52 0 -95 -45 -95 -99v-161h141v-66h-141v-375h-81v375h-213v-375h-81v375h-74v66h74v150c0 95 78 173 175 173c18 0 23 -2 42 -6v-76c-18 5 -24 8 -42 8
c-52 0 -94 -45 -94 -99v-150h213v161c0 95 79 173 176 173c83 0 168 -28 199 -39v-359c49 64 108 75 154 75c137 0 212 -112 212 -232zM1039 220c0 91 -53 158 -138 158c-89 0 -145 -76 -145 -162v-63c6 -9 60 -90 145 -90s138 65 138 157z" />
    <glyph glyph-name="f_f_h" unicode="&#xe383;" horiz-adv-x="1117" 
d="M13 441h74v150c0 95 78 173 175 173c18 0 23 -2 42 -6v-76c-18 5 -24 8 -42 8c-52 0 -94 -45 -94 -99v-150h213v161c0 95 79 173 176 173c83 0 168 -28 199 -39v-353c21 29 66 69 128 69c118 0 172 -77 172 -197v-255h-81v248c0 99 -46 130 -105 130
c-67 0 -114 -74 -114 -74v-304h-81v683c-28 8 -75 18 -118 18c-52 0 -95 -45 -95 -99v-161h141v-66h-141v-375h-81v375h-213v-375h-81v375h-74v66z" />
    <glyph glyph-name="f_f_j" unicode="&#xe384;" horiz-adv-x="816" 
d="M559 -219v76c21 -7 30 -8 43 -8c47 0 73 41 73 83v443h-213v-375h-81v375h-213v-375h-81v375h-74v66h74v150c0 95 78 173 175 173c18 0 36 -2 55 -6v-76c-18 5 -37 8 -55 8c-52 0 -94 -45 -94 -99v-150h213v161c0 95 79 173 176 173c52 0 109 -11 158 -32v-79
c-50 20 -108 37 -158 37c-52 0 -95 -45 -95 -99v-161h294v-503c0 -87 -51 -163 -153 -163c-14 0 -27 2 -44 6z" />
    <glyph glyph-name="f_f_k" unicode="&#xe385;" horiz-adv-x="1051" 
d="M675 683c-28 8 -75 18 -118 18c-52 0 -95 -45 -95 -99v-161h141v-66h-141v-375h-81v375h-213v-375h-81v375h-74v66h74v150c0 95 78 173 175 173c18 0 23 -2 42 -6v-76c-18 5 -24 8 -42 8c-52 0 -94 -45 -94 -99v-150h213v161c0 95 79 173 176 173c83 0 168 -28 199 -39
v-426c0 -19 -1 -53 -4 -72h5c8 11 20 32 37 50l140 153h99l-185 -209l192 -232h-101l-144 179l-39 -43v-136h-81v683z" />
    <glyph glyph-name="parenleft.uc" unicode="&#xe440;" horiz-adv-x="307" 
d="M274 800c-62 -98 -137 -230 -137 -443s75 -344 137 -443h-78c-61 105 -139 234 -139 443s78 338 139 443h78z" />
    <glyph glyph-name="parenright.uc" unicode="&#xe441;" horiz-adv-x="307" 
d="M33 800h78c61 -105 139 -234 139 -443s-78 -338 -139 -443h-78c62 99 137 230 137 443s-75 345 -137 443z" />
    <glyph glyph-name="hyphen.uc" unicode="&#xe442;" horiz-adv-x="311" 
d="M37 392h237v-73h-237v73z" />
    <glyph glyph-name="bracketleft.uc" unicode="&#xe443;" horiz-adv-x="296" 
d="M269 753h-106v-787h106v-76h-187v940h187v-77z" />
    <glyph glyph-name="bracketright.uc" unicode="&#xe444;" horiz-adv-x="297" 
d="M134 753h-107v77h188v-940h-188v76h107v787z" />
    <glyph glyph-name="braceleft.uc" unicode="&#xe460;" horiz-adv-x="309" 
d="M215 830h62v-73h-61c-33 0 -58 -28 -58 -71c0 -58 52 -148 52 -200c0 -62 -28 -100 -61 -125c33 -25 61 -65 61 -125c0 -53 -52 -143 -52 -201c0 -44 26 -70 58 -70h61v-73h-62c-78 0 -139 61 -139 143c0 61 53 147 53 201c0 56 -40 88 -97 88v73c57 0 97 33 97 88
c0 54 -53 139 -53 201c0 81 60 144 139 144z" />
    <glyph glyph-name="bar.uc" unicode="&#xe461;" horiz-adv-x="248" 
d="M161 840v-980h-75v980h75z" />
    <glyph glyph-name="braceright.uc" unicode="&#xe462;" horiz-adv-x="309" 
d="M32 830h62c79 0 139 -63 139 -144c0 -62 -53 -147 -53 -201c0 -55 40 -88 97 -88v-73c-57 0 -97 -32 -97 -88c0 -54 53 -140 53 -201c0 -82 -61 -143 -139 -143h-62v73h61c32 0 58 26 58 70c0 58 -52 148 -52 201c0 60 28 100 61 125c-33 25 -61 63 -61 125
c0 52 52 142 52 200c0 43 -25 71 -58 71h-61v73z" />
    <glyph glyph-name="slash.uc" unicode="&#xe463;" horiz-adv-x="430" 
d="M339 812l72 -26l-322 -886l-72 27z" />
    <glyph glyph-name="questiondown.uc" unicode="&#xe464;" horiz-adv-x="480" 
d="M215 -6c-110 0 -194 75 -194 189c0 151 190 199 190 285v62h81v-69c0 -126 -188 -168 -188 -280c0 -66 50 -110 113 -110c45 0 85 19 111 46v-94c-30 -17 -73 -29 -113 -29zM250 613c-31 0 -55 25 -55 56s24 55 55 55s56 -24 56 -55s-25 -56 -56 -56z" />
    <glyph glyph-name="exclamdown.uc" unicode="&#xe465;" horiz-adv-x="254" 
d="M85 -6v530h81v-530h-81zM126 601c-30 0 -55 25 -55 56s25 55 55 55s55 -24 55 -55s-25 -56 -55 -56z" />
    <glyph glyph-name="backslash.uc" unicode="&#xe466;" horiz-adv-x="430" 
d="M89 812l322 -885l-72 -27l-322 886z" />
    <glyph glyph-name="endash.uc" unicode="&#xe470;" horiz-adv-x="518" 
d="M37 392h443v-73h-443v73z" />
    <glyph glyph-name="emdash.uc" unicode="&#xe471;" horiz-adv-x="987" 
d="M37 392h912v-73h-912v73z" />
    <glyph glyph-name="guilsinglleft.uc" unicode="&#xe472;" horiz-adv-x="290" 
d="M255 549l-131 -193l131 -192h-90l-130 192l130 193h90z" />
    <glyph glyph-name="guilsinglright.uc" unicode="&#xe473;" horiz-adv-x="289" 
d="M166 356l-131 193h89l130 -193l-130 -192h-89z" />
    <glyph glyph-name="guillemotleft.uc" unicode="&#xe474;" horiz-adv-x="484" 
d="M255 549l-130 -193l130 -192h-89l-130 192l130 193h89zM448 549l-130 -193l130 -192h-89l-131 192l131 193h89z" />
    <glyph glyph-name="guillemotright.uc" unicode="&#xe475;" horiz-adv-x="483" 
d="M358 356l-130 193h88l131 -193l-131 -192h-88zM165 356l-131 193h90l130 -193l-130 -192h-90z" />
    <glyph glyph-name="uni0200.small" unicode="&#xe540;" horiz-adv-x="549" 
d="M298 534l237 -534h-87l-51 120h-248l-51 -120h-87l238 534h49zM180 194h186l-69 169c-8 20 -17 49 -22 66h-4c-4 -17 -13 -46 -21 -66zM236 730l48 48l118 -127l-37 -38zM94 730l48 48l117 -127l-36 -38z" />
    <glyph glyph-name="uni0202.small" unicode="&#xe541;" horiz-adv-x="549" 
d="M298 534l237 -534h-87l-51 120h-248l-51 -120h-87l238 534h49zM180 194h186l-69 169c-8 20 -17 49 -22 66h-4c-4 -17 -13 -46 -21 -66zM437 655l-32 -42l-132 84l-132 -84l-32 43l164 125z" />
    <glyph glyph-name="uni0204.small" unicode="&#xe542;" horiz-adv-x="452" 
d="M79 0v534h306v-74h-225v-141h219v-76h-219v-168h225v-75h-306zM189 730l48 48l118 -127l-37 -38zM47 730l48 48l117 -127l-36 -38z" />
    <glyph glyph-name="uni0206.small" unicode="&#xe543;" horiz-adv-x="452" 
d="M79 0v534h306v-74h-225v-141h219v-76h-219v-168h225v-75h-306zM397 655l-32 -42l-132 84l-132 -84l-32 43l164 125z" />
    <glyph glyph-name="uni0208.small" unicode="&#xe544;" horiz-adv-x="248" 
d="M160 534v-534h-81v534h81zM67 730l48 48l118 -127l-37 -38zM-75 730l48 48l117 -127l-36 -38z" />
    <glyph glyph-name="uni020A.small" unicode="&#xe545;" horiz-adv-x="248" 
d="M160 534v-534h-81v534h81zM283 655l-32 -42l-132 84l-132 -84l-32 43l164 125z" />
    <glyph glyph-name="uni020C.small" unicode="&#xe546;" horiz-adv-x="637" 
d="M315 543c151 0 272 -122 272 -276c0 -155 -121 -275 -272 -275c-150 0 -271 120 -271 275c0 154 121 276 271 276zM315 67c113 0 191 91 191 200s-78 200 -191 200s-190 -91 -190 -200s77 -200 190 -200zM250 730l48 48l118 -127l-37 -38zM108 730l48 48l117 -127
l-36 -38z" />
    <glyph glyph-name="uni020E.small" unicode="&#xe550;" horiz-adv-x="637" 
d="M315 543c151 0 272 -122 272 -276c0 -155 -121 -275 -272 -275c-150 0 -271 120 -271 275c0 154 121 276 271 276zM315 67c113 0 191 91 191 200s-78 200 -191 200s-190 -91 -190 -200s77 -200 190 -200zM480 655l-32 -42l-132 84l-132 -84l-32 43l164 125z" />
    <glyph glyph-name="uni0210.small" unicode="&#xe551;" horiz-adv-x="472" 
d="M452 0h-101l-146 209h-46v-209h-80v534h152c123 0 184 -72 184 -160c0 -72 -47 -133 -124 -154zM159 460v-174h71c62 0 103 35 103 88c0 52 -42 86 -104 86h-70zM172 730l48 48l118 -127l-37 -38zM30 730l48 48l117 -127l-36 -38z" />
    <glyph glyph-name="uni0212.small" unicode="&#xe552;" horiz-adv-x="472" 
d="M452 0h-101l-146 209h-46v-209h-80v534h152c123 0 184 -72 184 -160c0 -72 -47 -133 -124 -154zM159 460v-174h71c62 0 103 35 103 88c0 52 -42 86 -104 86h-70zM393 655l-32 -42l-132 84l-132 -84l-32 43l164 125z" />
    <glyph glyph-name="uni0214.small" unicode="&#xe553;" horiz-adv-x="543" 
d="M458 192c0 -126 -90 -200 -191 -200c-102 0 -191 74 -191 200v342h79v-336c0 -86 53 -129 112 -129c58 0 112 43 112 129v336h79v-342zM233 730l48 48l118 -127l-37 -38zM91 730l48 48l117 -127l-36 -38z" />
    <glyph glyph-name="uni0216.small" unicode="&#xe554;" horiz-adv-x="543" 
d="M458 192c0 -126 -90 -200 -191 -200c-102 0 -191 74 -191 200v342h79v-336c0 -86 53 -129 112 -129c58 0 112 43 112 129v336h79v-342zM430 655l-32 -42l-132 84l-132 -84l-32 43l164 125z" />
    <glyph glyph-name="uni021A.small" unicode="&#xe555;" horiz-adv-x="376" 
d="M226 459v-459h-80v459h-130v75h341v-75h-131zM172 -271l-47 9c23 65 43 144 54 212l83 10c-25 -88 -58 -172 -90 -231z" />
    <glyph glyph-name="quotedbl.small" unicode="&#xe640;" horiz-adv-x="379" 
d="M54 623h95l-20 -290h-55zM224 623h94l-20 -290h-54z" />
    <glyph glyph-name="quotesingle.small" unicode="&#xe641;" horiz-adv-x="209" 
d="M54 623h95l-20 -290h-55z" />
    <glyph glyph-name="quoteleft.small" unicode="&#xe642;" horiz-adv-x="237" 
d="M151 687l51 -9c-29 -83 -55 -185 -69 -274l-98 -12c31 109 73 218 116 295z" />
    <glyph glyph-name="quoteright.small" unicode="&#xe643;" horiz-adv-x="237" 
d="M35 401c29 83 55 185 69 274l98 12c-31 -109 -73 -218 -116 -295z" />
    <glyph glyph-name="quotedblleft.small" unicode="&#xe644;" horiz-adv-x="417" 
d="M151 687l51 -9c-29 -83 -55 -185 -69 -274l-98 -12c31 109 73 218 116 295zM331 687l51 -9c-29 -83 -55 -185 -69 -274l-98 -12c31 109 73 218 116 295z" />
    <glyph glyph-name="quotedblright.small" unicode="&#xe645;" horiz-adv-x="402" 
d="M35 401c29 83 55 185 69 274l98 12c-31 -109 -73 -218 -116 -295zM200 401c29 83 55 185 69 274l98 12c-31 -109 -73 -218 -116 -295z" />
    <glyph glyph-name="IJ" unicode="&#x132;" horiz-adv-x="672" 
d="M165 712v-712h-82v712h82zM506 712h82v-510c0 -135 -87 -213 -198 -213c-34 0 -70 11 -95 28v93c28 -23 60 -38 100 -38c59 0 111 48 111 131v509z" />
    <glyph glyph-name="ij" unicode="&#x133;" horiz-adv-x="411" 
d="M142 0h-81v441h81v-441zM157 584c0 -32 -25 -56 -55 -56s-56 24 -56 56c0 30 26 54 56 54s55 -24 55 -54zM154 -219v76c21 -7 30 -8 43 -8c47 0 73 41 73 83v509h81v-503c0 -87 -51 -163 -153 -163c-14 0 -27 2 -44 6zM366 584c0 -32 -25 -56 -55 -56
c-31 0 -56 24 -56 56c0 30 25 54 56 54c30 0 55 -24 55 -54z" />
    <glyph glyph-name="zero.taboldstyle" unicode="&#xf643;" 
d="M438 268c0 147 -61 200 -155 200c-95 0 -156 -53 -156 -200c0 -148 61 -201 156 -201c94 0 155 53 155 201zM523 268c0 -190 -97 -279 -240 -279c-144 0 -240 89 -240 279c0 189 96 278 240 278c143 0 240 -89 240 -278z" />
    <glyph glyph-name="one.taboldstyle" unicode="&#xf644;" 
d="M323 534h69v-534h-82v418l-197 -165v104z" />
    <glyph glyph-name="two.taboldstyle" unicode="&#xf645;" 
d="M494 0h-433v69l270 176c46 30 78 64 78 109c0 72 -65 114 -143 114c-75 0 -127 -35 -179 -96v105c47 42 108 69 177 69c123 0 229 -79 229 -190c0 -62 -32 -112 -99 -159l-171 -119h271v-78z" />
    <glyph glyph-name="three.taboldstyle" unicode="&#xf646;" 
d="M172 163v71h63c89 0 144 50 144 110c0 70 -58 121 -128 121c-66 0 -111 -18 -159 -46v89c47 22 99 35 159 35c121 0 212 -86 212 -200c0 -57 -29 -111 -86 -142c70 -33 109 -99 109 -169c0 -126 -103 -224 -237 -224c-61 0 -115 11 -164 31v88c41 -23 94 -41 164 -41
c86 0 153 61 153 144c0 78 -70 133 -167 133h-63z" />
    <glyph glyph-name="four.taboldstyle" unicode="&#xf647;" 
d="M373 78v174c0 44 2 107 3 137l-7 1c-16 -27 -49 -74 -74 -108l-168 -204h246zM456 -178h-83v178h-347v73l362 461h68v-456h81v-78h-81v-178z" />
    <glyph glyph-name="five.taboldstyle" unicode="&#xf648;" 
d="M238 -189c-67 0 -118 12 -170 34v89c41 -23 91 -45 170 -45c88 0 164 72 164 162c0 93 -62 163 -154 163c-33 0 -85 -7 -140 -42l-41 21l47 341h341v-78h-270l-24 -177c26 9 62 14 88 14c136 0 237 -107 237 -239s-113 -243 -248 -243z" />
    <glyph glyph-name="six.taboldstyle" unicode="&#xf649;" 
d="M330 712h97l-187 -259c19 7 42 10 61 10c127 0 225 -110 225 -234c0 -126 -99 -240 -243 -240c-137 0 -243 108 -243 238c0 76 39 139 82 198zM283 66c88 0 158 70 158 157c0 92 -68 162 -155 162c-82 0 -161 -68 -161 -160c0 -77 62 -159 158 -159z" />
    <glyph glyph-name="seven.taboldstyle" unicode="&#xf64a;" 
d="M411 456h-353v78h468v-39l-364 -673h-93z" />
    <glyph glyph-name="eight.taboldstyle" unicode="&#xf64b;" 
d="M56 205c0 63 37 148 122 181c-67 33 -95 101 -95 145c0 113 92 193 200 193c110 0 201 -81 201 -193c0 -40 -27 -111 -95 -145c86 -34 122 -118 122 -181c0 -123 -100 -216 -228 -216c-127 0 -227 93 -227 216zM140 206c0 -78 71 -140 144 -140c67 0 142 57 142 140
c0 85 -75 137 -143 137c-70 0 -143 -54 -143 -137zM166 533c0 -55 54 -111 117 -111s118 54 118 111c0 63 -53 116 -117 116c-67 0 -118 -55 -118 -116z" />
    <glyph glyph-name="nine.taboldstyle" unicode="&#xf64c;" 
d="M236 -181h-97l187 260c-19 -8 -43 -10 -62 -10c-125 0 -224 110 -224 233c0 126 99 241 243 241c138 0 243 -108 243 -239c0 -76 -40 -139 -82 -197zM283 465c-88 0 -158 -70 -158 -157c0 -91 68 -162 155 -162c82 0 161 68 161 160c0 77 -62 159 -158 159z" />
    <glyph glyph-name="zerooldstyle" unicode="&#xf730;" horiz-adv-x="594" 
d="M452 268c0 147 -61 200 -155 200c-95 0 -156 -53 -156 -200c0 -148 61 -201 156 -201c94 0 155 53 155 201zM537 268c0 -190 -97 -279 -240 -279c-144 0 -240 89 -240 279c0 189 96 278 240 278c143 0 240 -89 240 -278z" />
    <glyph glyph-name="twooldstyle" unicode="&#xf732;" horiz-adv-x="549" 
d="M489 0h-433v69l270 176c46 30 78 64 78 109c0 72 -65 114 -143 114c-75 0 -127 -35 -179 -96v105c47 42 108 69 177 69c123 0 229 -79 229 -190c0 -62 -32 -112 -99 -159l-171 -119h271v-78z" />
    <glyph glyph-name="threeoldstyle" unicode="&#xf733;" horiz-adv-x="493" 
d="M127 163v71h63c89 0 144 50 144 110c0 70 -58 121 -128 121c-66 0 -111 -18 -159 -46v89c47 22 99 35 159 35c121 0 212 -86 212 -200c0 -57 -29 -111 -86 -142c70 -33 109 -99 109 -169c0 -126 -103 -224 -237 -224c-61 0 -115 11 -164 31v88c41 -23 94 -41 164 -41
c86 0 153 61 153 144c0 78 -70 133 -167 133h-63z" />
    <glyph glyph-name="fouroldstyle" unicode="&#xf734;" horiz-adv-x="579" 
d="M381 78v174c0 44 2 107 3 137l-7 1c-16 -27 -49 -74 -74 -108l-168 -204h246zM464 -178h-83v178h-347v73l362 461h68v-456h81v-78h-81v-178z" />
    <glyph glyph-name="fiveoldstyle" unicode="&#xf735;" horiz-adv-x="540" 
d="M231 -189c-67 0 -118 12 -170 34v89c41 -23 91 -45 170 -45c88 0 164 72 164 162c0 93 -62 163 -154 163c-33 0 -85 -7 -140 -42l-41 21l47 341h341v-78h-270l-24 -177c26 9 62 14 88 14c136 0 237 -107 237 -239s-113 -243 -248 -243z" />
    <glyph glyph-name="sixoldstyle" unicode="&#xf736;" horiz-adv-x="583" 
d="M338 712h97l-187 -259c19 7 42 10 61 10c127 0 225 -110 225 -234c0 -126 -99 -240 -243 -240c-137 0 -243 108 -243 238c0 76 39 139 82 198zM291 66c88 0 158 70 158 157c0 92 -68 162 -155 162c-82 0 -161 -68 -161 -160c0 -77 62 -159 158 -159z" />
    <glyph glyph-name="sevenoldstyle" unicode="&#xf737;" horiz-adv-x="511" 
d="M382 456h-353v78h468v-39l-364 -673h-93z" />
    <glyph glyph-name="eightoldstyle" unicode="&#xf738;" horiz-adv-x="570" 
d="M57 205c0 63 37 148 122 181c-67 33 -95 101 -95 145c0 113 92 193 200 193c110 0 201 -81 201 -193c0 -40 -27 -111 -95 -145c86 -34 122 -118 122 -181c0 -123 -100 -216 -228 -216c-127 0 -227 93 -227 216zM141 206c0 -78 71 -140 144 -140c67 0 142 57 142 140
c0 85 -75 137 -143 137c-70 0 -143 -54 -143 -137zM167 533c0 -55 54 -111 117 -111s118 54 118 111c0 63 -53 116 -117 116c-67 0 -118 -55 -118 -116z" />
    <glyph glyph-name="nineoldstyle" unicode="&#xf739;" horiz-adv-x="582" 
d="M244 -181h-97l187 260c-19 -8 -43 -10 -62 -10c-125 0 -224 110 -224 233c0 126 99 241 243 241c138 0 243 -108 243 -239c0 -76 -40 -139 -82 -197zM291 465c-88 0 -158 -70 -158 -157c0 -91 68 -162 155 -162c82 0 161 68 161 160c0 77 -62 159 -158 159z" />
    <glyph glyph-name="oneoldstyle" unicode="&#xf731;" horiz-adv-x="377" 
d="M232 534h69v-534h-82v418l-197 -165v104z" />
    <glyph glyph-name="f_t" unicode="&#xe389;" horiz-adv-x="597" 
d="M576 75v-75c-15 -5 -28 -6 -42 -6c-103 0 -153 71 -153 158v223h-213v-375h-81v375h-74v66h74v161c0 95 78 173 175 173c18 0 36 -2 55 -6v-76c-18 5 -37 8 -55 8c-52 0 -94 -45 -94 -99v-161h213v91l81 32v-123h114v-66h-114v-224c0 -41 24 -83 73 -83c14 0 22 0 41 7z
" />
    <glyph glyph-name="t_f" unicode="&#xe38a;" horiz-adv-x="600" 
d="M267 75v-75c-15 -5 -28 -6 -42 -6c-103 0 -153 71 -153 158v223h-59v66h59v91l81 32v-123h212v161c0 95 78 173 175 173c18 0 36 -2 55 -6v-76c-18 5 -37 8 -55 8c-52 0 -94 -45 -94 -99v-161h141v-66h-141v-375h-81v375h-212v-224c0 -41 24 -83 73 -83c14 0 22 0 41 7z
" />
    <glyph glyph-name="t_t" unicode="&#xe38b;" horiz-adv-x="566" 
d="M545 75v-75c-15 -5 -28 -6 -42 -6c-103 0 -153 71 -153 158v222h-197v-223c0 -41 24 -83 73 -83c14 0 22 0 41 7v-75c-15 -5 -28 -6 -42 -6c-103 0 -153 71 -153 158v222h-59v67h59v79l81 32v-111h197v91l81 32v-123h114v-67h-114v-223c0 -41 24 -83 73 -83
c14 0 22 0 41 7z" />
    <glyph glyph-name="parenleftinferior" unicode="&#x208d;" horiz-adv-x="207" 
d="M126 213h54c-31 -48 -69 -115 -69 -222c0 -106 38 -173 69 -222h-54c-31 53 -69 118 -69 222c0 105 38 169 69 222z" />
    <glyph glyph-name="parenleftsuperior" unicode="&#x207d;" horiz-adv-x="207" 
d="M126 938h54c-31 -48 -69 -115 -69 -222c0 -106 38 -173 69 -222h-54c-31 53 -69 118 -69 222c0 105 38 169 69 222z" />
    <glyph glyph-name="parenrightinferior" unicode="&#x208e;" horiz-adv-x="207" 
d="M27 213h54c31 -53 69 -117 69 -222c0 -104 -38 -169 -69 -222h-54c31 49 69 116 69 222c0 107 -38 174 -69 222z" />
    <glyph glyph-name="parenrightsuperior" unicode="&#x207e;" horiz-adv-x="207" 
d="M27 938h54c31 -53 69 -117 69 -222c0 -104 -38 -169 -69 -222h-54c31 49 69 116 69 222c0 107 -38 174 -69 222z" />
    <glyph glyph-name="periodinferior" unicode="&#xf6e7;" horiz-adv-x="150" 
d="M74 -111c25 0 45 -20 45 -45s-20 -44 -45 -44c-24 0 -45 19 -45 44s21 45 45 45z" />
    <glyph glyph-name="periodsuperior" unicode="&#xf6e8;" horiz-adv-x="150" 
d="M74 614c25 0 45 -20 45 -45s-20 -44 -45 -44c-24 0 -45 19 -45 44s21 45 45 45z" />
    <glyph glyph-name=".null" horiz-adv-x="0" 
 />
    <glyph glyph-name="CR" horiz-adv-x="245" 
 />
    <glyph glyph-name="triagdn" unicode="&#x25bc;" horiz-adv-x="826" 
d="M57 651h712l-356 -617z" />
    <glyph glyph-name="triaglf" unicode="&#x25c4;" horiz-adv-x="826" 
d="M721 709v-712l-617 356z" />
    <glyph glyph-name="triagrt" unicode="&#x25ba;" horiz-adv-x="826" 
d="M104 0v712l617 -356z" />
    <glyph glyph-name="triagup" unicode="&#x25b2;" horiz-adv-x="826" 
d="M769 55h-712l356 617z" />
    <glyph glyph-name="estimated" unicode="&#x212e;" horiz-adv-x="760" 
d="M591 130h58c-68 -89 -169 -141 -274 -141c-176 0 -334 148 -334 335c0 193 160 335 334 335c181 0 334 -151 334 -335v-18h-542v-195c56 -55 129 -86 208 -86c85 0 161 37 216 105zM167 537v-194h417v194c-57 56 -130 86 -209 86s-153 -30 -208 -86z" />
    <glyph glyph-name="therefore" unicode="&#x2234;" 
d="M96 105c31 0 56 -25 56 -56s-25 -55 -56 -55c-30 0 -56 24 -56 55s26 56 56 56zM471 105c31 0 56 -25 56 -56s-25 -55 -56 -55c-30 0 -56 24 -56 55s26 56 56 56zM283 467c31 0 56 -25 56 -56s-25 -55 -56 -55c-30 0 -56 24 -56 55s26 56 56 56z" />
    <glyph glyph-name="M.alt1" unicode="&#xe646;" horiz-adv-x="815" 
d="M408 436l276 276h48v-712h-82v452c0 43 2 94 3 114h-6c-12 -15 -40 -48 -63 -71l-176 -176l-176 176c-23 23 -51 56 -63 71h-7c1 -20 4 -71 4 -114v-452h-83v712h49z" />
    <glyph glyph-name="m.smallalt1" unicode="&#xe647;" horiz-adv-x="672" 
d="M331 340l194 194h59v-534h-80v301c0 37 2 84 3 102h-6c-12 -15 -39 -46 -59 -66l-111 -111l-111 111c-20 20 -47 52 -59 66h-5c0 -18 3 -65 3 -102v-301h-80v534h58z" />
    <glyph glyph-name="ampersand.alt1" unicode="&#xe648;" horiz-adv-x="672" 
d="M306 346c-97 0 -167 -57 -167 -135c0 -83 64 -144 150 -144c85 0 150 60 150 141v138h-133zM439 494l81 31v-111h130v-68h-130v-181c0 -49 30 -98 87 -98c15 0 25 1 43 7v-74c-15 -4 -29 -6 -44 -6c-67 0 -115 34 -139 80c-38 -50 -103 -85 -178 -85
c-137 0 -234 98 -234 224c0 70 39 136 109 169c-58 31 -86 85 -86 142c0 114 91 200 212 200c56 0 107 -18 149 -48v-94c-40 37 -86 64 -149 64c-71 0 -128 -51 -128 -121c0 -60 55 -111 144 -111h133v80z" />
    <glyph glyph-name="ampersand.smallalt1" unicode="&#xe649;" horiz-adv-x="575" 
d="M342 162v84h-88c-74 0 -117 -45 -117 -96c0 -55 46 -86 101 -86c56 0 104 43 104 98zM553 246h-130v-84c0 -49 30 -98 87 -98c15 0 25 1 43 7v-74c-15 -4 -29 -6 -44 -6c-60 0 -105 31 -131 68c-30 -39 -81 -70 -140 -70c-104 0 -183 65 -183 161c0 48 27 105 74 133
c-40 24 -58 65 -58 105c0 88 71 152 164 152c38 0 76 -13 107 -36v-87c-26 31 -69 48 -105 48c-47 0 -84 -34 -84 -79c0 -40 32 -73 101 -73h88v57l81 32v-89h130v-67z" />
    <glyph glyph-name="afii10017" unicode="&#x410;" horiz-adv-x="708" 
d="M329 712h49l317 -712h-90l-71 166h-361l-70 -166h-90zM500 244l-105 243c-14 32 -33 80 -38 97h-5c-6 -20 -22 -62 -38 -98l-107 -242h293z" />
    <glyph glyph-name="afii10019" unicode="&#x412;" horiz-adv-x="586" 
d="M165 634v-234h125c78 0 135 36 135 117c0 76 -62 117 -138 117h-122zM165 322v-244h138c82 0 146 40 146 125c0 80 -62 119 -153 119h-131zM83 712h198c155 0 225 -94 225 -195c0 -61 -34 -123 -83 -148c65 -27 110 -101 110 -168c0 -131 -104 -201 -226 -201h-224v712z
" />
    <glyph glyph-name="afii10022" unicode="&#x415;" horiz-adv-x="544" 
d="M83 0v712h394v-78h-312v-218h303v-80h-303v-258h312v-78h-394z" />
    <glyph glyph-name="afii10025" unicode="&#x417;" horiz-adv-x="508" 
d="M141 344v71h63c89 0 144 50 144 110c0 70 -58 121 -128 121c-66 0 -111 -18 -159 -46v89c47 22 99 35 159 35c121 0 212 -86 212 -200c0 -57 -29 -111 -86 -142c70 -33 109 -99 109 -169c0 -126 -103 -224 -237 -224c-61 0 -115 11 -164 31v88c41 -23 94 -41 164 -41
c86 0 153 61 153 144c0 78 -70 133 -167 133h-63z" />
    <glyph glyph-name="afii10026" unicode="&#x418;" horiz-adv-x="717" 
d="M83 0v712h82v-439c0 -41 -3 -93 -4 -112h5c9 18 35 56 58 88l339 463h70v-712h-82v466c0 38 2 86 3 104h-4c-11 -17 -41 -64 -65 -97l-348 -473h-54z" />
    <glyph glyph-name="afii10028" unicode="&#x41a;" horiz-adv-x="618" 
d="M300 381c211 -46 238 -207 282 -381h-85c-40 158 -59 316 -311 316h-20v-316h-83v712h83v-316h39l271 316h106z" />
    <glyph glyph-name="afii10030" unicode="&#x41c;" horiz-adv-x="816" 
d="M408 436l276 276h48v-712h-82v452c0 43 2 94 3 114h-6c-12 -15 -40 -48 -63 -71l-176 -176l-176 176c-23 23 -51 56 -63 71h-7c1 -20 4 -71 4 -114v-452h-83v712h49z" />
    <glyph glyph-name="afii10031" unicode="&#x41d;" horiz-adv-x="678" 
d="M512 416v296h82v-712h-82v335h-347v-335h-82v712h82v-296h347z" />
    <glyph glyph-name="afii10032" unicode="&#x41e;" horiz-adv-x="816" 
d="M408 724c200 0 361 -162 361 -368s-161 -367 -361 -367s-361 161 -361 367s161 368 361 368zM408 68c164 0 276 130 276 288s-112 289 -276 289c-165 0 -277 -131 -277 -289s112 -288 277 -288z" />
    <glyph glyph-name="afii10034" unicode="&#x420;" 
d="M165 634v-297h111c105 0 174 60 174 150s-71 147 -175 147h-110zM83 712h194c167 0 257 -101 257 -225c0 -159 -121 -228 -267 -228h-102v-259h-82v712z" />
    <glyph glyph-name="afii10035" unicode="&#x421;" horiz-adv-x="635" 
d="M580 124v-89c-52 -27 -116 -46 -172 -46c-200 0 -361 161 -361 367s161 368 361 368c61 0 119 -16 172 -45v-93c-50 37 -109 59 -172 59c-164 0 -277 -131 -277 -289c0 -157 113 -289 277 -289c61 0 123 24 172 57z" />
    <glyph glyph-name="afii10036" unicode="&#x422;" horiz-adv-x="479" 
d="M281 633v-633h-83v633h-180v79h443v-79h-180z" />
    <glyph glyph-name="afii10039" unicode="&#x425;" horiz-adv-x="602" 
d="M34 712h101l123 -194c18 -29 34 -61 40 -74h6c6 12 22 45 39 72l124 196h102l-219 -340l238 -372h-99l-144 227c-19 29 -35 61 -41 73h-6c-6 -13 -23 -46 -41 -74l-145 -226h-99l239 371z" />
    <glyph glyph-name="afii10049" unicode="&#x42f;" horiz-adv-x="573" 
d="M295 712h195v-712h-82v292h-81l-211 -292h-98l217 298c-112 22 -179 105 -179 206c0 113 79 208 239 208zM408 370v264h-111c-93 0 -158 -50 -158 -130c0 -81 63 -134 157 -134h112z" />
    <glyph glyph-name="afii10065" unicode="&#x430;" horiz-adv-x="472" 
d="M326 173v17c-14 4 -55 17 -108 17c-67 0 -100 -26 -100 -75c0 -47 25 -71 87 -71c71 0 121 51 121 112zM214 452c108 0 193 -60 193 -159v-293h-70l-7 58c-33 -48 -85 -69 -137 -69c-114 0 -156 56 -156 141c0 77 65 139 180 139c54 0 102 -16 109 -18v38
c0 59 -61 91 -114 91c-52 0 -90 -14 -121 -31v76c40 17 80 27 123 27z" />
    <glyph glyph-name="afii10070" unicode="&#x435;" horiz-adv-x="477" 
d="M247 380c-64 0 -108 -46 -121 -110h235c-5 76 -54 110 -114 110zM262 61c50 0 100 14 141 38v-82c-43 -17 -94 -28 -142 -28c-126 0 -221 99 -221 238c0 122 81 225 207 225c103 0 192 -76 192 -218c0 -7 -1 -16 -1 -28h-315c4 -79 59 -145 139 -145z" />
    <glyph glyph-name="afii10080" unicode="&#x43e;" horiz-adv-x="525" 
d="M40 218c0 137 99 234 223 234c130 0 223 -104 223 -232c0 -126 -93 -231 -223 -231s-223 105 -223 229zM123 219c0 -86 60 -156 140 -156c78 0 140 65 140 158c0 94 -68 157 -140 157c-75 0 -140 -64 -140 -159z" />
    <glyph glyph-name="afii10082" unicode="&#x440;" horiz-adv-x="551" 
d="M511 220c0 -120 -78 -231 -213 -231c-80 0 -129 45 -153 69v-274h-81v657h73l6 -72c49 72 109 83 155 83c137 0 213 -112 213 -232zM428 220c0 91 -53 158 -139 158c-89 0 -144 -77 -144 -162v-62c7 -12 60 -91 144 -91c86 0 139 65 139 157z" />
    <glyph glyph-name="afii10083" unicode="&#x441;" horiz-adv-x="411" 
d="M261 63c36 0 78 16 114 50v-93c-34 -20 -73 -31 -114 -31c-130 0 -222 105 -222 230c0 136 99 233 222 233c41 0 80 -10 113 -32v-94c-37 36 -75 52 -113 52c-77 0 -139 -64 -139 -159c0 -82 57 -156 139 -156z" />
    <glyph glyph-name="afii10087" unicode="&#x445;" horiz-adv-x="456" 
d="M349 0l-92 128c-11 16 -21 34 -26 44h-5c-5 -10 -16 -28 -27 -44l-92 -128h-97l172 231c-17 22 -138 188 -155 210h96l76 -107c11 -16 21 -35 26 -45h6c4 10 16 28 27 44l75 108h96l-154 -210l170 -231h-96z" />
    <glyph glyph-name="afii10027" unicode="&#x419;" horiz-adv-x="717" 
d="M464 937l54 -19c-28 -85 -104 -113 -163 -113c-60 0 -136 28 -164 113l55 19c19 -65 71 -72 109 -72c39 0 88 7 109 72zM83 0v712h82v-439c0 -41 -3 -93 -4 -112h5c9 18 35 56 58 88l339 463h70v-712h-82v466c0 38 2 86 3 104h-4c-11 -17 -41 -64 -65 -97l-348 -473h-54z
" />
    <glyph glyph-name="afii10018" unicode="&#x411;" horiz-adv-x="581" 
d="M483 633h-318v-218h144c124 0 228 -75 228 -208c0 -132 -104 -207 -228 -207h-226v712h400v-79zM304 77c82 0 148 45 148 130c0 86 -66 131 -148 131h-139v-261h139z" />
    <glyph glyph-name="afii10020" unicode="&#x413;" horiz-adv-x="435" 
d="M165 634v-634h-82v712h334v-78h-252z" />
    <glyph glyph-name="afii10021" unicode="&#x414;" horiz-adv-x="709" 
d="M35 -175v254h34c62 0 114 159 114 339v294h438v-633h53v-254h-72v175h-495v-175h-72zM188 79h350v554h-273v-216c0 -148 -28 -266 -77 -338z" />
    <glyph glyph-name="afii10024" unicode="&#x416;" horiz-adv-x="987" 
d="M669 381c211 -46 238 -207 282 -381h-85c-40 158 -59 316 -311 316h-20v-316h-83v316h-20c-252 0 -270 -158 -311 -316h-85c45 174 71 335 282 381l-282 331h106l272 -316h38v316h83v-316h39l271 316h106z" />
    <glyph glyph-name="afii10029" unicode="&#x41b;" horiz-adv-x="661" 
d="M137 712h441v-712h-82v633h-277v-424c0 -133 -86 -212 -201 -214v81c67 1 119 47 119 134v502z" />
    <glyph glyph-name="afii10033" unicode="&#x41f;" horiz-adv-x="676" 
d="M83 712h510v-712h-82v633h-346v-633h-82v712z" />
    <glyph glyph-name="afii10037" unicode="&#x423;" horiz-adv-x="586" 
d="M170 0h-93l169 300c-50 88 -183 324 -233 412h94l143 -248c12 -21 31 -59 40 -79h6c8 20 28 56 41 78l143 249h94z" />
    <glyph glyph-name="afii10038" unicode="&#x424;" horiz-adv-x="816" 
d="M449 587v-461c110 4 235 80 235 230c0 152 -125 228 -235 231zM367 126v461c-110 -3 -235 -79 -235 -231c0 -150 125 -226 235 -230zM367 -28v75c-127 5 -320 100 -320 309c0 214 189 309 320 310v74h82v-74c129 -3 320 -98 320 -310s-189 -308 -320 -309v-75h-82z" />
    <glyph glyph-name="afii10040" unicode="&#x426;" horiz-adv-x="680" 
d="M573 -176v176h-490v712h82v-633h346v633h82v-634h52v-254h-72z" />
    <glyph glyph-name="afii10041" unicode="&#x427;" horiz-adv-x="629" 
d="M464 0v271c-57 -14 -121 -25 -198 -25c-125 0 -194 87 -194 213v253h83v-247c0 -98 55 -143 123 -143c70 0 129 11 186 27v363h82v-712h-82z" />
    <glyph glyph-name="afii10042" unicode="&#x428;" horiz-adv-x="945" 
d="M83 0v712h83v-634h265v634h83v-634h264v634h83v-712h-778z" />
    <glyph glyph-name="afii10043" unicode="&#x429;" horiz-adv-x="948" 
d="M83 0v712h83v-634h265v634h83v-634h264v634h83v-634h52v-254h-72v176h-758z" />
    <glyph glyph-name="afii10044" unicode="&#x42a;" horiz-adv-x="679" 
d="M407 415c124 0 228 -75 228 -208c0 -132 -104 -207 -228 -207h-226v633h-163v79h245v-297h144zM402 77c82 0 148 45 148 130c0 86 -66 131 -148 131h-139v-261h139z" />
    <glyph glyph-name="afii10045" unicode="&#x42b;" horiz-adv-x="817" 
d="M309 415c124 0 228 -75 228 -208c0 -132 -104 -207 -228 -207h-226v712h82v-297h144zM304 77c82 0 148 45 148 130c0 86 -66 131 -148 131h-139v-261h139zM733 712v-712h-82v712h82z" />
    <glyph glyph-name="afii10046" unicode="&#x42c;" 
d="M295 415c124 0 228 -75 228 -208c0 -132 -104 -207 -228 -207h-226v712h82v-297h144zM290 77c82 0 148 45 148 130c0 86 -66 131 -148 131h-139v-261h139z" />
    <glyph glyph-name="afii10047" unicode="&#x42d;" horiz-adv-x="627" 
d="M219 68c151 0 257 110 273 249h-349v79h349c-16 139 -122 249 -273 249c-61 0 -117 -12 -172 -28v84c55 13 116 23 172 23c200 0 361 -161 361 -367s-161 -368 -361 -368c-60 0 -119 8 -172 23v86c53 -19 109 -30 172 -30z" />
    <glyph glyph-name="afii10048" unicode="&#x42e;" horiz-adv-x="1065" 
d="M657 724c200 0 361 -162 361 -368s-161 -367 -361 -367c-188 0 -341 141 -360 329h-132v-318h-82v712h82v-321h132c17 189 171 333 360 333zM657 68c164 0 276 130 276 288s-112 289 -276 289c-165 0 -277 -131 -277 -289s112 -288 277 -288z" />
    <glyph glyph-name="afii10066" unicode="&#x431;" horiz-adv-x="547" 
d="M285 452c130 0 223 -104 223 -232c0 -125 -93 -231 -223 -231s-223 105 -223 230c0 399 68 487 399 549l35 7v-77l-24 -5c-239 -46 -309 -84 -328 -296c40 34 89 55 141 55zM285 64c78 0 140 65 140 158c0 94 -68 156 -140 156c-75 0 -140 -64 -140 -159
c0 -85 60 -155 140 -155z" />
    <glyph glyph-name="afii10067" unicode="&#x432;" horiz-adv-x="422" 
d="M144 369v-112h69c40 0 69 18 69 56c0 36 -31 56 -71 56h-67zM144 190v-118h77c44 0 76 20 76 61c0 38 -32 57 -80 57h-73zM64 441h145c107 0 153 -60 153 -127c0 -33 -15 -65 -41 -85c36 -22 57 -61 57 -99c0 -86 -69 -130 -153 -130h-161v441z" />
    <glyph glyph-name="afii10068" unicode="&#x433;" horiz-adv-x="311" 
d="M144 369v-369h-80v441h238v-72h-158z" />
    <glyph glyph-name="afii10069" unicode="&#x434;" horiz-adv-x="499" 
d="M27 -138v210h30c31 0 58 89 58 186v183h300v-369h51v-210h-73v138h-294v-138h-72zM158 72h177v297h-140v-111c0 -76 -15 -143 -37 -186z" />
    <glyph glyph-name="afii10072" unicode="&#x436;" horiz-adv-x="644" 
d="M377 256c15 21 29 42 46 64l95 121h97l-156 -198c105 -33 123 -118 145 -206l9 -37h-82l-12 44c-21 78 -47 140 -151 140h-7v-184h-79v184h-6c-105 0 -130 -58 -151 -139l-12 -45h-81l8 36c20 90 39 174 144 207l-155 198h98l88 -116c18 -23 36 -47 52 -69h15v185h79
v-185h16z" />
    <glyph glyph-name="afii10073" unicode="&#x437;" horiz-adv-x="409" 
d="M104 201v62h72c55 0 87 27 87 57c0 33 -36 60 -82 60c-42 0 -91 -9 -134 -28v75c37 14 91 25 134 25c92 0 163 -54 163 -131c0 -32 -19 -66 -49 -85c42 -22 66 -63 66 -103c0 -84 -79 -144 -182 -144c-43 0 -96 9 -137 23v75c39 -17 93 -26 137 -26c57 0 99 31 99 73
c0 39 -42 67 -103 67h-71z" />
    <glyph glyph-name="afii10074" unicode="&#x438;" horiz-adv-x="505" 
d="M64 0v441h80v-227c0 -30 -1 -53 -3 -71h5c7 13 22 35 41 59l188 239h65v-441h-79v239c0 27 1 54 2 71h-4c-7 -13 -20 -33 -38 -56l-202 -254h-55z" />
    <glyph glyph-name="afii10075" unicode="&#x439;" horiz-adv-x="505" 
d="M64 0v441h80v-227c0 -30 -1 -53 -3 -71h5c7 13 22 35 41 59l188 239h65v-441h-79v239c0 27 1 54 2 71h-4c-7 -13 -20 -33 -38 -56l-202 -254h-55zM362 667l54 -19c-28 -85 -104 -113 -163 -113c-60 0 -136 28 -164 113l55 19c19 -65 71 -72 109 -72c39 0 88 7 109 72z
" />
    <glyph glyph-name="afii10076" unicode="&#x43a;" horiz-adv-x="427" 
d="M159 256c17 23 35 49 53 72l88 113h98l-156 -198c103 -33 126 -117 145 -206l8 -37h-83l-11 44c-20 79 -46 139 -150 139h-7v-183h-80v441h80v-185h15z" />
    <glyph glyph-name="afii10077" unicode="&#x43b;" horiz-adv-x="451" 
d="M83 441h303v-441h-80v369h-143v-234c0 -86 -68 -137 -154 -138v73c42 1 74 23 74 65v306z" />
    <glyph glyph-name="afii10078" unicode="&#x43c;" 
d="M144 308v-308h-80v441h50l170 -156l169 156h49v-441h-80v309l-138 -129z" />
    <glyph glyph-name="afii10079" unicode="&#x43d;" horiz-adv-x="479" 
d="M334 268v173h80v-441h-80v195h-190v-195h-80v441h80v-173h190z" />
    <glyph glyph-name="afii10081" unicode="&#x43f;" horiz-adv-x="475" 
d="M64 441h346v-441h-80v369h-186v-369h-80v441z" />
    <glyph glyph-name="afii10084" unicode="&#x442;" horiz-adv-x="325" 
d="M202 369v-369h-80v369h-113v72h307v-72h-114z" />
    <glyph glyph-name="afii10085" unicode="&#x443;" horiz-adv-x="471" 
d="M268 210l104 231h87l-308 -657h-85l129 265l-183 392h87l106 -231c12 -26 23 -60 28 -76h5c5 17 18 49 30 76z" />
    <glyph glyph-name="afii10086" unicode="&#x444;" horiz-adv-x="615" 
d="M347 764l1 -314c100 -8 227 -83 227 -229c0 -148 -127 -222 -227 -228v-209h-80v209c-100 6 -228 80 -228 228c0 146 129 222 228 229v314h79zM269 66v311c-80 -8 -148 -71 -148 -156c0 -86 67 -149 148 -155zM347 377v-311c79 6 147 69 147 155s-67 150 -147 156z" />
    <glyph glyph-name="afii10088" unicode="&#x446;" horiz-adv-x="489" 
d="M383 -138v138h-319v441h80v-369h186v369h80v-369h46v-210h-73z" />
    <glyph glyph-name="afii10089" unicode="&#x447;" horiz-adv-x="441" 
d="M296 0v152c-31 -5 -66 -10 -109 -10c-87 0 -136 55 -136 136v163h80v-159c0 -48 28 -69 63 -69c37 0 70 5 102 13v215h80v-441h-80z" />
    <glyph glyph-name="afii10090" unicode="&#x448;" horiz-adv-x="643" 
d="M64 0v441h80v-369h138v369h80v-369h136v369h80v-441h-514z" />
    </font>
</defs>
</svg>
